<svg width="667" height="397" viewBox="0 0 667 397" fill="none" xmlns="http://www.w3.org/2000/svg">
  <path d="M508.947 201.293H400.03C399.683 201.293 399.375 201.601 399.375 201.948V270.866C399.375 271.213 399.683 271.521 400.03 271.521H508.947C509.294 271.521 509.603 271.213 509.603 270.866V201.948C509.603 201.563 509.294 201.293 508.947 201.293ZM400.686 270.21V202.604H508.292V270.21H400.686Z" fill="#476CFC"/>
  <path d="M508.947 126.668H400.03C399.683 126.668 399.375 126.976 399.375 127.323V196.279C399.375 196.626 399.683 196.935 400.03 196.935H508.947C509.294 196.935 509.603 196.626 509.603 196.279V127.323C509.603 126.938 509.294 126.668 508.947 126.668ZM508.292 195.585H400.686V127.979H508.292V195.585Z" fill="#476CFC"/>
  <path d="M394.361 201.293H285.444C285.097 201.293 284.788 201.601 284.788 201.948V270.866C284.788 271.213 285.097 271.521 285.444 271.521H394.361C394.708 271.521 395.016 271.213 395.016 270.866V201.948C395.016 201.563 394.708 201.293 394.361 201.293ZM286.1 202.604H393.705V270.21H286.1V202.604Z" fill="#476CFC"/>
  <path d="M394.361 126.668H285.444C285.097 126.668 284.789 126.976 284.789 127.323V196.279C284.789 196.626 285.097 196.935 285.444 196.935H394.361C394.708 196.935 395.017 196.626 395.017 196.279V127.323C395.017 126.938 394.708 126.668 394.361 126.668ZM393.705 127.979V195.585H286.1V127.979H393.705Z" fill="#476CFC"/>
  <path d="M514.27 277.229H280.16C279.813 277.229 279.504 276.92 279.504 276.573V121.616C279.504 121.269 279.813 120.96 280.16 120.96H514.27C514.617 120.96 514.925 121.269 514.925 121.616V276.612C514.925 276.959 514.617 277.229 514.27 277.229ZM280.816 275.918H513.614V122.271H280.816V275.918Z" fill="#476CFC"/>
  <path d="M292.695 122.117C294.816 122.117 331.687 122.117 333.77 122.117C334.542 122.117 334.542 120.883 333.77 120.883C331.649 120.883 294.778 120.883 292.695 120.883C291.924 120.921 291.924 122.117 292.695 122.117Z" fill="#476CFC"/>
  <path d="M345.34 73.1384C345.456 72.7913 345.302 72.2899 344.8 72.2899C328.255 72.2899 312.326 72.2899 295.78 72.2899C291.075 72.2899 286.37 72.2899 281.664 72.2899C281.626 72.2899 281.626 72.2899 281.587 72.2899C281.548 72.2899 281.51 72.2899 281.471 72.3285C281.433 72.3285 281.394 72.367 281.356 72.4056C281.317 72.4056 281.317 72.4442 281.279 72.4827C281.24 72.5213 281.24 72.5213 281.24 72.5599C281.201 72.5984 281.201 72.637 281.163 72.6756C281.163 72.7141 281.163 72.7527 281.124 72.7913C281.124 72.8298 281.124 72.8298 281.124 72.8684C281.124 77.2649 281.124 78.3833 281.124 82.7798C281.124 82.8184 281.124 82.8184 281.124 82.857C281.124 82.8955 281.124 82.9341 281.163 82.9727C281.163 83.0112 281.201 83.0498 281.24 83.0884C281.24 83.1269 281.279 83.1269 281.317 83.1655C281.356 83.2041 281.356 83.2041 281.394 83.2041C281.433 83.2426 281.471 83.2426 281.51 83.2812C281.549 83.2812 281.587 83.2812 281.626 83.3198C281.664 83.3198 281.664 83.3198 281.703 83.3198C298.017 83.3198 314.37 83.3198 330.685 83.3198C335.39 83.3198 340.057 83.3198 344.762 83.3198C344.916 83.3198 345.07 83.2426 345.148 83.1655L345.186 83.1269C345.186 83.1269 345.186 83.0884 345.225 83.0884C345.302 83.0112 345.379 82.857 345.379 82.7027V73.1384H345.34ZM295.742 82.1242C291.268 82.1242 286.794 82.1242 282.32 82.1242C282.32 78.4605 282.32 77.1492 282.32 73.4855C298.634 73.4855 314.987 73.4855 331.302 73.4855C335.776 73.4855 339.709 73.4855 344.145 73.4855V82.1242C327.985 82.1242 311.863 82.1242 295.742 82.1242Z" fill="#476CFC"/>
  <path d="M284.017 29.1733C286.138 32.5671 288.067 36.038 289.802 39.6632C293.389 47.0679 296.127 54.8582 297.94 62.8799C298.442 65.1167 298.904 67.3535 299.251 69.5903C299.406 70.593 299.56 71.6343 299.714 72.637H300.948C300.833 71.7886 300.717 70.9401 300.601 70.0917C300.293 68.1248 299.946 66.158 299.521 64.1911C298.711 60.3731 297.67 56.5551 296.475 52.8527C294.045 45.4095 290.805 38.2363 286.871 31.4872C285.868 29.7518 284.827 28.0549 283.708 26.3966C282.976 25.2781 281.973 23.8898 280.546 23.6969C276.959 23.1956 277.807 28.402 278 30.4074C278.81 38.2748 280.469 46.0266 282.899 53.5855C285.02 60.1803 287.758 66.5822 291.036 72.6756H292.425C285.328 59.6403 280.777 45.2938 279.235 30.6002C279.08 29.2504 278.347 26.358 279.427 25.2396" fill="#476CFC"/>
  <path d="M336.585 72.5984H335.197C342.293 59.6403 346.806 45.2938 348.387 30.5617C348.542 29.2119 349.274 26.3194 348.194 25.201C346.575 23.5427 344.26 28.0549 343.605 29.1347C341.484 32.5285 339.555 35.9994 337.82 39.6246C334.233 47.0293 331.494 54.8196 329.682 62.8413C329.18 65.0781 328.717 67.3149 328.37 69.5517C328.216 70.5545 328.062 71.5957 327.908 72.5984H326.673C326.789 71.75 326.905 70.9015 327.02 70.0531C327.329 68.0862 327.676 66.1194 328.1 64.1525C328.91 60.3345 329.952 56.5165 331.147 52.8142C333.577 45.3709 336.817 38.1977 340.751 31.4487C341.754 29.7132 342.795 28.0163 343.913 26.358C344.646 25.2396 345.649 23.8512 347.076 23.6584C350.663 23.157 349.814 28.3634 349.621 30.3688C348.812 38.2363 347.153 45.988 344.723 53.5469C342.602 60.1417 339.864 66.505 336.585 72.5984Z" fill="#476CFC"/>
  <path d="M297.092 59.1004C297.169 59.4475 297.246 59.7946 297.323 60.1031L298.557 59.9874C298.326 59.0618 298.133 58.1363 297.94 57.2107C296.243 49.1504 295.472 40.9359 295.665 32.7214C295.742 28.7491 296.05 24.7382 296.552 20.7659C296.706 19.5318 296.937 14.4797 299.097 15.2896C300.563 15.8295 301.103 18.7605 301.527 20.0718C308.161 40.0489 307.736 59.5246 307.351 72.7527L308.585 72.637C308.739 67.0835 308.469 47.9549 307.814 42.4014C306.888 34.534 305.114 26.7822 302.568 19.3004C301.951 17.4107 300.524 12.32 297.477 14.2869C296.243 15.0968 295.934 16.7165 295.742 18.0663C295.433 20.0332 295.202 22.0386 294.97 24.0055C294.199 31.7958 294.276 39.6632 295.163 47.4149C295.549 51.4258 296.204 55.2824 297.092 59.1004Z" fill="#476CFC"/>
  <path d="M308.083 47.8006C307.312 39.5475 307.736 31.2173 308.855 22.9642C309.433 18.7219 310.243 14.4797 311.285 10.3146C311.632 9.00335 312.442 3.64269 314.794 4.7611C316.376 5.53242 316.646 8.69482 316.954 10.1218C320.078 23.5812 320.232 36.5008 319.461 47.762H320.657C321.12 42.2857 321.428 37.2336 321.389 34.6882C321.274 26.2037 320.194 17.7192 318.227 9.42757C317.725 7.34502 316.723 1.75297 313.059 3.48843C311.593 4.18261 311.015 5.91808 310.629 7.30645C310.05 9.38901 309.51 11.4716 309.086 13.5541C307.274 21.7686 306.425 30.176 306.502 38.5834C306.541 41.6301 306.695 44.6768 306.965 47.6849H308.083V47.8006Z" fill="#476CFC"/>
  <path d="M330.492 59.1004C330.415 59.4475 330.337 59.7946 330.26 60.1031L329.026 59.9874C329.257 59.0618 329.45 58.1363 329.643 57.2107C331.34 49.1504 332.112 40.9359 331.919 32.7214C331.842 28.7491 331.533 24.7382 331.032 20.7659C330.877 19.5318 330.646 14.4797 328.486 15.2896C327.021 15.8295 326.481 18.7605 326.056 20.0718C319.423 40.0489 319.847 59.5246 320.233 72.7527L318.998 72.637C318.844 67.0835 319.114 47.9549 319.77 42.4014C320.695 34.534 322.47 26.7822 325.015 19.3004C325.632 17.4107 327.059 12.32 330.106 14.2869C331.34 15.0968 331.649 16.7165 331.842 18.0663C332.15 20.0332 332.382 22.0386 332.613 24.0055C333.384 31.7958 333.307 39.6632 332.42 47.4149C332.034 51.4258 331.379 55.2824 330.492 59.1004Z" fill="#476CFC"/>
  <path d="M303.031 98.8618C296.475 98.8618 296.552 98.669 290.111 98.669C289.995 97.0878 289.879 95.5066 289.764 93.9254C292.579 93.9254 295.395 93.9254 298.21 93.9254C298.981 93.9254 298.981 92.6913 298.21 92.6913C295.356 92.6913 292.541 92.6913 289.687 92.6913C289.532 89.3746 289.417 86.0965 289.417 82.7798H288.182C288.182 95.8537 289.494 108.889 292.116 121.693C292.271 122.464 293.466 122.117 293.312 121.384C291.846 114.288 290.844 107.115 290.188 99.9031C296.513 99.9031 296.513 100.096 302.993 100.096C303.802 100.096 303.803 98.8618 303.031 98.8618Z" fill="#476CFC"/>
  <path d="M337.01 83.0112C337.01 89.7602 336.624 96.5478 335.93 103.258C333.924 103.258 331.957 103.258 329.952 103.258C329.18 103.258 329.18 104.492 329.952 104.492C331.919 104.492 333.847 104.492 335.814 104.492C335.66 105.804 335.506 107.153 335.313 108.465H325.902C325.131 108.465 325.131 109.699 325.902 109.699H335.12C334.58 113.633 333.924 117.528 333.114 121.423C332.96 122.194 334.117 122.503 334.31 121.731C336.933 109.005 338.244 96.0079 338.244 83.0498H337.01V83.0112Z" fill="#476CFC"/>
  <path d="M430.422 87.3306C413.876 87.3306 397.948 87.3306 381.402 87.3306C376.696 87.3306 371.991 87.3306 367.286 87.3306C367.247 87.3306 367.247 87.3306 367.209 87.3306C367.17 87.3306 367.132 87.3306 367.093 87.3692C367.054 87.3692 367.016 87.4077 366.977 87.4463C366.939 87.4463 366.939 87.4849 366.9 87.5234C366.862 87.562 366.862 87.562 366.862 87.6006C366.823 87.6391 366.823 87.6777 366.784 87.7163C366.784 87.7548 366.784 87.7934 366.746 87.832C366.746 87.8705 366.746 87.8705 366.746 87.9091C366.746 92.3056 366.746 93.424 366.746 97.8205C366.746 97.8591 366.746 97.8591 366.746 97.8977C366.746 97.9362 366.746 97.9748 366.784 98.0134C366.784 98.0519 366.823 98.0905 366.862 98.1291C366.862 98.1676 366.9 98.1676 366.939 98.2062C366.977 98.2448 366.977 98.2447 367.016 98.2447C367.054 98.2833 367.093 98.2833 367.132 98.3219C367.17 98.3219 367.209 98.3219 367.247 98.3604C367.286 98.3604 367.286 98.3604 367.324 98.3604C369.523 98.3604 371.683 98.3604 373.881 98.3604C373.92 105.996 374.421 113.633 375.347 121.23C375.231 121.577 375.385 122.078 375.887 122.078H402.499H420.394H421.899C422.361 122.078 422.554 121.654 422.477 121.307C423.403 113.71 423.865 106.035 423.904 98.3604C426.064 98.3604 428.224 98.3604 430.384 98.3604C430.538 98.3604 430.692 98.2833 430.769 98.2062L430.808 98.1676C430.808 98.1676 430.808 98.1291 430.846 98.1291C430.923 98.0519 431.001 97.8977 431.001 97.7434V88.1019C431.078 87.832 430.885 87.3306 430.422 87.3306ZM421.243 120.921H420.433H402.306H376.426C375.539 113.478 375.077 105.958 375.038 98.4376C388.768 98.4376 402.499 98.4376 416.268 98.4376C418.389 98.4376 420.51 98.4376 422.631 98.4376C422.631 105.919 422.168 113.44 421.243 120.921ZM429.728 97.2035C413.606 97.2035 397.485 97.2035 381.363 97.2035C376.889 97.2035 372.415 97.2035 367.941 97.2035C367.941 93.5397 367.941 92.2285 367.941 88.5647C384.256 88.5647 400.609 88.5647 416.923 88.5647C421.397 88.5647 425.331 88.5647 429.766 88.5647V97.2035H429.728Z" fill="#476CFC"/>
  <path d="M363.932 96.823C364.773 95.9177 363.328 93.2102 360.706 90.7755C358.083 88.3408 355.276 87.101 354.436 88.0063C353.595 88.9115 355.039 91.6191 357.662 94.0538C360.284 96.4884 363.091 97.7283 363.932 96.823Z" fill="#476CFC"/>
  <path d="M373.77 118.298C374.388 117.228 372.377 114.91 369.278 113.121C366.179 111.332 363.166 110.749 362.548 111.819C361.93 112.889 363.942 115.206 367.041 116.995C370.14 118.785 373.153 119.368 373.77 118.298Z" fill="#476CFC"/>
  <path d="M378.801 140.505C379.418 139.435 377.407 137.117 374.308 135.328C371.209 133.539 368.196 132.956 367.578 134.026C366.96 135.096 368.972 137.413 372.071 139.203C375.17 140.992 378.183 141.575 378.801 140.505Z" fill="#476CFC"/>
  <path d="M375.459 160.114C376.077 159.044 374.066 156.727 370.967 154.938C367.868 153.149 364.855 152.565 364.237 153.635C363.619 154.705 365.631 157.023 368.73 158.812C371.829 160.601 374.842 161.184 375.459 160.114Z" fill="#476CFC"/>
  <path d="M354.095 107.463C356.031 104.454 356.759 101.472 355.72 100.804C354.681 100.135 352.269 102.033 350.332 105.042C348.396 108.052 347.669 111.033 348.708 111.701C349.747 112.37 352.159 110.472 354.095 107.463Z" fill="#476CFC"/>
  <path d="M364.212 127.981C366.148 124.971 366.876 121.99 365.837 121.321C364.798 120.653 362.386 122.551 360.449 125.56C358.513 128.569 357.786 131.551 358.825 132.219C359.864 132.888 362.276 130.99 364.212 127.981Z" fill="#476CFC"/>
  <path d="M358.382 168.633C360.784 165.98 361.988 163.157 361.072 162.328C360.156 161.499 357.467 162.978 355.065 165.631C352.664 168.284 351.459 171.107 352.375 171.936C353.291 172.765 355.981 171.286 358.382 168.633Z" fill="#476CFC"/>
  <path d="M362.351 147.986C365.357 146.045 367.251 143.63 366.581 142.592C365.911 141.555 362.93 142.287 359.924 144.227C356.918 146.168 355.024 148.583 355.694 149.621C356.364 150.659 359.344 149.927 362.351 147.986Z" fill="#476CFC"/>
  <path d="M378.316 137.852C377.429 136.849 376.079 135.769 374.537 134.882C372.145 133.494 369.446 132.607 367.98 133.108C368.019 128.365 367.44 123.583 366.052 118.916C365.743 117.875 365.396 116.872 365.01 115.869C365.666 116.409 366.437 116.949 367.286 117.412C369.214 118.53 371.374 119.34 372.878 119.34C373.727 119.34 374.344 119.109 374.691 118.569C375.578 117.026 373.033 114.442 370.024 112.707C368.482 111.82 366.9 111.164 365.589 110.933C364.085 110.663 363.313 110.894 362.889 111.241C362.503 110.509 362.079 109.776 361.616 109.082C359.996 106.575 358.029 104.184 356.68 101.523C356.602 101.137 356.448 100.79 356.217 100.559C355.985 100.057 355.793 99.5945 355.638 99.0546C354.79 96.5093 354.558 93.8482 354.674 91.1872C355.33 92.2285 356.255 93.3469 357.374 94.4267C358.685 95.6223 360.074 96.625 361.308 97.1649C362.079 97.512 362.696 97.6277 363.159 97.6277C363.738 97.6277 364.123 97.3963 364.355 97.1649C364.74 96.7407 365.049 95.8537 364.123 94.1568C363.506 92.9612 362.426 91.65 361.115 90.4159C359.109 88.5261 356.641 87.0606 355.098 87.2149C355.6 84.1296 356.564 80.8515 358.762 78.5376C361.616 75.568 366.052 75.4523 369.484 77.5349C373.033 79.6946 374.807 83.7825 375.347 87.7548C375.462 88.5261 376.619 88.2176 376.542 87.4463C375.617 80.8515 370.68 73.9483 363.236 74.951C356.255 75.8765 354.134 83.8211 353.594 89.7217C353.286 93.2697 353.517 96.8949 354.828 100.25C353.324 100.636 351.434 102.564 350.007 104.801C348.117 107.732 347.038 111.164 348.542 112.128C348.773 112.283 349.043 112.36 349.313 112.36C350.856 112.36 353.016 110.239 354.635 107.771C355.523 106.421 356.217 104.955 356.564 103.644C358.222 106.382 360.305 108.85 361.848 111.666C363.429 114.52 364.625 117.566 365.435 120.729C363.892 120.767 361.732 122.888 360.151 125.318C358.261 128.249 357.181 131.681 358.685 132.645C358.917 132.8 359.187 132.877 359.457 132.877C360.999 132.877 363.159 130.756 364.779 128.288C365.435 127.246 365.975 126.166 366.36 125.202C366.862 128.48 367.016 131.797 366.9 135.075C366.823 137.312 366.63 139.549 366.322 141.786C365.859 141.67 365.165 141.631 364.2 141.901C362.889 142.21 361.346 142.943 359.842 143.907C358.338 144.871 357.065 145.989 356.217 147.031C355.021 148.573 355.137 149.46 355.445 149.962C355.677 150.309 356.14 150.656 357.065 150.656C357.451 150.656 357.875 150.617 358.415 150.463C359.726 150.154 361.269 149.422 362.773 148.457C363.776 147.802 364.74 147.031 365.512 146.259C364.47 151.543 362.966 156.749 361.346 161.878C360.884 161.57 359.996 161.416 358.454 162.264C357.258 162.92 355.947 164 354.751 165.311C352.437 167.895 350.779 171.096 352.09 172.33C352.36 172.561 352.707 172.677 353.131 172.677C354.674 172.677 356.95 171.019 358.801 168.975C359.919 167.74 360.768 166.468 361.346 165.311C361.462 165.234 361.578 165.157 361.616 164.964C362.581 161.956 363.545 158.909 364.393 155.785C365.242 156.981 366.823 158.253 368.559 159.256C370.487 160.374 372.647 161.184 374.151 161.146C375 161.146 375.617 160.914 375.964 160.374C376.851 158.832 374.305 156.248 371.297 154.512C369.137 153.278 366.746 152.43 365.242 152.623C365.936 149.807 366.592 146.992 367.054 144.138C367.286 143.598 367.402 143.135 367.286 142.711C367.594 140.629 367.826 138.546 367.98 136.464C368.867 137.582 370.333 138.7 371.914 139.626C373.842 140.744 376.002 141.554 377.506 141.516C378.355 141.516 378.972 141.284 379.319 140.744C379.512 140.243 379.589 139.317 378.316 137.852ZM354.867 88.2948C354.944 88.2176 355.098 88.1791 355.253 88.1791C356.178 88.1791 358.184 89.1046 360.344 91.1101C361.578 92.267 362.581 93.4626 363.159 94.581C363.699 95.5837 363.738 96.2393 363.545 96.4321C363.352 96.625 362.696 96.625 361.655 96.1622C360.536 95.6608 359.225 94.7738 357.991 93.6168C356.757 92.4599 355.754 91.2643 355.175 90.1459C354.944 89.7217 354.828 89.3746 354.751 89.0661C354.828 88.8732 354.828 88.5647 354.867 88.2948ZM353.633 107.192C351.666 110.239 349.544 111.666 348.966 111.28C348.387 110.894 348.773 108.388 350.74 105.341C352.476 102.68 354.288 101.253 355.137 101.214C355.175 101.33 355.214 101.407 355.253 101.523C355.368 101.793 355.523 102.024 355.638 102.256C355.561 103.335 354.983 105.148 353.633 107.192ZM364.239 113.825C364.123 113.671 364.046 113.555 363.93 113.44C363.776 113.093 363.583 112.707 363.39 112.36C363.39 112.244 363.39 112.167 363.429 112.09C363.506 111.936 363.815 111.82 364.355 111.82C364.625 111.82 364.933 111.858 365.319 111.936C366.553 112.167 368.019 112.746 369.446 113.594C372.608 115.407 374.112 117.451 373.765 118.068C373.418 118.685 370.873 118.415 367.749 116.564C366.322 115.715 365.088 114.751 364.239 113.825ZM365.627 123.66C365.319 124.855 364.663 126.282 363.776 127.709C361.809 130.756 359.688 132.183 359.109 131.797C358.531 131.411 358.917 128.905 360.884 125.858C362.658 123.12 364.509 121.693 365.319 121.693C365.396 121.693 365.512 121.731 365.55 121.77C365.627 122.078 365.705 122.426 365.782 122.734C365.743 123.004 365.705 123.313 365.627 123.66ZM357.991 168.28C355.561 170.98 353.247 172.021 352.707 171.558C352.206 171.096 352.977 168.666 355.445 165.966C356.564 164.732 357.798 163.73 358.878 163.113C359.534 162.727 360.074 162.611 360.382 162.611C360.536 162.611 360.652 162.65 360.729 162.727C360.806 162.804 360.845 162.958 360.845 163.151C360.691 163.652 360.536 164.154 360.382 164.617C360.344 164.732 360.344 164.809 360.344 164.887C359.842 165.966 359.032 167.162 357.991 168.28ZM365.589 153.625C366.669 153.625 368.52 154.165 370.718 155.399C373.881 157.212 375.385 159.256 375.038 159.873C374.691 160.49 372.145 160.22 369.021 158.369C366.437 156.903 365.01 155.284 364.74 154.397C364.779 154.165 364.856 153.972 364.895 153.741C365.049 153.664 365.28 153.625 365.589 153.625ZM365.782 144.254C365.165 145.179 363.93 146.413 362.118 147.57C360.729 148.496 359.264 149.152 358.068 149.422C356.95 149.692 356.332 149.576 356.178 149.344C356.024 149.113 356.178 148.457 356.872 147.57C357.644 146.606 358.839 145.565 360.228 144.639C361.616 143.714 363.082 143.058 364.278 142.788C364.74 142.673 365.088 142.634 365.396 142.634C365.666 142.634 365.859 142.673 366.013 142.75C365.936 143.251 365.859 143.752 365.782 144.254ZM378.355 140.243C378.008 140.86 375.462 140.59 372.338 138.739C369.176 136.926 367.672 134.882 368.019 134.265C368.134 134.072 368.443 133.957 368.906 133.957C369.986 133.957 371.837 134.497 374.035 135.731C375.501 136.579 376.735 137.543 377.545 138.469C378.278 139.356 378.471 140.012 378.355 140.243Z" fill="#476CFC"/>
  <path d="M432.515 69.7265C435.99 68.8745 438.569 67.2112 438.275 66.0114C437.981 64.8117 434.925 64.5297 431.449 65.3817C427.974 66.2337 425.395 67.897 425.689 69.0968C425.983 70.2965 429.039 70.5785 432.515 69.7265Z" fill="#476CFC"/>
  <path d="M445.495 83.8234C445.969 82.6828 443.675 80.6442 440.371 79.2702C437.067 77.8961 434.004 77.7069 433.53 78.8475C433.055 79.9881 435.349 82.0266 438.653 83.4007C441.957 84.7747 445.02 84.964 445.495 83.8234Z" fill="#476CFC"/>
  <path d="M435.454 96.1427C436.828 92.8389 437.017 89.776 435.877 89.3017C434.736 88.8273 432.697 91.121 431.323 94.4248C429.949 97.7286 429.76 100.792 430.9 101.266C432.041 101.74 434.08 99.4465 435.454 96.1427Z" fill="#476CFC"/>
  <path d="M446.23 112.418C447.211 111.667 446.244 108.754 444.07 105.912C441.896 103.07 439.337 101.374 438.356 102.125C437.375 102.876 438.342 105.788 440.516 108.63C442.691 111.473 445.249 113.168 446.23 112.418Z" fill="#476CFC"/>
  <path d="M448.763 133.592C449.664 132.747 448.411 129.945 445.964 127.334C443.517 124.723 440.803 123.291 439.901 124.136C439 124.981 440.253 127.782 442.7 130.393C445.147 133.005 447.861 134.436 448.763 133.592Z" fill="#476CFC"/>
  <path d="M437.067 120.14C438.797 117.008 439.323 113.985 438.241 113.387C437.16 112.79 434.881 114.845 433.151 117.977C431.42 121.109 430.894 124.132 431.976 124.73C433.057 125.327 435.336 123.272 437.067 120.14Z" fill="#476CFC"/>
  <path d="M439.872 136.849C439.255 136.502 437.249 138.045 435.475 141.246C433.701 144.447 433.469 146.953 434.086 147.301C434.318 147.416 434.973 147.223 435.783 146.452C436.709 145.604 437.635 144.37 438.445 142.904C440.257 139.703 440.489 137.196 439.872 136.849Z" fill="#476CFC"/>
  <path d="M446.274 126.975C445.039 125.664 443.728 124.623 442.532 123.967C441.26 123.312 440.488 123.273 439.948 123.466C439.91 122.772 439.833 122.078 439.794 121.422C439.447 116.64 439.177 111.858 438.83 107.075C439.177 107.692 439.601 108.31 440.064 108.888C441.144 110.315 442.378 111.51 443.497 112.243C444.538 112.937 445.309 113.092 445.811 113.053C446.081 113.015 446.312 112.899 446.466 112.783C446.929 112.436 447.354 111.626 446.736 109.775C446.312 108.502 445.464 106.998 444.384 105.61C442.455 103.103 439.91 101.021 438.406 101.522C438.174 98.8609 437.904 96.1998 437.596 93.5773C437.094 89.6436 436.323 85.6713 435.012 81.9305C435.976 82.6632 437.21 83.3188 438.483 83.8588C440.566 84.7072 442.802 85.2086 444.307 85.0157C445.117 84.9 445.734 84.5915 446.004 84.013C446.698 82.3547 443.805 80.1564 440.604 78.8066C438.946 78.1124 437.326 77.6882 435.976 77.6111C434.626 77.5339 433.893 77.8039 433.469 78.151C432.35 75.8756 431.001 73.7159 429.304 71.7491C428.995 71.402 428.648 71.0163 428.301 70.6692C429.034 70.7078 429.882 70.7078 430.769 70.5921C431.425 70.515 432.119 70.3607 432.775 70.2064C434.51 69.7822 436.092 69.1652 437.21 68.4324C438.868 67.3911 439.023 66.4655 438.907 65.9256C438.753 65.3471 438.174 64.653 436.246 64.4601C434.896 64.3444 433.199 64.4987 431.463 64.9229C429.728 65.3471 428.146 65.9642 427.028 66.6969C426.18 67.2369 425.717 67.7768 425.485 68.201C421.744 65.3086 417.155 63.5731 412.334 64.113C405.854 64.8843 399.567 69.5508 398.796 76.2998C398.719 77.0712 399.915 77.264 399.992 76.4541C400.647 70.9006 405.391 66.8898 410.636 65.6171C416.345 64.2287 422.053 66.5041 426.295 70.3993C431.386 75.0657 434.125 81.5834 435.513 88.2167C435.552 88.371 435.59 88.5252 435.59 88.718C434.009 88.6795 432.08 91.302 430.885 94.1944C429.535 97.3954 429.072 100.982 430.731 101.676C430.962 101.753 431.193 101.792 431.425 101.753C432.968 101.56 434.78 99.0151 435.899 96.277C436.13 95.6985 436.323 95.12 436.516 94.5801C437.172 100.056 437.403 105.61 437.827 111.086C437.866 111.626 437.904 112.205 437.943 112.745C437.403 112.706 436.632 112.899 435.59 113.863C434.587 114.75 433.585 116.138 432.698 117.681C431.039 120.728 430.152 124.237 431.733 125.124C432.003 125.278 432.312 125.317 432.62 125.278C434.163 125.086 436.13 122.849 437.519 120.342C437.866 119.725 438.136 119.108 438.406 118.491C438.56 120.573 438.714 122.617 438.869 124.7C439.023 126.975 439.216 129.251 439.37 131.488C439.447 132.606 439.524 133.763 439.601 134.881C439.64 135.151 439.64 135.46 439.678 135.73C438.136 135.768 436.053 138.082 434.626 140.666C432.968 143.713 432.08 147.222 433.662 148.109C433.893 148.225 434.163 148.302 434.549 148.264C435.05 148.187 435.706 147.917 436.554 147.145C437.557 146.258 438.56 144.87 439.447 143.327C440.797 140.859 441.645 138.082 441.067 136.655C441.028 136.193 440.951 135.73 440.913 135.46C440.72 133.03 440.566 130.562 440.373 128.132C440.913 128.981 441.568 129.829 442.34 130.678C444.307 132.799 446.775 134.457 448.318 134.264C448.626 134.226 448.896 134.11 449.128 133.917C450.362 132.722 448.665 129.521 446.274 126.975ZM427.028 69.4351C426.835 69.2423 426.604 69.0495 426.411 68.8952C426.411 68.5867 426.758 68.1239 427.645 67.5454C428.686 66.8898 430.152 66.2727 431.772 65.8871C432.428 65.7328 433.083 65.6171 433.7 65.54C434.626 65.4243 435.474 65.3857 436.207 65.4628C437.326 65.5785 437.904 65.8871 437.981 66.157C438.059 66.427 437.673 66.9669 436.747 67.584C435.706 68.2396 434.24 68.8566 432.62 69.2423C431.001 69.6279 429.419 69.7822 428.185 69.7051C427.645 69.6279 427.298 69.5122 427.028 69.4351ZM434.047 78.9994C434.163 78.7295 434.78 78.4981 435.899 78.5752C437.133 78.6524 438.676 79.038 440.218 79.6936C443.574 81.082 445.348 82.9332 445.078 83.5888C444.808 84.2444 442.263 84.283 438.907 82.8946C435.513 81.5062 433.777 79.6551 434.047 78.9994ZM436.13 91.6105C436.053 92.8446 435.667 94.3872 435.012 95.9299C433.623 99.2851 431.772 101.059 431.116 100.789C430.461 100.519 430.422 97.9739 431.81 94.6186C433.083 91.5719 434.703 89.8365 435.474 89.7593C435.552 89.7593 435.629 89.7593 435.706 89.7979C435.744 89.7979 435.783 89.875 435.822 89.9136C435.937 90.4535 436.053 91.032 436.13 91.6105ZM436.632 119.879C434.857 123.08 432.852 124.623 432.235 124.276C431.618 123.929 431.849 121.422 433.623 118.221C434.433 116.755 435.397 115.483 436.284 114.673C436.901 114.094 437.403 113.863 437.75 113.824C437.866 113.824 437.943 113.824 438.02 113.863C438.059 113.863 438.059 113.902 438.059 113.94C438.097 114.596 438.136 115.213 438.213 115.868C437.981 116.91 437.48 118.298 436.632 119.879ZM438.714 104.414C438.676 104.337 438.676 104.299 438.676 104.222C438.637 103.72 438.599 103.18 438.56 102.679C438.599 102.602 438.637 102.563 438.676 102.525C439.216 102.1 441.453 103.335 443.651 106.227C444.654 107.538 445.425 108.927 445.849 110.122C446.196 111.202 446.158 111.858 445.926 112.012C445.695 112.166 445.039 112.089 444.114 111.433C443.072 110.739 441.954 109.621 440.951 108.31C439.871 106.96 439.1 105.571 438.714 104.414ZM434.086 147.3C433.469 146.952 433.7 144.446 435.474 141.245C437.017 138.468 438.753 136.925 439.563 136.81C439.678 136.81 439.756 136.848 439.91 136.887C440.488 137.311 440.218 139.779 438.483 142.903C437.673 144.369 436.709 145.641 435.822 146.451C434.973 147.222 434.356 147.415 434.086 147.3ZM438.406 136.81C438.406 136.81 438.444 136.81 438.406 136.81C438.444 136.81 438.406 136.81 438.406 136.81ZM438.907 136.54C438.907 136.54 438.946 136.54 438.946 136.501C438.946 136.501 438.946 136.501 438.907 136.54ZM437.904 137.234L437.866 137.272C437.904 137.234 437.904 137.234 437.904 137.234ZM437.364 137.774C437.326 137.812 437.287 137.851 437.287 137.851C437.287 137.812 437.326 137.774 437.364 137.774ZM435.513 140.165C435.552 140.126 435.59 140.049 435.629 140.011C435.59 140.049 435.552 140.126 435.513 140.165ZM436.13 139.278C436.169 139.239 436.207 139.201 436.207 139.162C436.169 139.201 436.13 139.239 436.13 139.278ZM436.709 138.507L436.747 138.468C436.747 138.468 436.709 138.468 436.709 138.507ZM440.064 140.589C440.064 140.628 440.026 140.666 440.026 140.705C440.064 140.666 440.064 140.628 440.064 140.589ZM439.64 141.708C439.601 141.785 439.601 141.862 439.563 141.9C439.601 141.862 439.601 141.785 439.64 141.708ZM448.356 133.184C447.855 133.686 445.502 132.683 443.034 130.022C441.877 128.788 440.99 127.515 440.488 126.358C440.257 125.857 440.141 125.433 440.103 125.124C440.103 125.086 440.103 125.086 440.103 125.047C440.064 124.739 440.141 124.546 440.218 124.469C440.257 124.43 440.334 124.391 440.45 124.391C440.758 124.353 441.337 124.469 442.07 124.854C443.15 125.433 444.384 126.435 445.541 127.631C448.048 130.331 448.896 132.722 448.356 133.184Z" fill="#476CFC"/>
  <path d="M385.787 83.5823C386.627 82.677 385.183 79.9694 382.561 77.5348C379.938 75.1001 377.131 73.8603 376.29 74.7656C375.45 75.6708 376.894 78.3784 379.516 80.8131C382.139 83.2477 384.946 84.4876 385.787 83.5823Z" fill="#476CFC"/>
  <path d="M377.531 70.7439C380.819 69.3308 383.088 67.2652 382.6 66.1303C382.112 64.9954 379.052 65.2209 375.764 66.6339C372.477 68.047 370.207 70.1125 370.695 71.2475C371.183 72.3824 374.243 72.1569 377.531 70.7439Z" fill="#476CFC"/>
  <path d="M369.11 58.5855C369.287 57.3629 366.559 55.9567 363.018 55.4446C359.476 54.9326 356.462 55.5086 356.285 56.7312C356.108 57.9539 358.836 59.3601 362.377 59.8722C365.919 60.3842 368.933 59.8082 369.11 58.5855Z" fill="#476CFC"/>
  <path d="M365.391 40.9461C366.392 40.2215 365.501 37.2849 363.402 34.3872C361.303 31.4895 358.79 29.728 357.79 30.4526C356.789 31.1773 357.68 34.1138 359.779 37.0115C361.878 39.9092 364.391 41.6708 365.391 40.9461Z" fill="#476CFC"/>
  <path d="M371.597 26.1131C372.83 26.0361 373.65 23.0785 373.427 19.507C373.204 15.9355 372.024 13.1026 370.791 13.1795C369.558 13.2565 368.739 16.2141 368.961 19.7856C369.184 23.3571 370.364 26.19 371.597 26.1131Z" fill="#476CFC"/>
  <path d="M393.113 71.7561C395.366 68.9762 396.415 66.092 395.455 65.3143C394.495 64.5365 391.891 66.1596 389.638 68.9395C387.385 71.7195 386.336 74.6036 387.296 75.3814C388.256 76.1592 390.86 74.5361 393.113 71.7561Z" fill="#476CFC"/>
  <path d="M379.359 56.0778C380.233 52.6079 379.97 49.5506 378.772 49.2491C377.574 48.9475 375.895 51.5159 375.021 54.9858C374.148 58.4557 374.411 61.513 375.609 61.8145C376.807 62.1161 378.486 59.5477 379.359 56.0778Z" fill="#476CFC"/>
  <path d="M371.794 47.4303C374.543 45.1398 376.131 42.5136 375.34 41.5645C374.549 40.6154 371.679 41.7027 368.93 43.9932C366.18 46.2836 364.593 48.9098 365.384 49.859C366.174 50.8081 369.044 49.7207 371.794 47.4303Z" fill="#476CFC"/>
  <path d="M374.993 35.1087C378.532 34.5834 381.255 33.1669 381.074 31.9449C380.892 30.7229 377.876 30.1581 374.336 30.6834C370.796 31.2087 368.073 32.6251 368.255 33.8472C368.436 35.0692 371.453 35.634 374.993 35.1087Z" fill="#476CFC"/>
  <path d="M390.637 22.4843C391.02 21.3101 388.574 19.4569 385.173 18.3452C381.771 17.2334 378.703 17.284 378.319 18.4582C377.935 19.6324 380.381 21.4856 383.783 22.5973C387.184 23.7091 390.253 23.6585 390.637 22.4843Z" fill="#476CFC"/>
  <path d="M387.532 7.54832C388.644 4.14716 388.594 1.07883 387.419 0.694998C386.245 0.311171 384.392 2.7572 383.28 6.15836C382.168 9.55953 382.219 12.6279 383.393 13.0117C384.567 13.3955 386.421 10.9495 387.532 7.54832Z" fill="#476CFC"/>
  <path d="M395.788 64.9229C394.399 63.8045 391.468 65.9256 389.27 68.6252C388.228 69.8979 387.457 71.2091 386.956 72.4047C386.956 72.3661 386.956 72.3661 386.917 72.3275C386.107 69.8207 384.757 67.6996 383.06 65.9256C382.944 65.6556 382.713 65.3857 382.289 65.1928C380.746 63.8045 378.972 62.6475 377.005 61.799C377.313 61.5291 377.661 61.1434 378.008 60.6035C378.74 59.4851 379.396 57.9039 379.82 56.1684C380.245 54.433 380.438 52.7361 380.322 51.4248C380.168 49.458 379.435 48.918 378.895 48.7638C378.316 48.6095 377.429 48.8023 376.349 50.4221C375.616 51.5405 374.961 53.1217 374.537 54.8572C373.997 56.9397 373.842 59.0994 374.189 60.5649C371.837 59.4851 369.831 58.0582 368.327 55.7828C367.286 54.2401 366.553 52.5047 366.09 50.6921C366.167 50.6921 366.244 50.7306 366.322 50.7306C366.746 50.7306 367.324 50.6149 368.057 50.345C369.33 49.8822 370.757 48.9566 372.145 47.8382C374.807 45.6014 376.889 42.6704 375.771 41.282C375.385 40.8192 374.575 40.4336 372.724 41.1277C371.451 41.5905 370.024 42.5161 368.636 43.6345C367.363 44.6758 366.322 45.8713 365.589 46.9512C365.434 42.7475 366.514 38.621 368.134 34.7258C368.867 35.4971 370.487 35.8442 372.377 35.8442C373.225 35.8442 374.151 35.7671 375.038 35.6514C376.812 35.3814 378.432 34.9186 379.628 34.3016C381.363 33.4146 381.633 32.5276 381.556 31.9491C381.479 31.3706 380.977 30.5993 379.049 30.2522C377.738 30.0208 376.041 30.0208 374.267 30.2907C372.492 30.5607 370.873 31.0235 369.677 31.6405C369.638 31.6405 369.638 31.6791 369.6 31.6791C370.101 30.6764 370.641 29.6737 371.22 28.7095C373.148 25.3929 375.385 22.3462 377.931 19.4923C378.123 19.9165 378.548 20.4179 379.319 20.9964C380.399 21.8062 381.903 22.5776 383.6 23.1175C385.181 23.6188 386.84 23.9274 388.19 23.9274C389.655 23.9274 390.774 23.5417 391.082 22.6547C391.275 22.1148 391.159 21.1892 389.578 19.9936C388.498 19.1838 386.994 18.4124 385.297 17.8725C383.523 17.294 381.633 16.9855 380.206 17.0626C381.517 15.7514 382.944 14.5173 384.371 13.3603C385.76 12.6661 387.11 10.2751 387.958 7.7297C388.498 6.03281 388.807 4.37448 388.768 3.02467C388.73 1.05781 388.074 0.440757 387.496 0.247928C385.799 -0.291994 383.793 2.71614 382.752 6.03281C381.787 8.92525 381.556 12.0876 382.674 13.2061C379.358 15.9828 376.388 19.1066 373.804 22.539C373.919 21.6134 373.919 20.6107 373.881 19.5694C373.765 17.7954 373.418 16.1371 372.917 14.8644C372.184 13.0518 371.297 12.7047 370.718 12.7433C370.14 12.7818 369.33 13.2061 368.828 15.0958C368.481 16.407 368.327 18.1039 368.443 19.878C368.558 21.652 368.906 23.3103 369.407 24.583C369.947 25.8557 370.525 26.3956 371.027 26.5884C368.867 30.0208 367.016 33.8002 365.782 37.6954C365.319 36.5384 364.625 35.3043 363.776 34.1473C361.732 31.332 358.916 29.0566 357.489 30.0979C356.024 31.1392 357.335 34.533 359.379 37.3483C361.076 39.6622 363.275 41.6291 364.817 41.6677C364.74 42.0533 364.663 42.439 364.625 42.8246C363.969 47.3754 364.625 52.1961 367.054 56.0913C365.936 55.6285 364.586 55.2429 363.082 55.0115C359.649 54.5101 356.062 54.9343 355.792 56.7084C355.522 58.4824 358.878 59.9093 362.31 60.4107C363.197 60.5264 364.046 60.6035 364.894 60.6035C367.131 60.6035 368.983 60.1407 369.484 59.0609C371.374 60.7963 373.611 61.7605 376.041 62.6861C377.545 63.2645 378.972 64.0359 380.206 65C378.856 65.1157 377.236 65.5399 375.578 66.2341C373.958 66.9283 372.492 67.8153 371.49 68.7409C370.063 70.0521 370.024 70.9777 370.255 71.5176C370.564 72.2504 371.413 72.5589 372.57 72.5589C374.035 72.5589 375.964 72.0576 377.738 71.2862C379.358 70.5921 380.823 69.705 381.826 68.7795C382.327 68.3167 382.674 67.8925 382.867 67.5454C383.022 67.7382 383.176 67.931 383.33 68.1238C386.146 71.9033 387.033 76.6855 385.991 81.082C385.336 79.8479 384.217 78.4595 382.944 77.264C380.399 74.9114 377.198 73.2145 375.964 74.5258C374.729 75.837 376.658 78.9223 379.203 81.2748C381.055 83.0103 383.253 84.3601 384.796 84.4758C384.294 85.5171 383.677 86.5198 382.906 87.4453C382.404 88.0624 383.292 88.9109 383.754 88.2938C386.493 84.9 387.92 80.5035 387.611 76.1455C387.688 76.1455 387.804 76.1841 387.881 76.1841C389.424 76.1841 391.699 74.3715 393.474 72.1733C394.592 70.7849 395.479 69.3194 395.942 68.0467C396.636 66.1184 396.212 65.3085 395.788 64.9229ZM383.754 6.30277C384.834 3.02467 386.416 1.13494 387.148 1.13494C387.187 1.13494 387.226 1.13494 387.264 1.13494C387.534 1.21207 387.804 1.82913 387.843 2.94754C387.843 4.18165 387.573 5.72428 387.071 7.34405C386.377 9.5423 385.413 11.0849 384.68 11.8948C384.487 11.8563 384.294 11.8563 384.14 12.0105C383.947 12.1648 383.754 12.319 383.562 12.4733C382.867 12.2033 382.636 9.69656 383.754 6.30277ZM384.989 18.7981C386.57 19.2995 387.997 20.0322 389 20.765C389.925 21.4592 390.234 22.0376 390.118 22.3076C389.887 22.9632 387.38 23.2332 383.909 22.0762C382.327 21.5749 380.9 20.8421 379.898 20.1093C378.972 19.4152 378.663 18.8367 378.779 18.5667C379.01 17.9111 381.556 17.6797 384.989 18.7981ZM370.333 24.1202C369.87 22.9632 369.523 21.4206 369.446 19.7623C369.33 18.1039 369.484 16.5227 369.793 15.3272C370.101 14.2473 370.525 13.7074 370.795 13.7074C371.065 13.7074 371.528 14.1702 371.991 15.1729C372.454 16.3299 372.801 17.8725 372.878 19.5309C372.994 21.1892 372.84 22.7704 372.531 23.9659C372.492 24.1588 372.415 24.313 372.338 24.5059C372.184 24.7372 371.991 25.0072 371.837 25.2386C371.76 25.3157 371.721 25.4314 371.644 25.5471C371.605 25.5857 371.567 25.5857 371.528 25.5857C371.258 25.6243 370.795 25.2 370.333 24.1202ZM370.14 32.4504C371.22 31.8719 372.762 31.4477 374.421 31.1777C375.269 31.0621 376.118 30.9849 376.928 30.9849C377.661 30.9849 378.316 31.0235 378.895 31.1392C380.013 31.332 380.553 31.7177 380.592 31.9876C380.63 32.2576 380.206 32.7975 379.203 33.2989C378.123 33.8774 376.581 34.3016 374.922 34.5715C371.335 35.1115 368.867 34.4558 368.751 33.7617C368.713 33.4917 369.137 32.9903 370.14 32.4504ZM365.01 40.5493C364.355 40.8192 362.272 39.5465 360.189 36.6927C358.068 33.7617 357.528 31.2549 358.068 30.8692C358.145 30.8307 358.222 30.7921 358.338 30.7921C359.148 30.7921 361.076 32.1033 362.966 34.6872C364.393 36.6927 365.126 38.4281 365.242 39.508C365.203 39.8551 365.087 40.2022 365.01 40.5493ZM365.782 48.8795C365.859 48.571 366.013 48.1853 366.322 47.7225C366.977 46.6812 368.019 45.4857 369.33 44.4058C370.641 43.326 371.952 42.5161 373.11 42.0533C373.688 41.8219 374.151 41.7448 374.459 41.7448C374.729 41.7448 374.922 41.8219 374.999 41.8991C375.462 42.439 374.305 44.7144 371.528 47.0283C370.255 48.1082 368.906 48.918 367.749 49.3808C366.784 49.7665 366.167 49.7279 365.936 49.5737C365.82 49.3423 365.82 49.1109 365.782 48.8795ZM362.426 59.3694C358.839 58.8295 356.679 57.5182 356.757 56.824C356.834 56.2841 358.222 55.7828 360.459 55.7828C361.192 55.7828 362.002 55.8213 362.889 55.9756C364.547 56.207 366.052 56.6698 367.17 57.2097C368.173 57.7111 368.597 58.251 368.558 58.5209C368.481 59.2151 366.052 59.8708 362.426 59.3694ZM375.886 61.2977C375.771 61.2591 375.655 61.182 375.501 61.1434C374.961 60.4878 374.768 58.2124 375.539 55.1272C375.964 53.5074 376.542 52.0419 377.236 51.0006C377.815 50.1136 378.316 49.7665 378.625 49.7665C378.663 49.7665 378.663 49.7665 378.702 49.7665C378.972 49.8436 379.28 50.4221 379.396 51.5405C379.512 52.7746 379.319 54.3558 378.933 55.9756C378.509 57.5954 377.931 59.0609 377.236 60.1021C376.658 60.8735 376.156 61.2206 375.886 61.2977ZM381.132 67.9696C380.206 68.818 378.856 69.6279 377.313 70.2835C373.958 71.7105 371.413 71.7105 371.143 71.0548C371.027 70.7849 371.297 70.2064 372.145 69.4351C373.071 68.5866 374.421 67.7767 375.964 67.1211C377.506 66.4655 379.01 66.0413 380.245 65.9642C380.399 65.9642 380.553 65.9642 380.707 65.9642C381.016 65.9642 381.247 66.0027 381.44 66.0413C381.672 66.2341 381.865 66.4655 382.096 66.6583C382.057 66.9669 381.749 67.4297 381.132 67.9696ZM379.898 80.4264C377.236 77.9581 376.234 75.6056 376.696 75.1043C376.774 75.0271 376.928 74.95 377.159 74.95C378.085 74.95 380.09 75.8756 382.25 77.881C384.333 79.8093 385.374 81.6219 385.529 82.586C385.451 82.8174 385.336 83.0488 385.259 83.2802C384.526 83.5502 382.327 82.7017 379.898 80.4264ZM395.016 67.6225C394.592 68.7795 393.782 70.1293 392.741 71.4405C390.427 74.2558 388.19 75.4514 387.65 74.9886C387.418 74.7957 387.38 74.1401 387.765 73.0988C388.19 71.9419 389 70.5921 390.041 69.2808C392.008 66.8512 393.975 65.6556 394.823 65.6556C394.939 65.6556 395.055 65.6942 395.132 65.7328C395.363 65.887 395.402 66.5426 395.016 67.6225Z" fill="#476CFC"/>
  <path d="M405.813 88.6809C406.996 88.3263 407.123 85.2603 406.096 81.8326C405.069 78.405 403.277 75.9137 402.094 76.2683C400.91 76.6228 400.784 79.6889 401.811 83.1165C402.838 86.5442 404.63 89.0354 405.813 88.6809Z" fill="#476CFC"/>
  <path d="M416.414 81.43C419.966 80.9905 422.722 79.6405 422.57 78.4145C422.418 77.1885 419.416 76.5509 415.865 76.9903C412.314 77.4297 409.558 78.7798 409.709 80.0058C409.861 81.2317 412.863 81.8694 416.414 81.43Z" fill="#476CFC"/>
  <path d="M423.053 96.5607C423.849 95.6159 422.276 92.981 419.539 90.6755C416.802 88.37 413.938 87.267 413.142 88.2118C412.346 89.1566 413.919 91.7915 416.656 94.097C419.393 96.4025 422.257 97.5055 423.053 96.5607Z" fill="#476CFC"/>
  <path d="M409.391 105.704C412.174 103.455 413.801 100.852 413.024 99.8913C412.247 98.9306 409.362 99.9754 406.579 102.225C403.796 104.475 402.169 107.077 402.946 108.038C403.723 108.999 406.608 107.954 409.391 105.704Z" fill="#476CFC"/>
  <path d="M404.851 129.067C407.634 126.817 409.261 124.215 408.484 123.254C407.707 122.293 404.821 123.338 402.038 125.588C399.255 127.838 397.629 130.44 398.406 131.401C399.182 132.362 402.068 131.317 404.851 129.067Z" fill="#476CFC"/>
  <path d="M415.453 171.379C416.667 171.152 417.119 168.117 416.462 164.599C415.805 161.082 414.288 158.414 413.074 158.641C411.859 158.868 411.407 161.903 412.064 165.42C412.721 168.938 414.238 171.605 415.453 171.379Z" fill="#476CFC"/>
  <path d="M403.311 146.409C406.094 144.159 407.72 141.556 406.944 140.596C406.167 139.635 403.281 140.68 400.498 142.93C397.715 145.179 396.089 147.782 396.866 148.743C397.642 149.703 400.528 148.658 403.311 146.409Z" fill="#476CFC"/>
  <path d="M415.607 124.702C416.791 124.347 416.918 121.281 415.891 117.853C414.864 114.426 413.072 111.934 411.888 112.289C410.705 112.644 410.578 115.71 411.605 119.137C412.632 122.565 414.424 125.056 415.607 124.702Z" fill="#476CFC"/>
  <path d="M417.097 141.078C417.942 140.177 416.512 137.461 413.903 135.013C411.294 132.564 408.493 131.309 407.647 132.21C406.802 133.111 408.232 135.826 410.842 138.275C413.451 140.724 416.252 141.978 417.097 141.078Z" fill="#476CFC"/>
  <path d="M422.764 154.523C423.022 153.314 420.393 151.73 416.894 150.985C413.394 150.239 410.348 150.614 410.09 151.822C409.833 153.03 412.461 154.614 415.961 155.36C419.461 156.106 422.507 155.731 422.764 154.523Z" fill="#476CFC"/>
  <path d="M426.36 165.231C429.938 165.183 432.825 164.142 432.808 162.907C432.792 161.672 429.878 160.71 426.3 160.758C422.721 160.806 419.834 161.846 419.851 163.081C419.867 164.317 422.782 165.279 426.36 165.231Z" fill="#476CFC"/>
  <path d="M417.656 81.7003C420.664 81.1219 423.287 79.8877 423.094 78.3065C422.862 76.5325 419.276 76.0312 415.843 76.4554C413.105 76.8025 410.443 77.7281 409.556 78.9622C408.708 78.0366 407.744 77.2653 406.548 76.6868C403.27 75.0284 399.104 75.3755 396.173 77.5738C393.242 79.7721 391.815 83.6286 392.394 87.2153C392.509 87.9866 393.705 87.7552 393.589 86.9839C393.011 83.4358 394.669 79.6564 397.87 77.8823C398.834 77.381 399.837 77.0339 400.879 76.9182C400.724 77.3038 400.647 77.8052 400.609 78.4994C400.57 79.8492 400.801 81.5075 401.303 83.243C402.267 86.4825 404.118 89.4906 405.777 89.1821C405.815 89.1821 405.854 89.1436 405.931 89.1436C407.667 88.6422 407.551 85.017 406.548 81.6618C406.047 79.9649 405.314 78.4222 404.543 77.3038C404.504 77.2653 404.465 77.2267 404.427 77.1881C405.815 77.5738 407.088 78.3065 408.129 79.3478C410.868 82.086 411.909 86.0969 412.449 89.7992C412.912 92.8844 412.95 96.0083 412.719 99.1321C411.253 98.5922 408.515 99.942 406.201 101.832C403.501 103.991 401.38 106.961 402.498 108.349C402.923 108.851 403.655 109.005 404.504 108.812C406.008 108.542 407.937 107.462 409.634 106.074C410.636 105.264 411.562 104.339 412.295 103.413C411.446 109.738 409.749 116.14 408.399 122.58C407.011 121.809 404.08 123.197 401.65 125.164C398.95 127.362 396.829 130.293 397.947 131.682C398.256 132.029 398.834 132.376 399.953 132.144C400.261 132.106 400.57 131.99 400.956 131.875C402.228 131.412 403.694 130.563 405.083 129.406C406.008 128.674 406.857 127.825 407.512 127.015C406.779 131.257 406.317 135.538 406.51 139.781C405.044 139.356 402.344 140.668 400.107 142.519C397.407 144.717 395.286 147.648 396.405 149.036C396.829 149.538 397.562 149.692 398.41 149.499C399.914 149.229 401.843 148.149 403.54 146.761C404.89 145.681 406.085 144.408 406.818 143.213C407.088 145.334 407.551 147.455 408.245 149.576C409.248 152.662 410.752 155.593 412.68 158.138C411.176 158.755 410.945 162.187 411.523 165.427C412.179 168.821 413.722 172.099 415.496 171.79C417.27 171.443 417.54 167.856 416.884 164.424C416.73 163.576 416.499 162.727 416.229 161.956C417.579 163.113 419.083 164.077 420.703 164.848C420.857 164.925 421.011 165.003 421.204 165.08C421.281 165.118 421.32 165.157 421.397 165.157C421.435 165.157 421.474 165.157 421.513 165.195C421.59 165.234 421.667 165.234 421.744 165.273C423.017 165.697 424.714 165.928 426.488 165.89C427.529 165.89 428.532 165.774 429.496 165.62C431.733 165.195 433.43 164.347 433.43 163.074C433.392 161.3 429.882 160.375 426.411 160.452C424.637 160.49 422.94 160.722 421.667 161.185C420.24 161.686 419.7 162.303 419.546 162.843C416.152 160.799 413.452 157.752 411.523 154.281C412.68 154.937 414.185 155.438 415.727 155.785C417.463 156.171 419.16 156.287 420.51 156.094C420.664 156.055 420.857 156.055 420.973 156.017C422.515 155.708 422.978 155.053 423.094 154.551C423.48 152.816 420.24 151.157 416.846 150.425C414.03 149.808 411.061 149.846 409.904 150.888C409.518 149.923 409.209 148.959 408.939 147.995C407.782 143.869 407.512 139.626 407.705 135.345C408.361 136.387 409.248 137.505 410.366 138.546C412.449 140.513 415.033 142.017 416.537 141.747C416.846 141.67 417.116 141.555 417.347 141.323C418.581 140.012 416.653 136.927 414.146 134.574C412.102 132.646 409.634 131.18 408.091 131.373C408.399 128.674 408.901 126.013 409.441 123.39C409.826 121.5 410.251 119.611 410.675 117.721C410.791 118.222 410.906 118.724 411.061 119.186C412.025 122.426 413.876 125.434 415.534 125.126C415.573 125.126 415.612 125.087 415.689 125.087C417.424 124.586 417.309 120.96 416.306 117.605C415.804 115.908 415.072 114.366 414.3 113.247C413.375 111.936 412.603 111.627 412.025 111.627C413.028 106.884 413.876 102.102 414.03 97.2038C414.069 95.6226 414.069 93.81 413.953 91.9974C414.57 92.7687 415.38 93.5786 416.267 94.3499C417.617 95.5069 419.083 96.3939 420.317 96.8953C421.281 97.281 421.975 97.3195 422.477 97.2424C422.901 97.1653 423.171 96.9724 423.325 96.7796C423.711 96.3168 423.942 95.4298 422.94 93.7715C422.245 92.6145 421.127 91.3418 419.738 90.1848C418.389 89.0279 416.923 88.1408 415.689 87.6395C414.57 87.2153 413.837 87.1767 413.336 87.331C412.912 85.3255 412.333 83.3587 411.408 81.6232C412.796 81.9703 414.609 81.9703 416.422 81.7775C416.884 81.8546 417.27 81.7775 417.656 81.7003ZM405.622 81.9703C406.664 85.4412 406.355 87.9866 405.7 88.1794C405.005 88.3722 403.385 86.4439 402.344 82.973C401.881 81.3533 401.611 79.8106 401.688 78.5765C401.727 77.6509 401.92 77.111 402.151 76.8796C402.383 76.8796 402.576 76.8796 402.807 76.9182C403.077 77.0724 403.424 77.4195 403.81 77.9595C404.465 78.9236 405.121 80.3891 405.622 81.9703ZM402.961 145.99C400.146 148.265 397.677 148.959 397.253 148.419C396.829 147.879 397.986 145.604 400.801 143.329C402.691 141.786 404.427 140.976 405.507 140.783C406.047 140.668 406.394 140.745 406.548 140.899C406.934 141.477 405.777 143.714 402.961 145.99ZM420.587 163.306C420.587 163.036 421.05 162.573 422.13 162.187C422.592 162.033 423.132 161.879 423.711 161.763C424.559 161.609 425.524 161.493 426.526 161.493C430.152 161.455 432.505 162.419 432.505 163.151C432.505 163.846 430.19 164.887 426.565 164.964C424.945 165.003 423.402 164.81 422.245 164.424C422.207 164.308 422.091 164.193 421.937 164.116C421.513 163.923 421.088 163.73 420.664 163.499C420.625 163.421 420.587 163.344 420.587 163.306ZM413.182 159.141C413.298 159.102 413.413 159.179 413.529 159.256C413.799 159.565 414.069 159.873 414.339 160.182C414.956 161.107 415.573 162.65 415.959 164.694C416.614 168.281 416.036 170.749 415.38 170.865C414.686 170.98 413.259 168.898 412.603 165.311C411.909 161.725 412.488 159.256 413.182 159.141ZM410.598 151.929C410.675 151.659 411.138 151.389 411.909 151.235C412.989 151.042 414.725 151.042 416.807 151.466C420.355 152.237 422.438 153.703 422.284 154.397C422.207 154.667 421.667 155.014 420.548 155.13C419.314 155.284 417.733 155.168 416.113 154.821C412.488 154.088 410.443 152.584 410.598 151.929ZM413.568 135.384C416.229 137.891 417.231 140.205 416.73 140.706C416.229 141.207 413.837 140.359 411.215 137.891C409.981 136.734 409.016 135.5 408.438 134.42C408.207 133.996 408.091 133.649 408.014 133.34C408.052 133.07 408.052 132.8 408.091 132.53C408.129 132.492 408.206 132.453 408.322 132.414C409.094 132.26 411.253 133.186 413.568 135.384ZM404.504 128.674C403.193 129.715 401.843 130.525 400.686 130.949C399.606 131.335 398.95 131.296 398.796 131.065C398.372 130.525 399.529 128.249 402.344 125.974C404.234 124.431 405.97 123.621 407.049 123.429C407.589 123.313 407.937 123.39 408.091 123.544C408.515 124.123 407.358 126.36 404.504 128.674ZM413.568 113.941C414.3 114.944 414.956 116.371 415.419 117.991C416.46 121.462 416.152 124.007 415.496 124.2C414.84 124.393 413.182 122.464 412.14 118.994C411.639 117.335 411.446 115.908 411.485 114.828C411.639 114.211 411.755 113.556 411.909 112.939C411.986 112.862 412.025 112.823 412.102 112.784C412.102 112.784 412.102 112.784 412.14 112.784C412.372 112.707 412.912 113.054 413.568 113.941ZM412.642 100.945C412.372 101.909 411.176 103.606 409.055 105.341C406.24 107.617 403.771 108.311 403.347 107.771C402.923 107.231 404.08 104.956 406.895 102.68C408.785 101.138 410.521 100.328 411.601 100.135C412.14 100.019 412.488 100.096 412.642 100.251C412.68 100.289 412.68 100.366 412.719 100.482C412.68 100.598 412.68 100.752 412.642 100.945ZM413.606 88.4879C413.645 88.4494 413.722 88.4108 413.799 88.4108C414.107 88.3337 414.647 88.4108 415.419 88.7193C416.576 89.1821 417.926 89.992 419.198 91.0718C420.471 92.1517 421.551 93.3472 422.168 94.3885C422.747 95.3527 422.824 96.0083 422.631 96.2397C422.438 96.4711 421.783 96.4711 420.741 96.0854C419.584 95.6226 418.234 94.8127 416.961 93.7329C415.689 92.653 414.609 91.4575 413.992 90.4162C413.915 90.3005 413.876 90.1848 413.837 90.1077C413.76 89.5292 413.722 88.9893 413.606 88.4879ZM410.675 80.3891C410.559 80.1963 410.405 80.0034 410.251 79.8106C410.328 79.1936 411.986 78.1523 414.802 77.6124C415.149 77.5352 415.534 77.4967 415.92 77.4195C419.546 76.9567 421.975 77.6895 422.053 78.3837C422.13 79.0779 419.97 80.3891 416.344 80.8133C413.606 81.2376 411.523 80.8905 410.675 80.3891Z" fill="#476CFC"/>
  <path d="M513.344 81.5072C513.46 81.1986 513.305 80.7358 512.843 80.7358C497.724 80.7358 483.184 80.7358 468.065 80.7358C463.784 80.7358 459.464 80.7358 455.183 80.7358C455.144 80.7358 455.144 80.7358 455.106 80.7358C455.067 80.7358 455.029 80.7358 454.99 80.7744C454.952 80.7744 454.913 80.813 454.874 80.8515C454.836 80.8515 454.836 80.8901 454.797 80.8901C454.759 80.9287 454.759 80.9287 454.759 80.9672C454.72 81.0058 454.72 81.0444 454.682 81.0829C454.682 81.1215 454.682 81.1601 454.643 81.1986C454.643 81.2372 454.643 81.2372 454.643 81.2758C454.643 85.2866 454.643 86.3279 454.643 90.3002C454.643 90.3387 454.643 90.3387 454.643 90.3773C454.643 90.4159 454.643 90.4544 454.682 90.493C454.682 90.5316 454.72 90.5701 454.759 90.6087C454.759 90.6473 454.797 90.6473 454.797 90.6858C454.836 90.7244 454.836 90.7244 454.874 90.7244C454.913 90.763 454.952 90.763 454.99 90.8015C455.029 90.8015 455.067 90.8015 455.106 90.8401C455.144 90.8401 455.144 90.8401 455.183 90.8401C470.109 90.8401 484.996 90.8401 499.922 90.8401C504.203 90.8401 508.484 90.8401 512.765 90.8401C512.92 90.8401 513.035 90.8015 513.113 90.6858C513.113 90.6858 513.151 90.6858 513.151 90.6473C513.151 90.6473 513.151 90.6087 513.19 90.6087C513.267 90.5316 513.344 90.4159 513.344 90.2616V81.5072ZM455.762 81.8542C470.687 81.8542 485.575 81.8542 500.501 81.8542C504.589 81.8542 508.176 81.8542 512.226 81.8542V89.7217C497.492 89.7217 470.495 89.7217 455.762 89.7217" fill="#476CFC"/>
  <path d="M503.972 122.233C505.9 111.743 506.864 101.137 506.864 90.493H505.746C505.746 96.0851 505.322 111.049 502.969 122.233H503.972Z" fill="#476CFC"/>
  <path d="M464.979 121.114C463.784 114.25 462.472 103.991 462.28 90.3387H461.161C461.161 101.06 462.125 111.743 464.054 122.271H464.169H465.172H503.933V121.114H464.979Z" fill="#476CFC"/>
  <path d="M476.126 81.5457H468.913L468.759 81.1601C463.822 68.549 457.227 62.6099 451.403 57.3649C447.816 54.1254 444.422 51.0401 441.838 46.8364C439.756 43.3655 440.566 41.4758 441.607 40.5116C444.191 38.082 450.709 39.0461 454.257 41.5144C473.464 54.9738 476.55 71.6343 476.704 80.3502C476.704 80.5816 476.704 80.7744 476.704 80.8515L476.781 81.5072L476.126 81.5457ZM469.723 80.3502H475.508C475.354 71.8271 472.307 55.6295 453.563 42.4785C450.208 40.126 444.384 39.5475 442.417 41.3601C441.105 42.5942 441.915 44.6768 442.841 46.2194C445.309 50.3074 448.665 53.3155 452.175 56.4779C458.076 61.7614 464.671 67.7391 469.723 80.3502Z" fill="#476CFC"/>
  <path d="M456.109 28.7876C455.183 26.7051 455.183 24.8539 456.07 23.8512C457.034 22.7714 459.117 22.6942 461.894 23.6198C463.861 24.2754 477.167 29.4818 482.258 52.1971C482.297 52.12 482.297 52.0814 482.335 52.0043C482.412 51.6572 482.489 51.3101 482.644 50.963C482.759 50.693 482.875 50.5002 483.029 50.3074C477.514 28.3248 464.247 23.157 462.241 22.5014C458.076 21.113 456.07 22.0386 455.144 23.0799C453.91 24.4297 453.833 26.7051 454.99 29.289C455.106 29.5204 455.414 30.0217 456.147 31.1787C468.99 51.1944 475.431 68.2405 475.316 81.8157H476.511C476.627 67.9705 470.109 50.7316 457.15 30.5231C456.649 29.6746 456.186 28.9419 456.109 28.7876Z" fill="#476CFC"/>
  <path d="M496.22 81.5457H488.275L488.39 80.8515C488.39 80.7744 488.39 80.5816 488.39 80.3502C488.545 71.5957 491.63 54.9353 510.837 41.5144C514.385 39.0461 520.903 38.082 523.488 40.5116C524.529 41.4758 525.339 43.4041 523.256 46.8364C520.711 51.0787 517.278 54.1254 513.691 57.3649C507.867 62.6099 501.311 68.549 496.335 81.1601L496.22 81.5457ZM489.625 80.3502H495.41C500.462 67.7391 507.057 61.7614 512.92 56.4779C516.468 53.2769 519.785 50.2688 522.253 46.2194C523.179 44.6768 524.027 42.5942 522.678 41.3601C520.749 39.5475 514.925 40.126 511.531 42.4785C492.826 55.5909 489.779 71.8271 489.625 80.3502Z" fill="#476CFC"/>
  <path d="M488.544 81.8157C488.429 67.9705 494.947 50.7316 507.906 30.5231C508.446 29.6746 508.909 28.9419 508.986 28.7876C509.911 26.7051 509.911 24.8539 509.024 23.8512C508.06 22.7714 505.977 22.6942 503.2 23.6198C500.616 24.4683 477.861 33.4155 481.178 80.8901L479.982 80.9672C476.627 32.5671 500.115 23.3498 502.815 22.4628C506.98 21.0745 508.986 22 509.911 23.0413C511.146 24.3911 511.223 26.6665 510.066 29.2504C509.95 29.4818 509.641 29.9832 508.909 31.1401C496.065 51.1558 489.624 68.2019 489.74 81.7771L488.544 81.8157Z" fill="#476CFC"/>
  <path d="M503.007 121.693H464.555C464.555 121.693 462.665 108.58 462.086 93.0769L503.007 121.693Z" fill="#476CFC"/>
  <path d="M380.631 250.927C380.515 250.927 380.361 250.888 380.245 250.811L353.864 228.79C353.633 228.597 353.594 228.212 353.787 227.98C353.98 227.749 354.366 227.71 354.597 227.903L380.978 249.924C381.209 250.117 381.248 250.503 381.055 250.734C380.939 250.85 380.785 250.927 380.631 250.927Z" fill="#476CFC"/>
  <path d="M376.426 236.928C376.311 236.928 376.156 236.889 376.041 236.812L363.467 226.283C363.236 226.091 363.197 225.705 363.39 225.474C363.583 225.242 363.969 225.204 364.2 225.396L376.774 235.925C377.005 236.118 377.044 236.503 376.851 236.735C376.735 236.85 376.581 236.928 376.426 236.928Z" fill="#476CFC"/>
  <path d="M359.611 222.89C359.495 222.89 359.341 222.851 359.225 222.774L349.66 214.791C349.429 214.598 349.39 214.212 349.583 213.981C349.776 213.75 350.162 213.711 350.393 213.904L359.958 221.887C360.189 222.08 360.228 222.465 360.035 222.697C359.958 222.812 359.765 222.89 359.611 222.89Z" fill="#476CFC"/>
  <path d="M476.164 169.862C476.048 169.862 475.894 169.823 475.778 169.746L472.037 166.622C471.806 166.429 471.767 166.044 471.96 165.812C472.153 165.581 472.539 165.542 472.77 165.735L476.511 168.859C476.743 169.052 476.781 169.437 476.588 169.669C476.473 169.784 476.318 169.862 476.164 169.862Z" fill="#476CFC"/>
  <path d="M468.18 163.228C468.065 163.228 467.91 163.19 467.795 163.113L458.23 155.129C457.998 154.937 457.96 154.551 458.153 154.319C458.346 154.088 458.731 154.05 458.963 154.242L468.528 162.225C468.759 162.418 468.798 162.804 468.605 163.035C468.528 163.151 468.335 163.228 468.18 163.228Z" fill="#476CFC"/>
  <path d="M609.148 106.729H639.925C640.272 106.729 640.581 107.038 640.581 107.385V120.15C640.581 120.497 640.272 120.806 639.925 120.806H609.148C608.801 120.806 608.492 120.497 608.492 120.15V107.385C608.492 107.038 608.762 106.729 609.148 106.729ZM639.27 108.04H609.804V119.495H639.27V108.04Z" fill="#476CFC"/>
  <path d="M612.773 98.3604H585.66C585.312 98.3604 585.004 98.0519 585.004 97.7048V86.945C585.004 86.5979 584.695 86.2893 584.348 86.2893C584.001 86.2893 583.693 86.5979 583.693 86.945V98.3604C583.693 99.0932 584.271 99.6717 585.004 99.6717H612.773C613.12 99.6717 613.429 99.3632 613.429 99.0161C613.429 98.669 613.12 98.3604 612.773 98.3604Z" fill="#476CFC"/>
  <path d="M568.535 112.476H599.313C599.66 112.476 599.968 112.784 599.968 113.131V125.896C599.968 126.244 599.66 126.552 599.313 126.552H568.535C568.188 126.552 567.88 126.244 567.88 125.896V113.131C567.88 112.784 568.188 112.476 568.535 112.476Z" fill="#476CFC"/>
  <path d="M607.489 258.563H546.436V178.385L548.056 176.996H621.451V242.134L607.489 258.563ZM547.053 257.946H607.219L620.834 241.903V177.613H548.287L547.053 178.655V257.946Z" fill="#476CFC"/>
  <path d="M560.166 172.561C558.662 172.561 557.466 174.412 557.466 176.803C557.466 176.958 557.466 177.073 557.466 177.228H558.855C558.855 177.112 558.855 176.958 558.855 176.803C558.855 175.068 559.626 173.95 560.166 173.95C560.706 173.95 561.477 175.068 561.477 176.803C561.477 178.5 560.744 179.619 560.204 179.657C560.089 179.657 559.973 179.966 559.973 180.351C559.973 180.737 560.089 181.046 560.204 181.046C561.709 181.007 562.904 179.156 562.904 176.803C562.904 174.451 561.709 172.561 560.166 172.561Z" fill="#476CFC"/>
  <path d="M572.778 172.561C571.274 172.561 570.078 174.412 570.078 176.803C570.078 176.958 570.078 177.073 570.078 177.228H571.505C571.505 177.112 571.505 176.958 571.505 176.803C571.505 175.068 572.276 173.95 572.816 173.95C573.356 173.95 574.128 175.068 574.128 176.803C574.128 178.5 573.395 179.619 572.855 179.657C572.739 179.657 572.624 179.966 572.624 180.351C572.624 180.737 572.739 181.046 572.855 181.046C574.359 181.007 575.555 179.156 575.555 176.803C575.516 174.451 574.321 172.561 572.778 172.561Z" fill="#476CFC"/>
  <path d="M585.39 172.561C583.886 172.561 582.69 174.412 582.69 176.803C582.69 176.958 582.69 177.073 582.69 177.228H584.117C584.117 177.112 584.117 176.958 584.117 176.803C584.117 175.068 584.888 173.95 585.428 173.95C585.968 173.95 586.74 175.068 586.74 176.803C586.74 178.5 586.007 179.619 585.467 179.657C585.351 179.657 585.235 179.966 585.235 180.351C585.235 180.737 585.351 181.046 585.467 181.046C586.971 181.007 588.167 179.156 588.167 176.803C588.09 174.451 586.894 172.561 585.39 172.561Z" fill="#476CFC"/>
  <path d="M598.001 172.561C596.497 172.561 595.302 174.412 595.302 176.803C595.302 176.958 595.302 177.073 595.302 177.228H596.729C596.729 177.112 596.729 176.958 596.729 176.803C596.729 175.068 597.5 173.95 598.04 173.95C598.58 173.95 599.351 175.068 599.351 176.803C599.351 178.5 598.618 179.619 598.078 179.657C597.963 179.657 597.847 179.966 597.847 180.351C597.847 180.737 597.963 181.046 598.078 181.046C599.583 181.007 600.778 179.156 600.778 176.803C600.701 174.451 599.505 172.561 598.001 172.561Z" fill="#476CFC"/>
  <path d="M610.613 172.561C609.109 172.561 607.914 174.412 607.914 176.803C607.914 176.958 607.914 177.073 607.914 177.228H609.341C609.341 177.112 609.341 176.958 609.341 176.803C609.341 175.068 610.112 173.95 610.652 173.95C611.192 173.95 611.963 175.068 611.963 176.803C611.963 178.5 611.231 179.619 610.691 179.657C610.575 179.657 610.459 179.966 610.459 180.351C610.459 180.737 610.575 181.046 610.691 181.046C612.195 181.007 613.39 179.156 613.39 176.803C613.313 174.451 612.118 172.561 610.613 172.561Z" fill="#476CFC"/>
  <path d="M607.374 257.907C607.644 257.599 608.106 248.883 608.222 247.726C608.608 243.947 610.459 242.79 614.123 242.52C616.823 242.327 618.404 242.211 621.104 242.057L607.374 257.907Z" fill="#476CFC"/>
  <path d="M546.744 258.254V178.5L548.171 177.305V256.596H607.489V258.254" fill="#476CFC"/>
  <path d="M575.015 214.097H571.389C571.389 213.595 571.428 212.207 571.467 209.931C571.505 207.656 571.544 204.494 571.544 200.406C571.544 199.712 571.544 198.67 571.544 197.32C571.544 195.971 571.505 194.929 571.505 194.158L571.428 194.119C570.734 194.505 569.77 195.122 568.458 195.932C567.147 196.742 565.758 197.629 564.254 198.555L562.943 196.511C564.794 195.199 566.761 193.85 568.844 192.423C570.927 190.996 572.084 190.147 572.392 189.954L575.015 191.767C574.976 194.004 574.976 196.279 574.938 198.632C574.938 200.984 574.899 202.373 574.899 202.758C574.899 204.571 574.899 206.769 574.938 209.392C574.976 212.053 574.976 213.595 575.015 214.097Z" fill="#476CFC"/>
  <path d="M607.528 210.356C605.677 210.317 604.096 210.317 602.746 210.279C601.396 210.279 600.2 210.24 599.12 210.24C599.082 213.248 599.082 215.716 599.12 217.683C599.159 219.612 599.159 220.846 599.159 221.347H595.611C595.611 220.846 595.611 219.573 595.649 217.49C595.688 215.408 595.688 213.017 595.726 210.279L582.497 210.356L581.032 207.618C584.966 203.298 588.437 199.403 591.484 195.894C594.531 192.384 596.228 190.417 596.536 190.031L599.236 191.613C599.159 194.235 599.12 197.475 599.12 201.293C599.12 205.111 599.12 207.155 599.12 207.386C599.892 207.386 600.856 207.386 602.051 207.348C603.247 207.309 605.098 207.309 607.528 207.27V210.356ZM595.726 194.891H595.688L584.889 207.386L584.927 207.425C585.081 207.425 585.583 207.425 586.393 207.425C587.203 207.425 588.36 207.425 589.941 207.425C590.558 207.425 591.368 207.425 592.371 207.425C593.374 207.425 594.492 207.425 595.688 207.386C595.688 205.226 595.688 203.26 595.688 201.486C595.688 199.712 595.726 197.513 595.726 194.891Z" fill="#476CFC"/>
  <path d="M564.795 228.135H559.665V233.264H564.795V228.135Z" fill="#476CFC"/>
  <path d="M573.858 228.135H568.728V233.264H573.858V228.135Z" fill="#476CFC"/>
  <path d="M582.921 228.135H577.792V233.264H582.921V228.135Z" fill="#476CFC"/>
  <path d="M591.985 228.135H586.855V233.264H591.985V228.135Z" fill="#476CFC"/>
  <path d="M601.087 228.135H595.958V233.264H601.087V228.135Z" fill="#476CFC"/>
  <path d="M610.151 228.135H605.021V233.264H610.151V228.135Z" fill="#476CFC"/>
  <path d="M564.794 236.58H559.665V241.71H564.794V236.58Z" fill="#476CFC"/>
  <path d="M573.858 236.58H568.728V241.71H573.858V236.58Z" fill="#476CFC"/>
  <path d="M582.921 236.58H577.792V241.71H582.921V236.58Z" fill="#476CFC"/>
  <path d="M591.985 236.58H586.855V241.71H591.985V236.58Z" fill="#476CFC"/>
  <path d="M601.087 236.58H595.958V241.71H601.087V236.58Z" fill="#476CFC"/>
  <path d="M564.794 245.026H559.665V250.156H564.794V245.026Z" fill="#476CFC"/>
  <path d="M573.858 245.026H568.728V250.156H573.858V245.026Z" fill="#476CFC"/>
  <path d="M582.921 245.026H577.792V250.156H582.921V245.026Z" fill="#476CFC"/>
  <path d="M591.985 245.026H586.855V250.156H591.985V245.026Z" fill="#476CFC"/>
  <path d="M88.5142 147.031H57.7367C57.3896 147.031 57.0811 146.722 57.0811 146.375V133.61C57.0811 133.263 57.3896 132.954 57.7367 132.954H88.5142C88.8613 132.954 89.1699 133.263 89.1699 133.61V146.375C89.1699 146.761 88.8613 147.031 88.5142 147.031Z" fill="#476CFC"/>
  <path d="M135.413 107.848H104.636C104.289 107.848 103.98 107.539 103.98 107.192V94.4267C103.98 94.0796 104.289 93.7711 104.636 93.7711H135.413C135.76 93.7711 136.069 94.0796 136.069 94.4267V107.192C136.069 107.578 135.76 107.848 135.413 107.848Z" fill="#476CFC"/>
  <path d="M79.3737 156.286H110.151C110.498 156.286 110.807 156.595 110.807 156.942V169.707C110.807 170.054 110.498 170.363 110.151 170.363H79.3737C79.0266 170.363 78.718 170.054 78.718 169.707V156.942C78.7566 156.556 79.0266 156.286 79.3737 156.286ZM109.534 157.598H80.0679V169.052H109.534V157.598Z" fill="#476CFC"/>
  <path d="M487.812 322.312H457.034C456.687 322.312 456.378 322.004 456.378 321.657V308.891C456.378 308.544 456.687 308.236 457.034 308.236H487.812C488.159 308.236 488.467 308.544 488.467 308.891V321.657C488.467 322.004 488.159 322.312 487.812 322.312Z" fill="#476CFC"/>
  <path d="M516.854 342.675C517.201 342.675 517.509 342.367 517.509 342.02V331.992C517.509 331.26 516.931 330.681 516.198 330.681H488.197C487.85 330.681 487.542 330.99 487.542 331.337C487.542 331.684 487.85 331.992 488.197 331.992H515.542C515.889 331.992 516.198 332.301 516.198 332.648V342.02C516.198 342.367 516.468 342.675 516.854 342.675Z" fill="#476CFC"/>
  <path d="M456.455 248.844C473.888 248.96 491.283 248.96 508.715 248.844C509.602 248.844 509.602 247.495 508.715 247.495C491.283 247.61 473.888 247.61 456.455 247.495C455.607 247.495 455.568 248.844 456.455 248.844Z" fill="#476CFC"/>
  <path d="M456.455 248.304C457.497 242.635 462.356 236.311 468.836 238.74C471.15 239.627 472.963 241.131 475.547 241.286C477.784 241.44 480.059 240.823 481.911 239.511C483.723 238.239 484.88 236.349 486.115 234.575C487.812 232.068 489.74 230.101 492.671 229.099C498.109 227.209 503.316 229.292 508.523 230.796C509.371 231.027 509.718 229.716 508.87 229.484C503.586 227.98 498.379 225.975 492.864 227.595C490.434 228.327 488.236 229.639 486.577 231.567C484.803 233.649 483.646 236.311 481.486 238.085C478.632 240.399 474.93 240.321 471.806 238.702C469.492 237.506 467.486 236.542 464.786 236.966C459.31 237.815 456.031 242.751 455.106 247.88C454.99 248.806 456.301 249.192 456.455 248.304Z" fill="#476CFC"/>
  <path d="M421.821 231.336C428.648 231.336 435.436 231.336 442.262 231.336C443.149 231.336 443.149 229.986 442.262 229.986C435.436 229.986 428.648 229.986 421.821 229.986C420.973 229.986 420.973 231.336 421.821 231.336Z" fill="#476CFC"/>
  <path d="M422.207 230.526C423.557 226.168 426.488 220.961 431.579 220.614C436.979 220.229 440.488 225.628 441.607 230.256C441.8 231.104 443.111 230.757 442.918 229.909C441.645 224.664 437.596 218.917 431.579 219.264C425.832 219.612 422.4 225.242 420.896 230.179C420.664 230.988 421.976 231.336 422.207 230.526Z" fill="#476CFC"/>
  <path d="M174.174 353.859C174.213 354.014 174.252 354.091 174.329 354.168V354.553H195.888V354.283C196.158 354.245 196.39 354.014 196.39 353.666C195.927 345.529 196.12 337.353 197.161 329.293C198.82 316.373 202.715 303.492 208.192 291.691C213.244 280.854 219.994 270.788 228.672 262.535C229.404 267.896 230.021 273.295 230.484 278.733C232.605 303.916 231.988 330.334 223.696 354.476C223.426 355.286 224.699 355.633 225.008 354.823C225.046 354.746 225.046 354.669 225.085 354.592H305.692C305.924 355.093 306.772 355.171 306.965 354.515C309.356 346.185 311.555 337.816 313.522 329.37C315.412 321.155 317.147 312.748 318.536 304.225C323.511 320.346 325.324 336.929 323.897 353.821C323.897 354.014 323.935 354.168 324.012 354.283V354.592H344.801C344.993 355.17 345.958 355.325 346.073 354.592C350.856 328.329 348.85 300.677 341.869 274.992C343.104 274.452 344.338 273.912 345.572 273.372C345.803 273.372 346.035 273.257 346.151 273.064C346.305 272.91 346.305 272.678 346.228 272.447C344.338 265.081 341.985 257.869 339.247 250.773C336.856 244.641 334.156 238.624 331.225 232.762C329.72 229.716 328.255 226.438 326.404 223.622C325.594 222.388 324.591 221.27 323.742 220.036C323.01 218.956 322.238 217.915 321.428 216.912C317.687 212.284 312.982 208.273 307.891 205.226C306.155 204.185 304.42 203.298 302.607 202.488C308.662 197.166 298.673 187.486 298.673 187.486C295.78 183.398 297.439 180.39 298.982 178.809C301.411 177.305 303.494 175.338 304.844 172.908C307.197 168.743 307.235 163.691 307.312 159.063C307.428 153.085 306.965 146.992 305.268 141.207C305.268 141.169 305.268 141.13 305.268 141.053C310.359 138.16 314.833 133.918 316.993 128.48C319.268 122.85 318.651 115.869 314.64 111.319C310.706 106.845 304.265 105.341 298.364 105.919C295.009 106.266 291.615 107.231 288.915 109.275C286.755 110.894 285.058 113.247 284.48 115.869C284.017 114.018 281.896 112.437 279.89 112.823C277.383 113.324 275.802 116.024 275.802 118.608C274.799 118.646 273.758 118.762 272.755 118.916C264.656 120.073 257.173 124.354 252.391 130.949C252.314 131.026 252.237 131.064 252.16 131.18C251.08 132.645 250.154 134.188 249.383 135.846C249.19 135.885 249.036 136.039 248.958 136.271C247.184 141.863 244.523 147.532 240.088 151.504C235.652 155.438 229.906 155.669 224.66 157.983C220.109 159.989 216.908 164.308 217.602 169.437C217.911 171.713 219.068 173.68 220.726 175.107C213.823 175.029 206.958 177.575 203.718 184.285C202.021 187.833 201.944 191.96 203.949 195.431C205.029 197.32 206.61 198.863 208.5 199.827C202.484 200.946 197.046 205.111 194.809 210.934C191.993 218.3 194.809 226.978 201.018 231.644C201.057 231.683 201.057 231.683 201.095 231.683C190.335 246.261 183.277 263.731 178.726 281.047C172.516 304.611 170.472 329.756 174.174 353.859Z" fill="white"/>
  <path d="M301.989 141.593C302.645 142.287 303.802 141.901 304.651 141.438C310.012 138.546 314.756 134.188 316.993 128.519C319.268 122.888 318.651 115.908 314.64 111.357C310.706 106.883 304.265 105.379 298.364 105.958C295.009 106.305 291.615 107.269 288.915 109.313C286.215 111.357 284.248 114.52 284.21 117.913C285.559 115.484 282.59 112.321 279.89 112.861C277.152 113.401 275.532 116.525 275.84 119.302" fill="#476CFC"/>
  <path d="M301.835 150.424C302.517 150.424 303.069 149.872 303.069 149.19C303.069 148.509 302.517 147.956 301.835 147.956C301.154 147.956 300.601 148.509 300.601 149.19C300.601 149.872 301.154 150.424 301.835 150.424Z" fill="#476CFC"/>
  <path d="M282.59 151.196C283.271 151.196 283.824 150.643 283.824 149.962C283.824 149.28 283.271 148.727 282.59 148.727C281.908 148.727 281.355 149.28 281.355 149.962C281.355 150.643 281.908 151.196 282.59 151.196Z" fill="#476CFC"/>
  <path d="M294.662 150.077C295.009 152.121 295.279 154.204 295.549 156.248C295.703 157.443 295.973 159.256 294.276 159.449C292.772 159.603 292.502 158.292 292.463 157.096C292.386 154.782 292.54 152.43 292.772 150.116C292.926 148.92 294.777 148.92 294.662 150.077C294.507 151.388 294.392 152.661 294.353 153.934C294.314 154.628 294.623 156.981 294.045 157.289C293.505 157.636 293.697 156.711 293.659 156.286C293.582 155.708 293.505 155.091 293.427 154.512C293.273 153.201 293.042 151.89 292.849 150.617C292.695 149.383 294.469 148.882 294.662 150.077Z" fill="#476CFC"/>
  <path d="M303.957 141.593C305.692 147.57 306.078 153.857 305.924 160.066C305.769 164.809 305.654 169.746 302.761 173.68C300.023 177.382 295.664 179.387 291.229 180.159C288.259 180.699 285.058 180.814 282.127 179.966C279.003 179.04 276.265 177.189 273.796 175.145C273.14 174.605 272.176 175.531 272.832 176.109C276.573 179.194 280.893 181.817 285.907 181.933C290.072 182.048 294.469 181.238 298.171 179.31C301.295 177.652 303.957 175.068 305.422 171.828C307.158 168.01 307.196 163.575 307.312 159.449C307.428 153.355 307.003 147.146 305.268 141.284C304.998 140.397 303.725 140.783 303.957 141.593Z" fill="#476CFC"/>
  <path d="M287.796 181.084C286.177 187.1 285.174 194.081 288.684 199.634C289.146 200.367 290.303 199.673 289.841 198.94C286.524 193.695 287.565 187.1 289.069 181.431C289.339 180.621 288.028 180.274 287.796 181.084Z" fill="#476CFC"/>
  <path d="M258.947 168.627C258.755 174.181 257.868 179.773 257.019 185.249C256.595 188.026 256.093 190.764 255.515 193.502C255.206 194.891 255.052 196.819 254.204 198.053C253.702 198.786 254.898 199.442 255.361 198.747C256.171 197.552 256.402 195.739 256.672 194.389C257.289 191.497 257.79 188.566 258.253 185.596C259.14 180.004 260.066 174.297 260.22 168.589C260.336 167.74 258.986 167.74 258.947 168.627Z" fill="#476CFC"/>
  <path d="M260.413 167.278C258.292 169.129 254.165 168.936 251.581 168.357C248.264 167.586 246.297 164.655 246.104 161.377C245.95 158.446 246.991 153.741 249.884 152.276C253.239 150.579 256.286 155.361 257.79 157.713C258.253 158.446 259.41 157.752 258.947 157.019C257.135 154.204 254.126 149.537 250.154 150.694C246.297 151.813 244.716 157.096 244.677 160.644C244.639 164.231 246.451 167.933 249.922 169.244C253.162 170.479 258.523 170.594 261.3 168.203C262.033 167.663 261.069 166.699 260.413 167.278Z" fill="#476CFC"/>
  <path d="M273.333 132.877C272.485 137.813 270.248 143.174 266.815 146.915C263.884 150.077 259.564 151.658 255.437 152.545C254.589 152.738 254.936 154.05 255.785 153.857C260.104 152.893 264.655 151.196 267.741 147.879C271.328 143.984 273.719 138.43 274.606 133.263C274.76 132.376 273.487 132.028 273.333 132.877Z" fill="#476CFC"/>
  <path d="M304.226 140.474C301.681 141.863 298.673 141.516 295.896 141.361C294.122 141.284 292.386 141.053 290.65 140.667C284.672 139.279 279.273 135.924 274.297 132.414C273.603 131.913 272.909 133.07 273.603 133.571C278.849 137.273 284.595 140.783 290.959 142.094C292.733 142.441 294.507 142.634 296.281 142.711C299.251 142.865 302.221 143.058 304.921 141.593C305.692 141.246 304.998 140.089 304.226 140.474Z" fill="#476CFC"/>
  <path d="M305.268 141.439C304.959 138.893 304.227 136.502 303.069 134.227C302.452 132.993 301.758 131.643 300.871 130.563C300.601 130.216 300.293 129.946 300.023 129.637C299.521 129.059 299.29 128.326 298.866 127.709C298.248 126.861 297.207 125.858 296.32 125.241C295.24 124.508 294.16 123.621 293.042 122.927C291.19 121.77 289.146 120.844 287.102 120.15C278.849 117.373 269.515 118.376 261.917 122.541C257.597 124.932 253.972 128.326 251.349 132.491C250.887 133.224 252.044 133.918 252.506 133.185C258.176 124.122 268.937 119.302 279.466 120.034C282.088 120.227 284.711 120.767 287.218 121.654C288.452 122.078 289.648 122.618 290.805 123.235C292.078 123.93 293.08 124.817 294.237 125.665C295.356 126.514 296.513 127.092 297.439 128.249C298.364 129.329 299.29 130.679 300.1 131.836C302.105 134.689 303.494 138.006 303.918 141.477C304.034 142.287 305.384 142.287 305.268 141.439Z" fill="#476CFC"/>
  <path d="M288.683 199.634C290.689 202.45 293.582 207.27 290.342 210.317C289.339 211.243 288.066 211.667 286.794 212.053C280.97 213.711 274.683 212.554 269.399 209.777C263.73 206.808 259.179 202.218 255.322 197.205C254.782 196.511 253.856 197.475 254.358 198.169C260.567 206.152 269.052 213.364 279.543 214.097C283.284 214.328 288.722 213.981 291.538 211.011C294.932 207.425 292.193 202.257 289.841 198.94C289.378 198.246 288.182 198.902 288.683 199.634Z" fill="#476CFC"/>
  <path d="M254.898 197.59C240.319 198.863 227.244 206.345 216.214 215.562C207.343 222.967 200.131 232.223 194.346 242.173C181.811 263.808 175.254 288.914 173.133 313.712C171.976 327.056 172.169 340.554 174.213 353.821C174.329 354.669 175.64 354.322 175.524 353.474C171.899 329.91 173.904 305.266 179.844 282.242C185.668 259.643 195.734 236.773 212.82 220.383C224.197 209.469 238.931 200.29 254.898 198.902C255.746 198.863 255.746 197.513 254.898 197.59Z" fill="#476CFC"/>
  <path d="M228.71 260.646C219.415 269.207 212.203 279.813 206.919 291.267C201.481 302.991 197.662 315.64 195.927 328.444C194.808 336.813 194.577 345.221 195.078 353.666C195.117 354.515 196.467 354.553 196.428 353.666C194.963 327.249 201.326 299.867 216.021 277.653C219.916 271.791 224.467 266.392 229.674 261.61C230.291 261.031 229.327 260.067 228.71 260.646Z" fill="#476CFC"/>
  <path d="M289.339 199.943C295.819 201.177 301.835 203.182 307.505 206.615C312.557 209.623 317.185 213.75 320.811 218.377C324.706 223.352 327.676 228.752 330.492 234.421C333.423 240.321 336.084 246.299 338.398 252.431C340.944 259.142 343.103 265.968 344.916 272.871C345.147 273.719 346.42 273.372 346.227 272.524C342.911 259.681 338.244 247.225 332.42 235.308C330.916 232.223 329.334 229.176 327.715 226.168C326.249 223.468 324.436 221 322.624 218.532C319.268 214.019 314.987 209.931 310.32 206.731C304.111 202.488 297.014 200.02 289.648 198.632C288.838 198.477 288.491 199.789 289.339 199.943Z" fill="#476CFC"/>
  <path d="M256.093 161.608C254.936 160.49 253.432 159.912 251.812 159.912C250.925 159.912 250.925 161.261 251.812 161.261C253.085 161.261 254.203 161.686 255.129 162.573C255.785 163.19 256.71 162.225 256.093 161.608Z" fill="#476CFC"/>
  <path d="M317.841 241.787C323.395 270.75 318.613 301.294 312.017 329.64C310.128 337.854 307.968 345.992 305.615 354.091C305.384 354.939 306.695 355.286 306.926 354.438C315.257 325.436 322.007 295.085 321.467 264.734C321.312 256.905 320.618 249.076 319.153 241.401C318.998 240.553 317.687 240.938 317.841 241.787Z" fill="#476CFC"/>
  <path d="M227.977 257.715C231.834 282.898 233.184 309.084 228.787 334.306C227.591 341.133 225.933 347.882 223.696 354.438C223.426 355.248 224.699 355.633 225.007 354.785C233.415 330.373 233.994 303.569 231.795 278.039C231.217 271.097 230.368 264.194 229.288 257.329C229.173 256.481 227.861 256.866 227.977 257.715Z" fill="#476CFC"/>
  <path d="M212.82 281.471C208.462 277.73 203.949 274.221 199.514 270.557C195.117 266.893 191.067 262.844 187.249 258.602C186.671 257.946 185.706 258.91 186.285 259.566C190.103 263.847 194.114 267.857 198.55 271.521C202.946 275.185 207.497 278.694 211.856 282.435C212.511 283.014 213.475 282.05 212.82 281.471Z" fill="#476CFC"/>
  <path d="M310.32 228.867C309.356 227.479 308.392 226.091 307.466 224.702C306.965 224.008 305.808 224.664 306.309 225.396C307.273 226.785 308.237 228.173 309.163 229.562C309.626 230.256 310.822 229.561 310.32 228.867Z" fill="#476CFC"/>
  <path d="M333.577 260.838C332.613 259.45 331.649 258.062 330.723 256.673C330.222 255.979 329.065 256.635 329.566 257.367C330.53 258.756 331.494 260.144 332.42 261.533C332.921 262.227 334.078 261.533 333.577 260.838Z" fill="#476CFC"/>
  <path d="M269.014 228.867C268.05 227.479 267.085 226.091 266.16 224.702C265.658 224.008 264.501 224.664 265.003 225.396C265.967 226.785 266.931 228.173 267.857 229.562C268.32 230.256 269.477 229.561 269.014 228.867Z" fill="#476CFC"/>
  <path d="M290.496 269.824C289.532 268.436 288.568 267.048 287.642 265.659C287.141 264.965 285.984 265.621 286.485 266.353C287.449 267.742 288.414 269.13 289.339 270.518C289.841 271.213 290.998 270.557 290.496 269.824Z" fill="#476CFC"/>
  <path d="M300.485 251.814C299.521 250.426 298.557 249.037 297.631 247.649C297.13 246.955 295.973 247.61 296.474 248.343C297.439 249.731 298.403 251.12 299.328 252.508C299.83 253.202 300.987 252.508 300.485 251.814Z" fill="#476CFC"/>
  <path d="M251.427 215.215C250.462 213.827 249.498 212.438 248.573 211.05C248.071 210.356 246.914 211.011 247.416 211.744C248.38 213.132 249.344 214.521 250.27 215.909C250.732 216.603 251.928 215.909 251.427 215.215Z" fill="#476CFC"/>
  <path d="M228.44 243.329C227.476 241.941 226.511 240.553 225.586 239.164C225.084 238.47 223.927 239.126 224.429 239.859C225.393 241.247 226.357 242.635 227.283 244.024C227.746 244.718 228.941 244.062 228.44 243.329Z" fill="#476CFC"/>
  <path d="M213.36 260.838C212.396 259.45 211.431 258.062 210.506 256.673C210.004 255.979 208.847 256.635 209.349 257.367C210.313 258.756 211.277 260.144 212.203 261.533C212.666 262.227 213.861 261.533 213.36 260.838Z" fill="#476CFC"/>
  <path d="M285.598 229.484C286.717 228.212 287.835 226.978 288.954 225.705C289.532 225.049 288.568 224.085 287.989 224.741C286.871 226.013 285.752 227.248 284.634 228.52C284.055 229.176 285.02 230.14 285.598 229.484Z" fill="#476CFC"/>
  <path d="M307.081 274.992C308.199 273.719 309.318 272.485 310.436 271.213C311.015 270.557 310.05 269.593 309.472 270.248C308.353 271.521 307.235 272.755 306.116 274.028C305.576 274.684 306.502 275.648 307.081 274.992Z" fill="#476CFC"/>
  <path d="M252.622 295.471C251.658 294.082 250.694 292.694 249.768 291.305C249.267 290.611 248.11 291.267 248.611 292C249.575 293.388 250.54 294.776 251.465 296.165C251.928 296.859 253.124 296.203 252.622 295.471Z" fill="#476CFC"/>
  <path d="M269.207 300.6C270.325 299.327 271.444 298.093 272.562 296.82C273.141 296.165 272.176 295.201 271.598 295.856C270.479 297.129 269.361 298.363 268.242 299.636C267.664 300.291 268.628 301.255 269.207 300.6Z" fill="#476CFC"/>
  <path d="M246.76 238.355C247.878 237.082 248.997 235.848 250.115 234.575C250.694 233.919 249.73 232.955 249.151 233.611C248.033 234.884 246.914 236.118 245.796 237.39C245.217 238.046 246.181 239.01 246.76 238.355Z" fill="#476CFC"/>
  <path d="M201.982 247.919C203.1 246.646 204.219 245.412 205.337 244.139C205.916 243.484 204.952 242.52 204.373 243.175C203.255 244.448 202.136 245.682 201.018 246.955C200.478 247.61 201.403 248.574 201.982 247.919Z" fill="#476CFC"/>
  <path d="M272.755 251.39C273.873 250.117 274.992 248.883 276.11 247.61C276.689 246.955 275.725 245.991 275.146 246.646C274.028 247.919 272.909 249.153 271.791 250.426C271.251 251.081 272.176 252.045 272.755 251.39Z" fill="#476CFC"/>
  <path d="M230.908 223.931C232.027 222.658 233.145 221.424 234.264 220.151C234.842 219.496 233.878 218.532 233.3 219.187C232.181 220.46 231.063 221.694 229.944 222.967C229.404 223.622 230.33 224.586 230.908 223.931Z" fill="#476CFC"/>
  <path d="M320.772 284.094C329.18 280.468 337.55 276.843 345.957 273.18C346.767 272.832 346.073 271.675 345.263 272.023C336.855 275.648 328.486 279.273 320.078 282.937C319.268 283.284 319.962 284.441 320.772 284.094Z" fill="#476CFC"/>
  <path d="M249.652 267.549C250.771 266.276 251.889 265.042 253.008 263.769C253.586 263.114 252.622 262.15 252.044 262.805C250.925 264.078 249.807 265.312 248.688 266.585C248.11 267.24 249.074 268.204 249.652 267.549Z" fill="#476CFC"/>
  <path d="M267.201 277.383C268.32 276.11 269.438 274.876 270.556 273.604C271.135 272.948 270.171 271.984 269.592 272.64C268.474 273.912 267.355 275.146 266.237 276.419C265.697 277.075 266.622 278 267.201 277.383Z" fill="#476CFC"/>
  <path d="M340.404 274.684C347.423 300.291 349.544 327.982 344.762 354.206C344.608 355.055 345.919 355.402 346.073 354.553C350.894 328.097 348.812 300.176 341.715 274.336C341.484 273.488 340.172 273.835 340.404 274.684Z" fill="#476CFC"/>
  <path d="M317.571 301.217C323.241 318.263 325.4 335.849 323.896 353.782C323.819 354.631 325.169 354.631 325.246 353.782C326.75 335.733 324.59 318.032 318.882 300.87C318.574 300.06 317.263 300.407 317.571 301.217Z" fill="#476CFC"/>
  <path d="M292.502 291.73C293.62 290.457 294.739 289.223 295.857 287.95C296.436 287.295 295.472 286.33 294.893 286.986C293.775 288.259 292.656 289.493 291.538 290.765C290.959 291.421 291.923 292.385 292.502 291.73Z" fill="#476CFC"/>
  <path d="M283.053 327.21C284.171 325.938 285.29 324.703 286.408 323.431C286.987 322.775 286.022 321.811 285.444 322.467C284.325 323.739 283.207 324.973 282.089 326.246C281.51 326.902 282.474 327.866 283.053 327.21Z" fill="#476CFC"/>
  <path d="M262.341 345.028C263.46 343.755 264.578 342.521 265.697 341.248C266.275 340.593 265.311 339.628 264.733 340.284C263.614 341.557 262.496 342.791 261.377 344.063C260.837 344.719 261.763 345.683 262.341 345.028Z" fill="#476CFC"/>
  <path d="M302.568 309.894C301.604 308.506 300.64 307.156 299.676 305.768C299.174 305.073 298.017 305.729 298.519 306.462C299.483 307.85 300.447 309.2 301.411 310.588C301.874 311.283 303.07 310.627 302.568 309.894Z" fill="#476CFC"/>
  <path d="M244.561 342.328C243.597 340.94 242.633 339.59 241.669 338.202C241.167 337.507 240.01 338.163 240.512 338.896C241.476 340.284 242.44 341.634 243.404 343.022C243.867 343.716 245.063 343.022 244.561 342.328Z" fill="#476CFC"/>
  <path d="M260.027 320.847C259.063 319.458 258.099 318.07 257.173 316.682C256.672 315.988 255.515 316.643 256.016 317.376C256.98 318.764 257.945 320.153 258.87 321.541C259.333 322.235 260.49 321.58 260.027 320.847Z" fill="#476CFC"/>
  <path d="M296.513 347.033C295.549 345.645 294.584 344.256 293.659 342.868C293.157 342.174 292 342.829 292.502 343.562C293.466 344.951 294.43 346.339 295.356 347.727C295.819 348.421 297.014 347.727 296.513 347.033Z" fill="#476CFC"/>
  <path d="M293.466 166.892C294.276 166.159 293.003 165.504 292.348 166.082C289.648 168.512 286.215 166.506 284.557 163.922C284.133 163.267 282.551 163.922 283.053 164.655C285.29 168.165 290.072 169.939 293.466 166.892Z" fill="#476CFC"/>
  <path d="M201.712 230.526C195.965 226.206 193.497 218.069 196.12 211.32C198.742 204.532 206.07 200.329 213.205 200.946C213.205 200.483 213.205 200.059 213.205 199.596C209.503 199.673 206.302 197.32 204.72 194.042C203.062 190.61 203.679 186.676 205.685 183.552C210.351 176.225 219.685 175.415 227.437 177.382C227.514 176.958 227.553 176.495 227.63 176.071C221.228 176.611 217.101 169.939 219.723 164.27C222.115 159.14 228.093 158.292 232.952 156.865C242.402 154.011 247.454 145.681 250.269 136.695C250.539 135.846 249.228 135.499 248.958 136.348C247.223 141.863 244.638 147.416 240.28 151.389C235.768 155.476 229.983 155.708 224.66 158.06C220.148 160.066 216.946 164.308 217.602 169.437C218.219 174.297 222.77 177.883 227.63 177.459C228.363 177.382 228.594 176.341 227.823 176.148C219.029 173.911 208.114 175.338 203.756 184.401C202.021 187.949 201.982 192.075 203.988 195.546C205.916 198.863 209.349 201.138 213.244 201.061C214.131 201.023 214.092 199.789 213.244 199.712C205.492 199.017 197.624 203.761 194.847 211.088C192.031 218.455 194.847 227.132 201.056 231.798C201.712 232.223 202.368 231.027 201.712 230.526Z" fill="#476CFC"/>
  <path d="M289.455 199.634C289.455 199.634 283.4 190.456 289.455 181.084L300.524 177.498C300.524 177.498 294.237 181.161 298.634 187.486C298.634 187.486 309.202 197.706 302.028 202.913C302.067 202.951 291.422 198.67 289.455 199.634Z" fill="#476CFC"/>
  <path d="M304.574 141.091C304.574 141.091 291.499 146.606 273.951 133.07C273.951 133.07 275.57 146.915 257.675 156.286C257.675 156.286 251.041 146.375 247.107 154.358C247.107 154.358 239.933 172.484 259.642 168.627C259.642 168.627 258.832 187.178 254.821 197.706C254.821 197.706 231.371 200.946 217.294 215.562L202.175 231.49C202.175 231.49 187.365 221.308 199.051 205.574C199.051 205.574 203.023 200.753 210.429 200.213C210.429 200.213 198.82 195.932 204.566 184.092C204.566 184.092 208.307 174.798 222.925 175.839C222.925 175.839 212.126 169.707 222.462 159.95L227.823 157.559L235.691 155.129C235.691 155.129 243.867 152.738 248.573 138.816C248.573 138.816 255.708 116.911 281.973 119.649C281.973 119.61 300.177 120.767 304.574 141.091Z" fill="#476CFC"/>
  <path d="M252.121 131.219C250.655 133.147 249.537 135.268 248.65 137.505C248.187 138.662 250.077 139.163 250.501 138.006C251.311 135.924 252.43 133.957 253.779 132.144C254.551 131.18 252.854 130.216 252.121 131.219Z" fill="#476CFC"/>
  <path d="M666.229 353.936H0.771366C0.347115 353.936 0 354.245 0 354.592C0 354.939 0.347115 355.248 0.771366 355.248H666.229C666.653 355.248 667 354.939 667 354.592C667 354.245 666.653 353.936 666.229 353.936Z" fill="#476CFC"/>
  <path d="M142.587 383.902C158.818 383.902 171.976 382.814 171.976 381.472C171.976 380.131 158.818 379.043 142.587 379.043C126.356 379.043 113.198 380.131 113.198 381.472C113.198 382.814 126.356 383.902 142.587 383.902Z" fill="#476CFC"/>
  <path d="M121.374 379.158V379.274C121.374 380.046 126.542 381.781 136.493 381.781C146.482 381.781 151.612 380.007 151.612 379.274V379.158H151.727V378.541C151.458 378.503 151.265 378.31 151.226 378.04C151.188 377.886 151.226 377.693 151.303 377.577C151.38 377.423 151.535 377.346 151.689 377.307C158.168 375.88 162.874 370.057 162.874 363.424C162.874 356.79 158.168 350.928 151.689 349.54C151.535 349.501 151.38 349.424 151.303 349.27C151.226 349.116 151.188 348.961 151.226 348.807C151.265 348.576 151.496 348.383 151.727 348.344V345.683C149.375 346.917 143.474 347.766 136.493 347.766C129.551 347.766 123.611 346.879 121.259 345.683V379.197H121.374V379.158ZM150.648 355.325C150.3 355.248 150.108 354.901 150.185 354.553C150.262 354.206 150.609 354.014 150.956 354.091C155.314 355.132 158.323 358.989 158.323 363.462C158.323 367.936 155.276 371.754 150.956 372.834C150.918 372.834 150.84 372.834 150.802 372.834C150.493 372.834 150.262 372.641 150.185 372.332C150.108 371.985 150.3 371.638 150.648 371.561C150.995 371.484 151.38 371.368 151.766 371.214V355.672C151.38 355.518 151.033 355.402 150.648 355.325Z" fill="white"/>
  <path d="M164.185 363.424C164.185 356.482 159.519 350.35 152.808 348.499V345.028C152.808 344.912 152.769 344.835 152.731 344.796C152.769 344.681 152.808 344.603 152.808 344.488C152.808 342.675 145.518 341.21 136.493 341.21C127.468 341.21 120.179 342.675 120.179 344.488C120.179 344.603 120.218 344.681 120.256 344.796C120.218 344.873 120.179 344.951 120.179 345.028V379.158H120.063V379.274C120.063 383.015 135.799 383.054 136.455 383.054C137.805 383.054 142.51 383.015 146.752 382.321C150.802 381.665 152.885 380.624 152.885 379.274V379.158H152.769V378.349C159.519 376.497 164.185 370.365 164.185 363.424ZM151.766 345.645V348.306C151.496 348.344 151.304 348.537 151.265 348.769C151.226 348.923 151.265 349.116 151.342 349.231C151.419 349.386 151.574 349.463 151.728 349.501C158.207 350.928 162.913 356.752 162.913 363.385C162.913 370.018 158.207 375.88 151.728 377.269C151.574 377.307 151.419 377.384 151.342 377.539C151.265 377.693 151.226 377.847 151.265 378.001C151.304 378.271 151.535 378.464 151.766 378.503V379.12H151.651V379.236C151.651 380.007 146.483 381.742 136.532 381.742C126.543 381.742 121.413 379.968 121.413 379.236V379.12H121.297V345.606C123.65 346.84 129.551 347.689 136.532 347.689C143.474 347.766 149.414 346.879 151.766 345.645Z" fill="#476CFC"/>
  <path d="M150.648 371.561C150.301 371.638 150.108 371.985 150.185 372.332C150.262 372.602 150.494 372.834 150.802 372.834C150.841 372.834 150.918 372.834 150.956 372.834C155.276 371.792 158.323 367.936 158.323 363.462C158.323 358.989 155.276 355.171 150.956 354.091C150.609 354.014 150.262 354.206 150.185 354.553C150.108 354.901 150.301 355.248 150.648 355.325C150.995 355.402 151.381 355.518 151.766 355.672V371.214C151.381 371.368 150.995 371.484 150.648 371.561ZM152.846 370.713V356.173C155.469 357.639 157.05 360.415 157.05 363.424C157.05 366.432 155.43 369.208 152.846 370.713Z" fill="#476CFC"/>
  <path d="M83.7704 396.899C109.587 396.899 130.515 396.139 130.515 395.202C130.515 394.265 109.587 393.505 83.7704 393.505C57.954 393.505 37.0256 394.265 37.0256 395.202C37.0256 396.139 57.954 396.899 83.7704 396.899Z" fill="#476CFC"/>
  <path d="M62.7119 369.286V314.599H102.823H110.614L103.479 321.31V369.286H62.7119Z" fill="white"/>
  <path d="M61.748 313.327C61.748 337.662 61.748 361.958 61.748 386.293C62.4037 386.293 63.0208 386.293 63.6765 386.293C63.6765 385.869 63.6765 385.483 63.6765 385.059C63.6765 383.825 61.748 383.825 61.748 385.059C61.748 385.483 61.748 385.869 61.748 386.293C61.748 387.527 63.6765 387.527 63.6765 386.293C63.6765 361.958 63.6765 337.662 63.6765 313.327C63.6765 312.092 61.748 312.092 61.748 313.327Z" fill="#476CFC"/>
  <path d="M110.151 313.635C94.338 313.635 78.525 313.635 62.7506 313.635C62.7506 314.291 62.7506 314.908 62.7506 315.563C74.6296 315.563 86.5472 315.563 98.4263 315.563C100.123 315.563 101.782 315.563 103.479 315.563C104.713 315.563 104.713 313.635 103.479 313.635C91.5997 313.635 79.6821 313.635 67.803 313.635C66.106 313.635 64.4476 313.635 62.7506 313.635C61.5164 313.635 61.5164 315.563 62.7506 315.563C78.5636 315.563 94.3766 315.563 110.151 315.563C111.385 315.563 111.385 313.635 110.151 313.635Z" fill="#476CFC"/>
  <path d="M109.92 313.905C107.451 315.91 105.176 318.147 102.785 320.23C101.859 321.04 103.209 322.39 104.134 321.58C106.526 319.497 108.801 317.299 111.27 315.255C112.234 314.484 110.884 313.134 109.92 313.905Z" fill="#476CFC"/>
  <path d="M102.514 320.924C102.514 342.559 102.514 364.195 102.514 385.83C102.514 387.064 104.443 387.064 104.443 385.83C104.443 364.195 104.443 342.559 104.443 320.924C104.443 319.651 102.514 319.651 102.514 320.924Z" fill="#476CFC"/>
  <path d="M62.9822 387.257C76.4811 387.257 89.98 387.257 103.479 387.257C104.713 387.257 104.713 385.329 103.479 385.329C89.98 385.329 76.4811 385.329 62.9822 385.329C61.7094 385.329 61.7094 387.257 62.9822 387.257Z" fill="#476CFC"/>
  <path d="M63.7149 369.016C76.9053 369.016 90.0571 369.016 103.247 369.016C104.482 369.016 104.482 367.087 103.247 367.087C90.0571 367.087 76.9053 367.087 63.7149 367.087C62.4808 367.087 62.4808 369.016 63.7149 369.016Z" fill="#476CFC"/>
  <path d="M63.4449 362.382C76.6353 362.382 89.7871 362.382 102.977 362.382C104.212 362.382 104.212 360.454 102.977 360.454C89.7871 360.454 76.6353 360.454 63.4449 360.454C62.2107 360.454 62.2107 362.382 63.4449 362.382Z" fill="#476CFC"/>
  <path d="M67.3787 361.727C67.3787 363.616 67.3787 365.506 67.3787 367.357C67.3787 368.591 69.3071 368.591 69.3071 367.357C69.3071 365.468 69.3071 363.578 69.3071 361.727C69.3071 360.493 67.3787 360.493 67.3787 361.727Z" fill="#476CFC"/>
  <path d="M73.28 361.727C73.28 363.616 73.28 365.506 73.28 367.357C73.28 368.591 75.2084 368.591 75.2084 367.357C75.2084 365.468 75.2084 363.578 75.2084 361.727C75.2084 360.493 73.28 360.493 73.28 361.727Z" fill="#476CFC"/>
  <path d="M79.1423 361.727C79.1423 363.616 79.1423 365.506 79.1423 367.357C79.1423 368.591 81.0708 368.591 81.0708 367.357C81.0708 365.468 81.0708 363.578 81.0708 361.727C81.0708 360.493 79.1423 360.493 79.1423 361.727Z" fill="#476CFC"/>
  <path d="M85.0432 361.727C85.0432 363.616 85.0432 365.506 85.0432 367.357C85.0432 368.591 86.9716 368.591 86.9716 367.357C86.9716 365.468 86.9716 363.578 86.9716 361.727C86.9716 360.493 85.0432 360.493 85.0432 361.727Z" fill="#476CFC"/>
  <path d="M90.9441 361.727C90.9441 363.616 90.9441 365.506 90.9441 367.357C90.9441 368.591 92.8725 368.591 92.8725 367.357C92.8725 365.468 92.8725 363.578 92.8725 361.727C92.8725 360.493 90.9441 360.493 90.9441 361.727Z" fill="#476CFC"/>
  <path d="M96.845 361.727C96.845 363.616 96.845 365.506 96.845 367.357C96.845 368.591 98.7734 368.591 98.7734 367.357C98.7734 365.468 98.7734 363.578 98.7734 361.727C98.7734 360.493 96.845 360.493 96.845 361.727Z" fill="#476CFC"/>
  <path d="M83.809 360.454C83.809 345.298 83.809 330.141 83.809 314.985C83.809 313.751 81.8806 313.751 81.8806 314.985C81.8806 330.141 81.8806 345.298 81.8806 360.454C81.8806 361.688 83.809 361.688 83.809 360.454Z" fill="#476CFC"/>
  <path d="M83.809 306.5C83.809 303.955 83.809 301.41 83.809 298.903C83.809 297.669 81.8806 297.669 81.8806 298.903C81.8806 301.448 81.8806 303.994 81.8806 306.5C81.8806 307.735 83.809 307.735 83.809 306.5Z" fill="#476CFC"/>
  <path d="M63.7148 315.255V311.591C63.7148 309.47 65.4504 307.735 67.5716 307.735H98.9276C101.049 307.735 102.784 309.47 102.784 311.591V315.255H104.79V311.591C104.79 308.352 102.167 305.729 98.9276 305.729H67.5716C64.3319 305.729 61.7092 308.352 61.7092 311.591V315.255H63.7148Z" fill="#476CFC"/>
  <path d="M82.999 299.906C84.7457 299.906 86.1616 298.49 86.1616 296.743C86.1616 294.997 84.7457 293.581 82.999 293.581C81.2524 293.581 79.8364 294.997 79.8364 296.743C79.8364 298.49 81.2524 299.906 82.999 299.906Z" fill="#476CFC"/>
  <path d="M63.4448 353.242H56.0397C52.1057 353.242 48.9045 350.041 48.9045 346.108V329.331C48.9045 325.398 52.1057 322.197 56.0397 322.197H63.4448V323.739H56.0397C52.9542 323.739 50.4473 326.246 50.4473 329.331V346.108C50.4473 349.193 52.9542 351.7 56.0397 351.7H63.4448V353.242Z" fill="#476CFC"/>
  <path d="M102.977 368.052H62.9819V386.293H102.977V368.052Z" fill="#476CFC"/>
  <path d="M62.7119 314.214V310.048L65.7974 306.809H100.2L103.787 309.586V314.985L62.7119 314.214Z" fill="#476CFC"/>
  <path d="M61.7866 382.128V394.546C61.7866 395.163 62.5966 395.472 62.9822 394.97L70.3102 385.715C70.5802 385.368 70.4645 384.866 70.0402 384.673L62.7123 381.511C62.288 381.318 61.7866 381.665 61.7866 382.128Z" fill="#476CFC"/>
  <path d="M104.443 382.128V394.546C104.443 395.163 103.633 395.472 103.247 394.97L95.9194 385.715C95.6494 385.368 95.7651 384.866 96.1894 384.673L103.517 381.511C103.942 381.318 104.443 381.665 104.443 382.128Z" fill="#476CFC"/>
  <path d="M133.562 336.505C131.633 332.609 131.633 328.753 133.562 324.858C134.025 323.932 132.636 323.122 132.173 324.048C129.975 328.522 129.975 332.879 132.173 337.314C132.636 338.24 134.025 337.43 133.562 336.505Z" fill="#476CFC"/>
  <path d="M140.08 324.858C140.118 324.781 140.157 324.742 140.157 324.665C142.008 320.423 141.931 316.296 139.848 312.054C139.386 311.128 138.036 311.938 138.46 312.864C140.388 316.759 140.427 320.654 138.499 324.549C138.46 324.626 138.46 324.665 138.421 324.742C136.57 328.984 136.647 333.111 138.73 337.353C139.193 338.279 140.543 337.469 140.118 336.543C138.229 332.609 138.537 328.907 140.08 324.858Z" fill="#476CFC"/>
  <path d="M594.492 384.095C620.308 384.095 641.236 383.214 641.236 382.128C641.236 381.042 620.308 380.161 594.492 380.161C568.675 380.161 547.747 381.042 547.747 382.128C547.747 383.214 568.675 384.095 594.492 384.095Z" fill="#476CFC"/>
  <path d="M564.639 323.007C565.835 323.007 566.992 323.007 568.149 323.007C567.262 321.734 566.221 320.538 564.987 319.497C561.554 316.605 557.08 315.139 552.645 315.293C556.193 317.299 559.317 319.921 561.978 323.007C562.865 323.007 563.752 323.007 564.639 323.007Z" fill="white"/>
  <path d="M556.27 332.802L558.777 380.123H594.723L597.731 332.802C597.191 332.802 596.497 332.802 595.494 332.802C582.419 332.802 569.345 332.802 556.27 332.802Z" fill="white"/>
  <path d="M576.48 323.007C579.643 323.007 582.651 323.007 585.698 323.007C585.891 322.737 586.083 322.467 586.276 322.197C587.279 316.026 589.863 309.624 593.759 304.881C589.555 306.346 585.891 309.316 583.769 313.288C582.265 316.065 581.61 319.111 581.494 322.235C581.494 322.235 581.494 322.235 581.494 322.274C581.455 322.505 581.262 322.698 581.031 322.659C580.8 322.621 580.645 322.428 580.645 322.197C580.645 322.197 580.645 322.197 580.645 322.158C580.684 321.657 580.684 321.155 580.761 320.654C580.838 319.998 580.915 319.381 581.031 318.726C581.802 312.555 582.188 306.308 582.227 300.098C577.753 305.883 576.326 312.902 576.171 320.076C576.326 320.808 576.441 321.503 576.519 322.235C576.441 322.505 576.48 322.737 576.48 323.007Z" fill="white"/>
  <path d="M575.593 323.007C575.361 320.191 574.744 317.376 573.356 314.869C571.235 310.935 567.571 307.927 563.367 306.462C567.069 311.013 569.576 317.067 570.695 323.007C572.353 323.007 574.012 323.007 575.593 323.007Z" fill="white"/>
  <path d="M586.739 323.007C588.745 323.007 590.789 323.007 592.91 323.007C595.533 319.96 598.695 317.299 602.244 315.293C597.808 315.139 593.296 316.605 589.902 319.497C588.668 320.538 587.665 321.734 586.739 323.007Z" fill="white"/>
  <path d="M552.722 331.722C556.694 331.722 560.667 331.722 564.601 331.722C578.871 331.722 587.896 331.722 602.166 331.722V324.086C598.271 324.086 600.045 324.086 596.072 324.086C581.609 324.086 567.185 324.086 552.722 324.086C552.722 327.326 552.722 328.483 552.722 331.722Z" fill="white"/>
  <path d="M603.787 314.561C600.894 314.214 597.963 314.522 595.224 315.486C592.1 316.605 589.439 318.456 587.318 320.885C588.475 314.792 591.213 308.969 595.379 304.302C595.687 303.955 595.263 303.531 594.877 303.608C592.062 304.341 589.439 305.691 587.241 307.619C585.042 309.509 583.422 311.822 582.304 314.368C582.805 309.2 583.037 304.032 583.037 298.864C583.037 298.517 582.535 298.209 582.304 298.517C577.637 303.955 575.825 310.55 575.362 317.376C574.282 314.252 572.469 311.437 569.885 309.2C567.687 307.31 565.064 305.922 562.248 305.189C561.863 305.073 561.4 305.498 561.747 305.883C566.028 310.704 568.805 316.72 569.885 323.007C569.692 323.007 569.461 323.007 569.229 323.007C566.915 319.574 563.675 316.875 559.703 315.486C556.965 314.522 554.033 314.175 551.141 314.561C550.755 314.599 550.485 315.178 550.909 315.371C554.65 317.299 558.006 319.921 560.783 323.007C557.89 323.007 555.036 323.007 552.144 323.007C552.105 323.007 552.105 323.007 552.066 323.007C552.028 323.007 551.989 323.007 551.951 323.045C551.912 323.045 551.874 323.084 551.835 323.122C551.796 323.122 551.796 323.161 551.758 323.161C551.719 323.199 551.719 323.199 551.719 323.238C551.681 323.277 551.681 323.315 551.642 323.354C551.642 323.392 551.642 323.431 551.604 323.469C551.604 323.508 551.604 323.508 551.604 323.547C551.604 327.403 551.604 328.444 551.604 332.301C551.604 332.34 551.604 332.34 551.604 332.378C551.604 332.417 551.604 332.455 551.642 332.494C551.642 332.532 551.681 332.571 551.719 332.609C551.719 332.648 551.758 332.648 551.758 332.687C551.796 332.725 551.796 332.725 551.835 332.725C551.874 332.764 551.912 332.764 551.951 332.802C551.989 332.802 552.028 332.802 552.066 332.841C552.105 332.841 552.105 332.841 552.144 332.841C553.146 332.841 554.188 332.841 555.19 332.841L557.774 381.28L558.469 381.241H595.379L595.726 381.28L598.811 332.841C599.698 332.841 600.354 332.841 602.707 332.841C602.861 332.841 602.977 332.802 603.054 332.725C603.054 332.725 603.092 332.725 603.092 332.687C603.092 332.687 603.092 332.648 603.131 332.648C603.208 332.571 603.247 332.455 603.247 332.301V323.778C603.362 323.469 603.208 323.045 602.745 323.045C599.66 323.045 596.806 323.045 594.106 323.045C596.883 319.921 600.238 317.337 603.979 315.409C604.442 315.139 604.172 314.599 603.787 314.561ZM594.723 380.123H558.777L556.27 332.802C569.345 332.802 582.42 332.802 595.494 332.802C596.497 332.802 597.191 332.802 597.731 332.802L594.723 380.123ZM596.073 324.086C600.045 324.086 598.271 324.086 602.167 324.086V331.722C587.896 331.722 578.871 331.722 564.601 331.722C560.629 331.722 556.656 331.722 552.722 331.722C552.722 328.483 552.722 327.326 552.722 324.086C567.147 324.086 581.61 324.086 596.073 324.086Z" fill="#476CFC"/>
  <path d="M556.271 336.697L594.723 380.123L557.775 381.241L556.271 336.697Z" fill="#476CFC"/>
</svg>
