<svg width="108" height="107" viewBox="0 0 108 107" fill="none" xmlns="http://www.w3.org/2000/svg">
<path d="M78.824 0H33.2476V17.1061H78.824V0Z" fill="#476CFC"/>
<path d="M60.007 6.47593H57.6854C57.5632 6.47593 57.441 6.35374 57.441 6.23155V4.0322C57.441 3.78783 57.1966 3.54346 56.9523 3.54346H55.8526C55.6082 3.54346 55.3638 3.78783 55.3638 4.0322V6.35374C55.3638 6.47593 55.2416 6.59811 55.1194 6.59811H52.7978C52.5535 6.59811 52.3091 6.84248 52.3091 7.08686V8.18653C52.3091 8.4309 52.5535 8.67528 52.7978 8.67528H55.2416C55.3638 8.67528 55.486 8.79746 55.486 8.91965V11.2412C55.486 11.4856 55.7304 11.7299 55.9747 11.7299H57.0744C57.3188 11.7299 57.5632 11.4856 57.5632 11.2412V8.79746C57.5632 8.67528 57.6854 8.55309 57.6854 8.55309H60.007C60.2514 8.55309 60.4957 8.30872 60.4957 8.06435V6.96467C60.4957 6.7203 60.2514 6.47593 60.007 6.47593Z" fill="white"/>
<path d="M84.567 13.1962H25.5498V80.5208H84.567V13.1962Z" fill="white" stroke="#476CFC" stroke-width="2" stroke-miterlimit="10"/>
<path d="M106.194 26.1478H84.5669V80.5207H106.194V26.1478Z" fill="white" stroke="#476CFC" stroke-width="2" stroke-miterlimit="10"/>
<path d="M25.5498 26.1478H3.92236V80.5207H25.5498V26.1478Z" fill="white" stroke="#476CFC" stroke-width="2" stroke-miterlimit="10"/>
<g style="mix-blend-mode:multiply">
<path d="M25.4272 26.1478H20.4175V80.5207H25.4272V26.1478Z" fill="#C9D5FF"/>
</g>
<g style="mix-blend-mode:multiply">
<path d="M89.5766 26.1478H84.5669V80.5207H89.5766V26.1478Z" fill="#C9D5FF"/>
</g>
<path d="M78.8241 27.0032H32.1479V34.9453H78.8241V27.0032Z" fill="white" stroke="#476CFC" stroke-width="2" stroke-miterlimit="10"/>
<path d="M78.8241 44.9646H32.1479V52.9067H78.8241V44.9646Z" fill="white" stroke="#476CFC" stroke-width="2" stroke-miterlimit="10"/>
<path d="M73.2033 59.9934H37.7686V80.5207H73.2033V59.9934Z" fill="white" stroke="#476CFC" stroke-width="2" stroke-miterlimit="10"/>
<ellipse cx="51.9695" cy="104.044" rx="51.9695" ry="2.94161" fill="#E3E8FC"/>
</svg>
