<svg width="90" height="100" viewBox="0 0 90 100" fill="none" xmlns="http://www.w3.org/2000/svg">
<path d="M43.1322 23.6237C41.4341 23.6237 40.0756 22.0077 40.4152 20.3067C41.6888 13.3325 46.8681 7.80411 53.5756 5.93298C52.0473 5.50772 50.4341 5.25256 48.8209 5.25256C39.8209 5.25256 32.3492 11.7165 30.736 20.3067C30.3964 22.0077 31.7549 23.6237 33.453 23.6237L64.019 23.7087C64.1039 23.7087 64.1888 23.7087 64.1888 23.7087L43.1322 23.6237Z" fill="#D1D7EF"/>
<path d="M48.8209 5.33765C39.8209 5.33765 32.3492 11.8016 30.736 20.3918C30.3964 22.0928 31.7549 23.7088 33.453 23.7088L64.019 23.7938C65.7171 23.7938 67.0756 22.2629 66.8209 20.4768C65.2077 11.8866 57.8209 5.33765 48.8209 5.33765Z" stroke="#476CFC" stroke-width="2" stroke-miterlimit="10"/>
<path d="M62.5757 59.4304L34.387 59.3453C32.0945 59.3453 30.3115 57.4742 30.3115 55.1778L30.3964 30.5979C30.3964 28.3015 32.2644 26.5154 34.5568 26.5154L62.7455 26.6005C65.0379 26.6005 66.821 28.4716 66.821 30.768L66.736 55.3479C66.736 57.5592 64.8681 59.4304 62.5757 59.4304Z" fill="white" stroke="#476CFC" stroke-width="2" stroke-miterlimit="10"/>
<path d="M75.3966 59.4304C72.5947 59.4304 70.3022 57.134 70.3022 54.2423L70.3872 31.7036C70.3872 28.8969 72.6796 26.6005 75.5664 26.6005C78.3683 26.6005 80.6607 28.8969 80.6607 31.7887L80.5758 54.3273C80.5758 57.134 78.2834 59.4304 75.3966 59.4304Z" fill="white" stroke="#476CFC" stroke-width="2" stroke-miterlimit="10"/>
<path d="M18.0663 31.6223H18.0664V31.6185C18.0664 29.3733 19.9019 27.5154 22.2456 27.5154C24.4822 27.5154 26.3389 29.3507 26.3399 31.7017C26.3399 31.7023 26.3399 31.703 26.3399 31.7036L26.255 54.2385V54.2422C26.255 56.4875 24.4195 58.3453 22.0758 58.3453C19.8391 58.3453 17.9824 56.51 17.9814 54.159C17.9814 54.1584 17.9814 54.1578 17.9814 54.1572L18.0663 31.6223Z" fill="#D1D7EF" stroke="#476CFC" stroke-width="2"/>
<path d="M38.7173 84.201C35.9783 84.201 33.7739 81.9473 33.7739 79.1623V64.2577H43.7456V79.1623C43.7456 82.0045 41.484 84.201 38.7173 84.201Z" fill="#D1D7EF" stroke="#476CFC" stroke-width="2"/>
<path d="M58.67 85.2861C55.3586 85.2861 52.7266 82.5644 52.7266 79.2474V63.3428H64.6983V79.2474C64.6983 82.5644 61.9813 85.2861 58.67 85.2861Z" fill="white" stroke="#476CFC" stroke-width="2" stroke-miterlimit="10"/>
<path d="M31.5854 1L37.8685 8.90979" stroke="#476CFC" stroke-width="2" stroke-miterlimit="10"/>
<path d="M66.6512 1.08508L60.3682 8.99487" stroke="#476CFC" stroke-width="2" stroke-miterlimit="10"/>
<path d="M60.1982 33.2345L60.1133 54.3273" stroke="#476CFC" stroke-width="2" stroke-miterlimit="10"/>
<path d="M76.415 56.2835C74.2924 56.2835 72.5942 54.5825 72.5942 52.4562L76.415 56.2835Z" fill="white"/>
<path d="M76.415 56.2835C74.2924 56.2835 72.5942 54.5825 72.5942 52.4562" stroke="#476CFC" stroke-width="2" stroke-miterlimit="10"/>
<ellipse cx="45" cy="97.4484" rx="45" ry="2.55155" fill="#E3E8FC"/>
</svg>
