<svg width="88" height="96" viewBox="0 0 88 96" fill="none" xmlns="http://www.w3.org/2000/svg">
<path d="M47.7185 2.39376C45.8232 2.31502 43.928 2.31502 41.9538 2.4725C22.2119 4.20477 6.65523 20.5826 6.10246 40.3463C5.39175 62.6296 23.3174 80.8972 45.4284 80.8972C46.7708 80.8972 48.0343 80.8185 49.2978 80.7397C55.2204 80.1886 58.616 73.8106 56.089 68.4563C55.9311 68.1414 55.7732 67.8264 55.6152 67.5115C48.0343 50.11 53.8779 30.9763 55.7732 11.9213C56.3259 6.96066 52.6145 2.70872 47.7185 2.39376Z" fill="#476CFC" fill-opacity="0.15"/>
<path d="M54.0359 17.3543C52.9303 10.2677 59.4846 2.4725 67.0655 2.00006C69.0397 8.92915 61.143 18.2204 54.0359 17.3543Z" fill="white" stroke="#476CFC" stroke-width="2" stroke-miterlimit="10"/>
<path d="M47.0868 66.1729C39.3479 57.0391 35.2416 46.7242 36.584 34.5983C37.3737 27.433 41.7959 21.7637 47.9554 19.559C45.9812 18.8504 43.6911 18.5354 41.638 18.6929C33.5043 19.559 27.4238 26.0157 26.4762 34.5196C25.1337 46.6455 29.24 56.9604 36.9789 66.0942C40.3745 70.1099 43.4542 70.8973 48.3502 68.7713C48.7451 68.6138 49.0609 68.4563 49.3768 68.3776C48.6661 67.8264 47.8764 67.1178 47.0868 66.1729Z" fill="#CBD6FF"/>
<ellipse cx="44" cy="93.5166" rx="44" ry="2.48337" fill="#E3E8FC"/>
<path d="M79.5421 24.9919C69.0394 32.3147 70.5398 46.6453 81.3584 51.9209C81.2004 52.472 81.1215 53.1019 80.8846 53.6531C79.1473 58.4562 76.3834 62.6294 73.0668 66.4877C69.9081 70.031 66.3545 70.9759 61.9323 68.9286C57.3522 66.8027 53.009 66.8814 48.4288 68.8499C43.5328 70.9759 40.5321 70.1885 37.0575 66.1727C29.3187 57.0389 25.2123 46.724 26.5548 34.5981C27.5024 26.0942 33.5039 19.6376 41.7166 18.7715C44.0856 18.5352 46.8495 19.0077 49.0606 20.0313C52.6931 21.6061 55.9308 21.4486 59.6423 19.9525C67.539 16.6455 75.041 18.6927 79.5421 24.9919Z" stroke="#476CFC" stroke-width="2" stroke-miterlimit="10"/>
</svg>
