<svg width="356" height="423" viewBox="0 0 356 423" fill="none" xmlns="http://www.w3.org/2000/svg">
<path d="M91.4773 409.257H159.498C159.967 412.816 160.437 416.337 160.907 419.896C160.946 420.209 161.142 420.443 161.338 420.6C161.495 420.835 161.73 420.991 162.121 420.991H167.486C167.721 420.991 167.917 420.913 168.074 420.795C168.543 420.756 169.052 420.443 169.131 419.857L170.345 410.743H275.175C275.567 413.794 275.997 416.806 276.389 419.857C276.428 420.17 276.624 420.443 276.82 420.561C276.976 420.796 277.211 420.952 277.603 420.952H282.968C283.203 420.952 283.399 420.874 283.555 420.756C284.025 420.717 284.534 420.404 284.612 419.818L285.826 410.704H355.061C356.314 410.704 356.314 408.748 355.061 408.748H286.101C286.962 402.334 287.824 395.958 288.685 389.544H295.029C295.146 389.544 295.225 389.544 295.303 389.505C295.773 389.622 296.243 389.426 296.36 388.84C299.376 369.987 302.195 351.134 305.171 332.281H314.844C315.235 332.79 316.058 332.985 316.41 332.203C320.757 322.033 320.796 311.434 316.488 301.264C316.567 300.716 316.253 300.13 315.549 300.13H305.054L300.825 214.94C300.825 214.862 300.825 214.784 300.785 214.705C300.825 214.197 300.511 213.649 299.846 213.649H205.158C202.299 202.932 199.48 192.215 196.621 181.498V181.459C202.456 159.281 208.369 136.4 205.393 113.323C202.965 94.5482 194.193 72.5663 174.417 66.621C164.941 63.7657 154.368 64.7827 145.792 69.8283C145.596 69.9457 145.478 70.1021 145.4 70.2586H25.65C17.6223 69.046 9.24212 70.4541 2.15423 74.6002C1.72347 74.874 1.60599 75.3042 1.72347 75.6563C1.60599 75.8518 1.56683 76.0865 1.60599 76.3603C5.20868 93.9224 8.73304 111.484 12.2574 129.046C16.565 150.481 20.8725 171.954 25.1409 193.388C29.7618 216.426 34.3434 239.386 38.9251 262.385C43.2718 284.132 47.6185 305.919 52.0044 327.666C54.0799 337.914 56.1162 348.2 58.1916 358.448C58.8573 358.409 59.5231 358.448 60.1888 358.526C58.5832 350.547 56.9777 342.529 55.3721 334.55C51.0646 313.115 46.757 291.642 42.4886 270.208C37.907 247.248 33.3253 224.249 28.7436 201.289C24.3577 179.503 20.011 157.717 15.6643 135.97C12.0224 117.782 8.34145 99.5938 4.66044 81.406C4.30801 79.6459 3.95557 77.8857 3.56397 76.0865C7.08834 74.0917 10.8868 72.801 14.8419 72.2143C14.9203 72.2143 14.9986 72.2534 15.0769 72.2534H25.5325C26.5898 72.4098 27.608 72.6445 28.6653 72.8792C37.907 75.1869 44.9557 81.1322 49.929 89.1114C61.0503 106.947 62.1468 129.007 59.2489 149.307C57.4476 161.706 54.2757 173.871 51.1037 185.996C51.0254 186.231 51.0646 186.465 51.1429 186.622C51.1429 186.7 51.1429 186.778 51.1821 186.856C54.119 197.808 56.9777 208.76 59.9147 219.712C59.993 219.947 60.1105 220.142 60.2671 220.26C60.3062 220.299 60.3454 220.299 60.3846 220.338C60.502 220.416 60.6587 220.455 60.8545 220.455H133.887C137.49 247.052 141.053 273.65 144.656 300.247H138.195C137.529 300.247 137.216 300.834 137.255 301.342C134.788 306.349 133.143 311.786 133.221 317.379C133.3 322.659 134.866 327.705 137.333 332.32C137.412 332.477 137.529 332.594 137.686 332.672C143.09 351.017 148.494 369.361 153.898 387.705H94.2576C94.1793 388.214 94.1402 388.722 94.0227 389.231C94.0227 389.387 93.9835 389.505 93.9444 389.661H154.681C154.955 389.778 155.268 389.778 155.542 389.661H156.835C157.618 395.567 158.401 401.434 159.184 407.34H91.7906C91.7123 407.732 91.6339 408.162 91.5165 408.553C91.5165 408.788 91.4773 409.022 91.4773 409.257ZM135.767 220.455H149.316C155.856 220.533 160.868 223.819 162.709 230.155C163.766 233.793 163.531 237.352 163.688 241.068C165.176 260.781 166.546 280.495 168.034 300.247H146.497C142.972 273.611 139.37 247.013 135.767 220.455ZM281.793 215.683C277.799 217.522 274.862 220.768 273.687 225.501C272.63 229.803 273.335 233.91 273.609 238.252C274.274 256.635 275.018 275.019 275.723 293.441C253.833 290.821 231.747 289.53 209.739 290.312C209.857 290.117 209.896 289.882 209.818 289.647C204.022 263.715 198.344 237.783 192.666 211.85C186.948 185.605 181.231 159.36 175.475 133.114C172.303 118.603 169.092 104.131 165.841 89.659C165.567 88.4464 163.688 88.9549 163.962 90.1674C169.757 116.1 175.436 142.032 181.114 167.965C186.831 194.21 192.548 220.455 198.305 246.7C201.477 261.212 204.688 275.684 207.938 290.156C207.938 290.234 207.977 290.312 208.016 290.39C202.808 290.586 197.561 290.938 192.352 291.368C184.755 292.033 177.159 292.972 169.601 294.184C168.269 276.466 167.055 258.787 165.685 241.068C165.489 236.766 165.724 232.58 164.236 228.434C161.847 221.863 156.208 218.617 149.355 218.499H135.258C135.023 218.382 134.71 218.382 134.396 218.499H61.5594C58.7007 207.782 55.8812 197.065 53.0226 186.348V186.309C58.8573 164.131 64.7704 141.25 61.7943 118.173C59.4839 100.141 51.2995 79.2156 33.1686 72.2925H147.241C148.063 72.2925 148.337 71.4711 148.102 70.8844C155.464 67.0121 164.197 66.1125 172.303 68.1464C181.544 70.4541 188.593 76.3994 193.566 84.3786C204.688 102.214 205.784 124.275 202.886 144.575C201.085 156.974 197.913 169.138 194.741 181.263C194.663 181.498 194.702 181.733 194.78 181.889C194.78 181.967 194.78 182.046 194.82 182.124C197.717 192.958 200.576 203.793 203.435 214.588C203.395 215.097 203.709 215.683 204.374 215.683H281.793ZM169.797 296.101C197.169 291.642 225.051 291.094 252.697 293.128C260.412 293.676 268.087 294.458 275.762 295.397C275.802 296.766 275.88 298.174 275.919 299.543C275.919 299.856 276.037 300.051 276.232 300.208H170.031C169.914 298.839 169.836 297.47 169.718 296.101C169.757 296.101 169.757 296.101 169.797 296.101ZM303.096 300.208H277.642C277.799 300.051 277.916 299.817 277.916 299.543C277.172 279.126 276.311 258.669 275.606 238.252C275.371 234.575 274.705 231.016 275.332 227.3C276.467 220.807 280.971 216.896 287.471 216.074C287.784 216.035 288.019 215.879 288.176 215.683H298.906L303.096 300.208ZM138.469 330.404C133.887 321.212 134.357 311.394 138.9 302.164H314.726C318.642 311.355 318.76 321.134 315.079 330.404H138.469ZM155.856 387.666C150.413 369.205 144.969 350.782 139.565 332.32H303.213C300.276 350.743 297.535 369.205 294.598 387.666H155.856ZM170.619 408.827C171.48 402.412 172.342 396.037 173.203 389.622H272.356C273.217 396.037 274.079 402.412 274.94 408.827H170.619Z" fill="#476CFC"/>
<path d="M0.93983 407.301H35.1262C35.3611 407.966 35.5569 408.592 35.831 409.257H0.93983C-0.313277 409.257 -0.313277 407.301 0.93983 407.301Z" fill="#476CFC"/>
<path d="M103.891 183.141C107.135 183.141 109.764 180.514 109.764 177.274C109.764 174.033 107.135 171.407 103.891 171.407C100.646 171.407 98.0166 174.033 98.0166 177.274C98.0166 180.514 100.646 183.141 103.891 183.141Z" fill="#476CFC"/>
<path d="M128.718 181.85C131.962 181.85 134.592 179.223 134.592 175.983C134.592 172.742 131.962 170.116 128.718 170.116C125.474 170.116 122.844 172.742 122.844 175.983C122.844 179.223 125.474 181.85 128.718 181.85Z" fill="#476CFC"/>
<path d="M153.506 180.559C156.75 180.559 159.38 177.932 159.38 174.692C159.38 171.452 156.75 168.825 153.506 168.825C150.262 168.825 147.632 171.452 147.632 174.692C147.632 177.932 150.262 180.559 153.506 180.559Z" fill="#476CFC"/>
<path d="M109.96 306.075C110.234 303.572 111.291 296.962 106.749 297.587C104.908 297.861 103.694 299.582 102.754 300.99C101.345 303.102 100.013 305.254 98.7602 307.405C94.4526 314.797 90.8108 322.581 87.913 330.638C88.0304 329.661 88.1871 328.722 88.3046 327.744C89.4402 317.926 89.5185 307.952 88.5395 298.096C88.3046 295.593 87.9913 293.089 87.5997 290.586C87.3256 288.904 86.934 286.831 85.3676 285.814C81.53 283.311 79.6895 289.804 78.9063 292.151C76.9874 297.822 75.4211 303.65 74.2071 309.517C73.933 299.465 72.6016 289.452 70.252 279.634C69.6254 277.014 68.3332 269.895 63.7123 272.124C61.8327 273.024 61.1278 275.214 60.6187 276.974C59.8747 279.595 59.209 282.255 58.6607 284.915C56.7419 293.676 55.6846 302.594 55.4497 311.512C54.1966 304.941 52.5127 298.487 50.3589 292.151C49.5366 289.765 47.7352 283.311 43.8976 285.814C42.3312 286.831 41.9396 288.904 41.6655 290.586C41.2739 293.089 40.9606 295.593 40.7256 298.096C39.7467 307.952 39.825 317.926 40.9606 327.744C41.0781 328.683 41.1956 329.621 41.313 330.56C38.4152 322.542 34.8125 314.758 30.4658 307.405C29.1736 305.215 27.8421 303.063 26.4715 300.99C25.5317 299.582 24.2786 297.822 22.4773 297.587C17.9348 296.922 18.9921 303.572 19.2662 306.075C20.3235 316.01 22.3989 325.867 25.4534 335.41C28.1163 343.624 31.5231 351.564 35.5566 359.152H23.8479C23.8087 359.152 23.7695 359.152 23.7304 359.191C23.6912 359.191 23.6129 359.191 23.5737 359.231C23.4954 359.27 23.4563 359.27 23.4171 359.309C23.3779 359.348 23.3388 359.348 23.2996 359.387C23.2605 359.426 23.2605 359.465 23.2213 359.465C23.1821 359.504 23.143 359.583 23.143 359.622C23.143 359.661 23.1038 359.739 23.1038 359.778C23.1038 359.817 23.0647 359.856 23.0647 359.895V372.412C23.0647 372.451 23.0647 372.49 23.1038 372.529C23.1038 372.568 23.1038 372.647 23.143 372.686C23.1821 372.725 23.1821 372.803 23.2213 372.842C23.2605 372.881 23.2605 372.92 23.2996 372.959C23.3388 372.999 23.3779 372.999 23.3779 373.038C23.4171 373.077 23.4954 373.116 23.5346 373.116C23.5737 373.116 23.6521 373.155 23.6912 373.155C23.7304 373.155 23.7695 373.194 23.8087 373.194H32.1105C32.1497 389.387 33.7944 405.58 37.0446 421.46C37.0446 421.695 37.123 421.891 37.2796 422.047C37.3971 422.164 37.5929 422.243 37.7495 422.243H37.7887H89.8709C89.8709 422.243 89.871 422.243 89.9101 422.243C89.9493 422.243 89.9493 422.243 89.9884 422.243C90.4583 422.164 90.6933 421.734 90.615 421.343C93.8261 405.502 95.4708 389.348 95.5099 373.194H103.733C103.929 373.194 104.086 373.116 104.243 372.999L104.282 372.959L104.321 372.92C104.438 372.803 104.517 372.647 104.517 372.412V360.247C104.673 359.778 104.438 359.191 103.812 359.191H93.6303C97.7029 351.603 101.11 343.663 103.733 335.449C106.827 325.867 108.903 316.01 109.96 306.075ZM34.1077 386.493L34.5384 392.516C34.3426 390.521 34.2252 388.488 34.1077 386.493ZM92.6121 398.305C92.6121 398.305 91.6331 405.893 91.5548 406.441H91.594C90.9283 411.213 90.1059 415.945 89.1661 420.678H38.4935C36.7314 411.878 35.4391 402.999 34.6559 394.081L33.9902 384.967C33.7944 381.017 33.6769 377.066 33.6769 373.116H93.9827C93.9436 381.525 93.5128 389.935 92.6121 398.305ZM102.95 360.639V371.551H24.631V360.639H102.95Z" fill="#476CFC"/>
<path d="M22.0466 71.5101H27.0982V71.471L56.4679 71.5101C50.4373 65.0954 42.7621 65.9559 34.2253 64.9781C34.0295 64.939 26.9416 64.7043 22.9864 55.7864C23.0256 55.7864 12.0609 66.3471 22.0466 71.5101Z" fill="#476CFC"/>
<path d="M61.0886 40.0628C61.0886 40.0628 61.0886 37.0119 61.0886 35.4865C61.0886 34.3522 58.8174 34.3522 58.8174 35.4865C58.8174 37.0119 58.8174 38.5373 58.8174 40.0628C58.8174 41.5882 61.0886 41.5882 61.0886 40.0628C61.0886 40.0628 61.0886 41.5882 61.0886 40.0628Z" fill="#476CFC"/>
<path d="M38.1804 40.0236C38.1804 40.0236 38.1804 36.9727 38.1804 35.4473C38.1804 34.313 35.9092 34.313 35.9092 35.4473C35.9092 36.9727 35.9092 38.4982 35.9092 40.0236C35.9092 41.549 38.1804 41.549 38.1804 40.0236C38.1804 40.0236 38.1804 41.549 38.1804 40.0236Z" fill="#476CFC"/>
<path d="M128.013 36.5816C129.54 35.7211 130.91 38.068 129.383 38.9285C116.97 46.0081 103.773 56.3341 102.246 71.5493L122.452 71.5884C122.452 71.7058 122.452 71.784 122.491 71.9013H149.511C149.864 71.1973 150.177 70.4932 150.451 69.7892C160.672 44.7955 147.749 23.2439 131.811 12.3312C115.599 1.22287 95.0402 2.04425 78.0449 10.4537V10.4928H77.9666C72.6409 13.1134 67.6676 16.4772 63.2818 20.4668C63.1643 20.6624 62.9685 20.8188 62.7727 20.9362C61.9503 18.1591 60.7364 13.8566 60.6581 13.661C58.6609 8.18511 56.8204 2.98298 55.8806 0.362365C55.6848 -0.146113 54.9408 -0.106999 54.8233 0.401479C54.1576 3.10032 52.9828 16.0861 52.043 21.2491C51.9646 21.7184 51.4164 21.9922 50.9857 21.7576C48.3228 21.0144 46.0124 21.0926 43.467 22.266C42.0964 22.8919 42.0181 21.6793 41.744 20.9362C39.7077 15.4994 37.7889 5.83828 36.849 3.17855C36.6532 2.67007 35.9092 2.70919 35.7917 3.21767C34.6953 7.67663 32.0324 18.7458 31.6017 21.4447C31.0534 24.7693 30.701 24.4564 28.1164 27.0379C19.7755 35.4474 18.0133 60.0499 34.6169 63.6483C36.105 63.9612 37.828 64.1177 38.8462 64.1568C38.8462 64.1177 38.8462 64.1177 38.8853 64.0786C41.4699 58.0551 49.6151 57.1555 55.2932 57.5466C64.2216 58.2115 72.7976 62.162 78.789 68.8505C79.8463 70.0239 78.1233 71.7449 77.066 70.5715C71.7402 64.6262 64.2608 60.9104 56.3114 60.0499C51.9255 59.5805 45.3858 59.6978 42.2139 63.3354C41.9006 63.6874 42.1356 64.235 42.6055 64.2741C48.871 64.6262 54.4317 65.7605 59.3267 71.4711L99.5436 71.5102C101.11 55.278 114.659 44.2088 128.013 36.5816ZM36.9274 44.9129C32.9331 44.9129 29.6828 41.6664 29.6828 37.6768C29.6828 33.6872 32.9331 30.4408 36.9274 30.4408C40.9216 30.4408 44.1719 33.6872 44.1719 37.6768C44.1719 41.6664 40.9216 44.9129 36.9274 44.9129ZM60.0707 44.952C56.0764 44.952 52.8262 41.7055 52.8262 37.7159C52.8262 33.7263 56.0764 30.4799 60.0707 30.4799C64.065 30.4799 67.3152 33.7263 67.3152 37.7159C67.3152 41.7055 64.065 44.952 60.0707 44.952Z" fill="#476CFC"/>
<path d="M142.698 62.1229C135.845 74.1699 136.08 89.8546 140.622 102.919C141.836 106.439 143.442 109.803 144.264 113.44C145.439 118.642 144.89 124.196 142.658 129.046C141.092 132.488 138.782 135.5 137.176 138.903C135.57 142.306 134.67 146.335 136.158 149.816C137.646 153.258 142.188 155.526 145.4 153.532C147.397 152.319 148.297 149.972 149.041 147.743C153.741 133.857 156.364 118.447 151.391 104.64C150.138 101.119 148.376 97.7946 147.279 94.2353C144.773 86.1387 145.282 79.2547 149.472 71.9014L142.698 62.1229Z" fill="#476CFC"/>
</svg>
