<svg width="504" height="299" viewBox="0 0 504 299" fill="none" xmlns="http://www.w3.org/2000/svg">
  <path d="M0.994573 298.852C34.147 298.852 67.2994 298.852 100.452 298.852C132.817 298.852 165.182 298.852 197.506 298.852C229.788 298.852 262.07 298.852 294.394 298.852C326.717 298.852 358.999 298.852 391.323 298.852C424.393 298.852 457.421 298.852 490.49 298.852C494.676 298.852 498.82 298.852 503.005 298.852C504.332 298.852 504.332 296.77 503.005 296.77C469.853 296.77 436.701 296.77 403.548 296.77C371.183 296.77 338.818 296.77 306.494 296.77C274.212 296.77 241.93 296.77 209.606 296.77C177.283 296.77 145 296.77 112.677 296.77C79.6073 296.77 46.5792 296.77 13.5096 296.77C9.32412 296.77 5.18007 296.77 0.994573 296.77C-0.331524 296.77 -0.331524 298.852 0.994573 298.852Z" fill="#476CFC"/>
  <path d="M314.824 124.383C314.949 124.008 314.783 123.467 314.244 123.467C296.466 123.467 231.736 123.467 213.958 123.467C208.902 123.467 203.846 123.467 198.791 123.467C198.749 123.467 198.749 123.467 198.708 123.467C198.666 123.467 198.625 123.467 198.583 123.509C198.542 123.509 198.501 123.55 198.459 123.592C198.418 123.592 198.418 123.633 198.376 123.675C198.335 123.717 198.335 123.717 198.335 123.758C198.293 123.8 198.293 123.842 198.252 123.883C198.252 123.925 198.252 123.966 198.21 124.008C198.21 124.05 198.21 124.05 198.21 124.091C198.21 128.837 198.21 130.044 198.21 134.79C198.21 134.832 198.21 134.832 198.21 134.873C198.21 134.915 198.21 134.957 198.252 134.998C198.252 135.04 198.293 135.082 198.335 135.123C198.335 135.165 198.376 135.165 198.418 135.206C198.459 135.248 198.459 135.248 198.501 135.248C198.542 135.29 198.583 135.29 198.625 135.331C198.666 135.331 198.708 135.331 198.749 135.373C198.791 135.373 198.791 135.373 198.832 135.373C216.361 135.373 281.547 135.373 299.077 135.373C304.133 135.373 309.147 135.373 314.203 135.373C314.368 135.373 314.534 135.29 314.617 135.206L314.658 135.165C314.658 135.165 314.658 135.123 314.7 135.123C314.783 135.04 314.866 134.873 314.866 134.707V124.383H314.824ZM213.958 134.082C209.151 134.082 204.344 134.082 199.537 134.082C199.537 130.128 199.537 128.712 199.537 124.757C217.066 124.757 282.21 124.757 299.781 124.757C304.588 124.757 308.815 124.757 313.581 124.757V134.082C296.217 134.082 231.28 134.082 213.958 134.082Z" fill="#476CFC"/>
  <path d="M306.329 134.374V151.109H206.747V134.374H205.421V151.775C205.421 151.817 205.421 151.817 205.421 151.858C205.421 151.9 205.421 151.941 205.462 151.983C205.462 152.025 205.504 152.066 205.545 152.108C205.545 152.15 205.587 152.15 205.628 152.191C205.67 152.233 205.67 152.233 205.711 152.233C205.752 152.275 205.794 152.275 205.835 152.316C205.877 152.316 205.918 152.316 205.96 152.358C206.001 152.358 206.001 152.358 206.043 152.358H306.992C307.157 152.358 307.323 152.275 307.406 152.191L307.448 152.15C307.448 152.15 307.448 152.108 307.489 152.108C307.572 152.025 307.655 151.858 307.655 151.692V134.291H306.329V134.374Z" fill="#476CFC"/>
  <path d="M216.03 124.05C214.041 114.85 211.43 105.317 211.347 96.0332C211.347 95.6586 211.181 94.7011 211.43 94.368C211.513 94.2432 211.554 94.1183 211.554 94.035C211.596 94.1183 211.72 94.1599 211.927 94.2848C213.088 94.826 214.289 97.0323 214.994 98.0731C218.019 102.444 220.588 107.107 223.116 111.728C223.199 111.894 223.323 112.061 223.448 112.144C224.401 116.099 225.354 119.887 226.266 124.091H216.03V124.05ZM228.213 124.05C224.359 107.523 220.298 91.2458 217.107 74.7189C216.361 70.7225 215.615 66.7261 215.118 62.688C214.952 61.3143 213.958 57.2346 214.828 55.8608C215.077 55.9857 215.325 56.2355 215.491 56.402C216.527 57.6509 217.563 58.8165 218.475 60.1486C221.044 63.8953 223.282 67.8085 225.478 71.8049C230.866 81.5878 236.294 91.9119 239.817 102.569C241.101 109.771 242.676 116.973 244.541 124.091H228.213V124.05ZM255.233 124.05H246.489C244.624 116.973 243.049 109.771 241.764 102.611C241.764 102.486 241.764 102.319 241.723 102.194C241.723 102.153 241.682 102.111 241.682 102.069C237.662 79.3398 236.502 56.1522 238.325 33.0895C253.244 60.8563 256.766 92.6196 255.233 123.8C255.191 123.842 255.191 123.758 255.233 124.05ZM257.885 124.05C257.885 123.8 257.885 123.883 257.885 123.8C256.393 92.578 259.874 60.8563 274.793 33.0895C276.616 56.1522 275.456 79.3398 271.436 102.028C271.436 102.069 271.394 102.111 271.394 102.153C271.353 102.278 271.353 102.486 271.353 102.611C270.068 109.813 268.494 116.973 266.629 124.05H257.885ZM284.904 124.05H268.535C270.4 116.973 271.975 109.729 273.259 102.527C276.367 93.2024 280.967 84.2521 285.567 75.5932C287.929 71.1804 290.333 66.7677 293.026 62.5631C293.938 61.1477 296.342 56.2771 298.289 55.7776C298.082 55.8608 298.289 56.0273 298.372 56.7767C298.497 57.9007 298.331 59.0663 298.248 60.1903C297.916 64.0202 297.253 67.8501 296.549 71.6384C294.808 81.2131 292.695 90.7463 290.499 100.238C288.675 108.147 286.769 115.89 284.904 124.05ZM297.046 124.05H286.81C287.722 119.845 288.675 116.057 289.628 112.102C289.753 112.019 289.877 111.852 289.96 111.686C292.488 107.023 295.057 102.361 298.082 97.9898C298.828 96.9074 299.906 94.7843 301.149 94.2015C301.397 94.0766 301.522 93.9934 301.563 93.9517C301.563 93.9934 301.605 93.9934 301.646 94.035C301.895 94.3264 301.729 95.6169 301.729 95.9916C301.646 105.317 299.035 114.85 297.046 124.05Z" fill="#476CFC"/>
  <path d="M171.385 101.557C174.202 98.9288 175.754 96.0062 174.851 95.029C173.948 94.0518 170.932 95.3901 168.114 98.0182C165.296 100.646 163.744 103.569 164.648 104.546C165.551 105.523 168.567 104.185 171.385 101.557Z" fill="#476CFC"/>
  <path d="M161.319 126.295C164.649 124.364 166.81 121.862 166.146 120.707C165.482 119.552 162.245 120.182 158.915 122.113C155.586 124.044 153.424 126.546 154.088 127.701C154.752 128.856 157.989 128.226 161.319 126.295Z" fill="#476CFC"/>
  <path d="M155.906 150.29C159.236 148.358 161.397 145.857 160.733 144.702C160.069 143.547 156.832 144.177 153.502 146.108C150.172 148.039 148.011 150.541 148.675 151.696C149.339 152.85 152.576 152.221 155.906 150.29Z" fill="#476CFC"/>
  <path d="M159.454 171.439C162.783 169.508 164.945 167.006 164.281 165.851C163.617 164.697 160.38 165.326 157.05 167.257C153.72 169.189 151.559 171.69 152.223 172.845C152.886 174 156.124 173.371 159.454 171.439Z" fill="#476CFC"/>
  <path d="M181.054 120.592C182.171 119.87 181.389 116.652 179.308 113.403C177.228 110.155 174.636 108.106 173.52 108.828C172.404 109.55 173.185 112.768 175.266 116.016C177.346 119.265 179.938 121.313 181.054 120.592Z" fill="#476CFC"/>
  <path d="M170.167 142.757C171.284 142.035 170.502 138.817 168.422 135.568C166.341 132.32 163.75 130.272 162.633 130.993C161.517 131.715 162.298 134.933 164.379 138.181C166.46 141.43 169.051 143.478 170.167 142.757Z" fill="#476CFC"/>
  <path d="M177.066 185.602C178.051 184.708 176.757 181.661 174.176 178.797C171.596 175.933 168.706 174.337 167.722 175.232C166.738 176.127 168.032 179.174 170.612 182.038C173.193 184.901 176.082 186.497 177.066 185.602Z" fill="#476CFC"/>
  <path d="M173.45 161.528C174.17 160.408 172.136 157.801 168.905 155.706C165.675 153.611 162.473 152.821 161.753 153.941C161.033 155.062 163.068 157.668 166.298 159.763C169.528 161.858 172.73 162.648 173.45 161.528Z" fill="#476CFC"/>
  <path d="M148.233 151.942C148.564 152.525 149.269 152.774 150.18 152.774C151.796 152.774 154.117 151.942 156.189 150.734C157.888 149.735 159.463 148.528 160.416 147.321C160.54 149.569 160.831 151.817 161.162 154.065C161.038 154.523 161.121 155.064 161.411 155.605C161.908 158.686 162.571 161.725 163.358 164.764C161.701 164.555 159.131 165.471 156.852 166.803C153.62 168.677 150.885 171.424 151.838 173.131C152.169 173.714 152.874 173.964 153.786 173.964C155.402 173.964 157.722 173.131 159.795 171.924C161.659 170.842 163.358 169.468 164.27 168.177C165.182 171.508 166.218 174.838 167.254 178.085C167.295 178.252 167.42 178.376 167.544 178.46C168.124 179.709 169.077 181.124 170.279 182.414C172.268 184.621 174.713 186.411 176.371 186.411C176.785 186.411 177.158 186.286 177.49 186.036C178.899 184.746 177.117 181.249 174.63 178.46C173.346 177.044 171.937 175.879 170.652 175.171C168.994 174.255 168.083 174.422 167.544 174.755C165.803 169.218 164.187 163.598 163.068 157.895C163.897 158.727 164.933 159.56 166.011 160.268C167.627 161.308 169.284 162.058 170.693 162.432C171.274 162.557 171.771 162.641 172.144 162.641C173.138 162.641 173.636 162.266 173.884 161.891C174.216 161.35 174.34 160.393 173.055 158.727C172.144 157.603 170.776 156.396 169.16 155.355C167.544 154.315 165.886 153.565 164.477 153.191C163.441 152.941 162.737 152.941 162.198 153.066C161.867 150.651 161.659 148.278 161.576 145.822C161.452 142.284 161.618 138.704 162.157 135.165C162.571 136.247 163.151 137.371 163.856 138.495C165.555 141.16 167.917 143.449 169.574 143.449C169.865 143.449 170.155 143.366 170.403 143.2C172.019 142.159 170.818 138.412 168.829 135.29C167.129 132.626 164.809 130.378 163.151 130.336C164.021 126.922 165.265 123.634 167.005 120.553C168.663 117.514 170.901 114.85 172.683 111.894C173.056 113.268 173.801 114.892 174.755 116.349C176.454 119.013 178.816 121.302 180.473 121.302C180.763 121.302 181.054 121.219 181.302 121.053C182.918 120.012 181.717 116.265 179.727 113.143C178.194 110.729 176.164 108.647 174.547 108.231C175.915 104.651 176.205 100.738 175.873 96.866C175.293 90.4551 173.014 81.921 165.513 80.9219C157.515 79.8396 152.211 87.2912 151.216 94.4099C151.092 95.2424 152.377 95.5755 152.501 94.7429C153.081 90.4551 154.987 86.0423 158.8 83.7111C162.488 81.4631 167.254 81.588 170.32 84.7935C172.683 87.2912 173.719 90.8297 174.257 94.1601C172.6 93.9936 169.989 95.5755 167.793 97.6153C166.384 98.9058 165.223 100.363 164.56 101.653C163.566 103.527 163.856 104.443 164.312 104.9C164.56 105.15 164.933 105.4 165.596 105.4C166.093 105.4 166.757 105.275 167.585 104.9C168.911 104.318 170.403 103.277 171.812 101.945C173.014 100.821 174.009 99.6135 174.713 98.4479C174.837 101.32 174.589 104.234 173.677 106.94C173.511 107.482 173.263 108.023 173.055 108.564C172.765 108.814 172.6 109.188 172.558 109.605C171.066 112.477 168.994 115.016 167.254 117.764C166.757 118.513 166.301 119.304 165.886 120.095C165.43 119.721 164.602 119.429 162.985 119.762C161.576 120.054 159.877 120.72 158.22 121.677C154.987 123.55 152.252 126.298 153.205 128.005C153.537 128.588 154.241 128.837 155.153 128.837C156.769 128.837 159.09 128.005 161.162 126.756C162.032 126.256 162.861 125.674 163.607 125.091C163.193 126.173 162.82 127.255 162.488 128.379C160.996 133.458 160.375 138.579 160.416 143.699C158.841 143.158 155.941 144.115 153.371 145.614C151.714 146.572 150.263 147.696 149.31 148.82C147.818 150.401 147.901 151.401 148.233 151.942ZM174.464 96.2416C174.382 96.5746 174.257 96.9493 174.009 97.4072C173.387 98.5728 172.31 99.905 170.983 101.154C169.657 102.403 168.29 103.36 167.047 103.901C165.928 104.401 165.223 104.401 165.016 104.193C164.809 103.985 164.85 103.277 165.43 102.195C166.052 101.029 167.129 99.6968 168.456 98.4479C170.776 96.2832 172.931 95.2841 173.926 95.2841C174.092 95.2841 174.257 95.3257 174.34 95.409C174.423 95.6171 174.464 95.9502 174.464 96.2416ZM173.553 110.396C173.677 110.146 173.843 109.854 173.967 109.605C174.009 109.48 174.05 109.396 174.092 109.272C174.962 109.355 176.951 110.853 178.816 113.726C180.929 117.015 181.344 119.721 180.722 120.137C180.1 120.553 177.821 119.013 175.708 115.724C174.299 113.518 173.636 111.561 173.553 110.396ZM160.54 125.84C157.142 127.797 154.449 128.088 154.076 127.464C153.703 126.798 155.319 124.591 158.717 122.635C160.292 121.719 161.867 121.094 163.151 120.845C163.566 120.761 163.897 120.72 164.187 120.72C164.726 120.72 165.099 120.845 165.182 121.011C165.223 121.094 165.223 121.178 165.223 121.302C165.016 121.677 164.85 122.093 164.643 122.468C164.56 122.593 164.436 122.76 164.312 122.884C163.441 123.883 162.074 124.924 160.54 125.84ZM162.695 132.501C162.778 132.168 162.861 131.793 162.944 131.46C163.027 131.418 163.11 131.377 163.193 131.377C164.063 131.377 166.052 132.917 167.958 135.873C170.072 139.162 170.486 141.867 169.865 142.284C169.243 142.7 166.964 141.16 164.85 137.871C163.897 136.372 163.151 134.79 162.861 133.5C162.737 133.125 162.695 132.792 162.695 132.501ZM168.497 178.002C168.497 177.919 168.497 177.835 168.456 177.71C168.29 177.169 168.124 176.628 167.958 176.128C167.958 175.92 168 175.754 168.083 175.671C168.166 175.587 168.29 175.546 168.456 175.546C168.829 175.546 169.367 175.712 170.072 176.087C171.232 176.711 172.558 177.835 173.76 179.167C176.371 182.081 177.241 184.662 176.702 185.204C176.122 185.703 173.636 184.579 171.025 181.665C169.906 180.458 169.036 179.167 168.497 178.002ZM163.648 165.971C163.69 166.221 163.773 166.429 163.814 166.679C163.524 167.636 161.949 169.384 159.214 170.966C155.816 172.923 153.123 173.214 152.75 172.59C152.377 171.924 153.993 169.718 157.391 167.761C159.753 166.387 161.742 165.846 162.903 165.846C163.193 165.846 163.441 165.888 163.648 165.971ZM162.405 154.106C162.571 154.023 162.778 153.982 163.068 153.982C163.4 153.982 163.773 154.023 164.27 154.148C165.555 154.481 167.088 155.189 168.621 156.146C170.113 157.145 171.398 158.228 172.227 159.31C172.973 160.268 173.138 160.975 172.973 161.225C172.807 161.475 172.102 161.6 170.942 161.308C169.657 160.975 168.124 160.268 166.591 159.31C164.643 158.02 163.317 156.729 162.654 155.73C162.571 155.189 162.488 154.648 162.405 154.106ZM150.015 149.527C150.885 148.528 152.211 147.446 153.786 146.572C156.148 145.198 158.137 144.657 159.297 144.657C159.795 144.657 160.126 144.781 160.25 144.99C160.623 145.656 159.007 147.862 155.609 149.819C152.211 151.775 149.517 152.067 149.144 151.442C149.02 151.151 149.227 150.443 150.015 149.527Z" fill="#476CFC"/>
  <path d="M98.2535 74.6308C98.5696 73.3357 95.7986 71.5403 92.0643 70.6206C88.33 69.701 85.0466 70.0053 84.7305 71.3004C84.4144 72.5955 87.1854 74.3909 90.9197 75.3106C94.654 76.2302 97.9374 75.9259 98.2535 74.6308Z" fill="#476CFC"/>
  <path d="M84.335 90.0176C87.8851 88.5344 90.3498 86.3339 89.84 85.1027C89.3303 83.8715 86.0392 84.0758 82.4891 85.559C78.939 87.0422 76.4743 89.2427 76.984 90.4739C77.4937 91.7051 80.7849 91.5008 84.335 90.0176Z" fill="#476CFC"/>
  <path d="M92.628 109.327C93.8537 108.815 93.6503 105.509 92.1738 101.942C90.6973 98.3761 88.5068 95.9002 87.2812 96.4123C86.0556 96.9243 86.2589 100.23 87.7354 103.797C89.2119 107.363 91.4024 109.839 92.628 109.327Z" fill="#476CFC"/>
  <path d="M82.4024 117.268C84.7386 114.2 85.7778 111.056 84.7234 110.246C83.669 109.436 80.9204 111.266 78.5841 114.334C76.2479 117.402 75.2088 120.546 76.2631 121.356C77.3175 122.166 80.0662 120.336 82.4024 117.268Z" fill="#476CFC"/>
  <path d="M80.0902 140.748C82.7194 137.929 84.0656 134.905 83.0969 133.993C82.1283 133.082 79.2116 134.627 76.5824 137.446C73.9532 140.264 72.607 143.288 73.5756 144.2C74.5443 145.112 77.4609 143.566 80.0902 140.748Z" fill="#476CFC"/>
  <path d="M91.5461 134.657C92.708 134.012 92.1428 130.749 90.2838 127.368C88.4247 123.987 85.9757 121.769 84.8138 122.414C83.6519 123.059 84.217 126.322 86.0761 129.703C87.9352 133.084 90.3841 135.302 91.5461 134.657Z" fill="#476CFC"/>
  <path d="M83.0465 147.737C83.7095 147.362 85.8644 149.028 87.7707 152.483C89.677 155.938 89.9256 158.644 89.2626 159.019C89.0139 159.144 88.3094 158.935 87.4392 158.103C86.4446 157.187 85.45 155.855 84.5798 154.273C82.6321 150.818 82.3834 148.112 83.0465 147.737Z" fill="#476CFC"/>
  <path d="M73.184 144.615C73.4326 144.823 73.7227 144.948 74.0542 144.99C75.7118 145.198 78.3226 143.408 80.4775 141.118C81.3063 140.202 82.0522 139.286 82.591 138.371C82.3838 140.993 82.218 143.658 82.0108 146.28C81.9694 146.572 81.8865 147.071 81.845 147.571C81.2234 149.111 82.1351 152.108 83.5855 154.773C84.4972 156.438 85.6161 157.936 86.6936 158.894C87.6053 159.685 88.3098 160.018 88.8485 160.101C89.2629 160.143 89.553 160.059 89.8016 159.935C91.5007 159.019 90.5476 155.189 88.7656 151.9C87.2323 149.069 84.9945 146.613 83.3369 146.572C83.3783 146.28 83.3783 145.947 83.4198 145.656C83.5027 144.448 83.5855 143.2 83.6684 141.992C83.8342 139.536 84.0414 137.08 84.2072 134.666C84.3729 132.418 84.5387 130.211 84.7044 127.963C84.9945 128.629 85.2846 129.295 85.6576 129.961C87.1494 132.667 89.2629 135.082 90.9205 135.29C91.2521 135.332 91.5836 135.29 91.8737 135.123C93.5727 134.166 92.6196 130.378 90.8376 127.089C89.926 125.424 88.8071 123.925 87.7296 122.968C86.6107 121.927 85.7819 121.719 85.2017 121.76C85.2432 121.178 85.2846 120.553 85.326 119.97C85.7405 114.059 85.9891 108.064 86.735 102.153C86.9008 102.777 87.108 103.36 87.3981 103.985C88.6413 106.982 90.589 109.688 92.2052 109.896C92.4538 109.938 92.7439 109.896 92.9511 109.813C94.7331 109.063 94.1943 105.192 92.7854 101.737C91.5007 98.6145 89.4287 95.7837 87.7296 95.8253C87.771 95.6588 87.771 95.4923 87.8125 95.2841C89.2629 88.1239 92.2052 81.0885 97.7168 76.0513C102.275 71.8884 108.367 69.4323 114.542 70.8893C120.178 72.2214 125.275 76.5925 125.979 82.5872C126.062 83.4197 127.388 83.2532 127.264 82.4206C126.394 75.1355 119.639 70.0567 112.718 69.2657C107.58 68.6413 102.648 70.5563 98.587 73.6785C98.3384 73.1789 97.8825 72.6377 96.9294 72.0549C95.7276 71.264 94.0286 70.5979 92.1637 70.14C90.2989 69.682 88.4755 69.5155 87.0251 69.6404C84.9531 69.8486 84.3315 70.5979 84.1657 71.2223C84 71.8468 84.2072 72.8042 85.9891 73.9282C87.1909 74.7192 88.8899 75.3853 90.7548 75.8432C91.5007 76.0097 92.2052 76.1762 92.9097 76.2595C93.8628 76.3844 94.7745 76.426 95.5619 76.3427C95.1889 76.7174 94.8574 77.0921 94.4844 77.5084C92.661 79.6315 91.2106 81.9627 90.0088 84.4189C89.5944 84.0442 88.8071 83.7528 87.3152 83.836C85.8648 83.9193 84.0828 84.3772 82.3423 85.1266C78.9028 86.542 75.7947 88.9565 76.5407 90.7465C76.7893 91.371 77.4523 91.704 78.364 91.8289C79.9802 92.037 82.3838 91.4959 84.6216 90.58C85.9891 89.9972 87.3152 89.2895 88.3512 88.4985C86.9422 92.5366 86.072 96.8244 85.5747 101.071C85.2017 103.901 84.9531 106.774 84.7044 109.646C83.0883 109.105 80.3117 111.353 78.2812 114.059C77.1208 115.599 76.2091 117.181 75.7533 118.555C75.0902 120.553 75.5461 121.427 76.0434 121.802C76.2091 121.927 76.4578 122.052 76.7479 122.093C77.328 122.177 78.1154 122.01 79.2343 121.219C80.4361 120.428 81.7622 119.138 82.9225 117.597C83.4198 116.931 83.8342 116.265 84.2486 115.641C83.8756 120.803 83.5856 126.007 83.2126 131.127C83.1711 131.876 83.0883 132.626 83.0468 133.333C82.5081 133.125 81.6378 133.167 80.2703 133.875C78.9856 134.541 77.5767 135.706 76.2506 137.122C73.6398 139.828 71.775 143.283 73.184 144.615ZM95.6448 75.2188C94.3187 75.3436 92.6196 75.1771 90.8791 74.7192C89.1386 74.3029 87.5638 73.6368 86.445 72.9291C85.4089 72.2631 85.036 71.6803 85.1188 71.3888C85.2017 71.0974 85.8233 70.7644 87.0251 70.6395C87.8125 70.5563 88.7242 70.5979 89.7188 70.7228C90.3818 70.806 91.0863 70.9309 91.7908 71.0974C93.5313 71.5137 95.106 72.1798 96.2249 72.8875C97.1781 73.5119 97.551 74.0115 97.551 74.3445C97.3024 74.5527 97.0952 74.7192 96.888 74.9273C96.5564 75.0522 96.1835 75.1771 95.6448 75.2188ZM84.1243 89.4976C80.5189 90.9963 77.7839 90.9547 77.4938 90.247C77.2037 89.5393 79.0685 87.5827 82.7153 86.0424C84.3729 85.3347 86.0305 84.9184 87.3566 84.8351C88.5584 84.7519 89.2215 85.0017 89.3458 85.2931C89.6359 86.0008 87.7296 87.999 84.1243 89.4976ZM87.0666 98.9059C87.1494 98.2814 87.2738 97.657 87.3981 97.0326C87.4395 96.9909 87.481 96.9493 87.5224 96.9077C87.6053 96.866 87.6467 96.8661 87.771 96.8661C88.5999 96.9909 90.3404 98.8226 91.7079 102.111C93.1998 105.733 93.1583 108.481 92.4538 108.772C91.7493 109.063 89.8016 107.149 88.2683 103.527C87.5638 101.903 87.1494 100.238 87.0666 98.9059ZM84.8702 125.049C84.9116 124.341 84.9531 123.675 85.036 122.968C85.036 122.968 85.0774 122.926 85.0774 122.884C85.1603 122.843 85.2432 122.843 85.3675 122.843C85.699 122.884 86.2377 123.176 86.9422 123.759C87.9368 124.674 88.9314 126.007 89.8016 127.589C91.7079 131.044 91.9565 133.75 91.2935 134.124C90.6304 134.499 88.4755 132.834 86.5693 129.379C85.6161 127.713 85.0774 126.215 84.8702 125.049ZM81.9279 116.89C80.8505 118.305 79.6073 119.512 78.5298 120.262C77.4938 120.928 76.8307 121.053 76.5821 120.886C76.3335 120.72 76.292 120.012 76.665 118.846C77.0794 117.597 77.9082 116.099 79.0271 114.642C81.3892 111.52 83.7928 110.187 84.3729 110.645C84.4144 110.687 84.4558 110.77 84.4972 110.812C84.4558 111.353 84.4144 111.936 84.3729 112.477C84.3315 112.56 84.3315 112.602 84.3315 112.685C83.8756 113.976 83.0468 115.474 81.9279 116.89ZM87.3981 158.103C86.4035 157.187 85.4089 155.855 84.5387 154.273C82.6739 150.901 82.4252 148.237 83.0054 147.779C83.1297 147.737 83.254 147.696 83.3783 147.696C84.2486 147.82 86.1134 149.486 87.771 152.483C89.6773 155.938 89.926 158.644 89.2629 159.019C88.9728 159.144 88.3098 158.936 87.3981 158.103ZM84.5801 147.696C84.5801 147.696 84.6216 147.696 84.5801 147.696C84.6216 147.696 84.5801 147.696 84.5801 147.696ZM84 147.363C84 147.363 84.0414 147.363 84.0414 147.404C84.0414 147.363 84.0414 147.363 84 147.363ZM85.2017 148.195L85.1603 148.153C85.1603 148.153 85.2017 148.153 85.2017 148.195ZM85.8648 148.82C85.8233 148.778 85.7819 148.736 85.7819 148.736C85.7819 148.736 85.8233 148.778 85.8648 148.82ZM87.6053 151.151C87.6467 151.192 87.6882 151.276 87.7296 151.317C87.6882 151.276 87.6467 151.192 87.6053 151.151ZM86.9837 150.235C87.0251 150.277 87.0666 150.318 87.0666 150.36C87.0666 150.318 87.0251 150.277 86.9837 150.235ZM86.4035 149.486L86.445 149.527C86.445 149.486 86.4449 149.486 86.4035 149.486ZM82.8811 151.9C82.8811 151.859 82.8396 151.817 82.8396 151.775C82.8396 151.817 82.8396 151.859 82.8811 151.9ZM83.3783 153.232C83.3369 153.149 83.3369 153.066 83.2955 153.024C83.3369 153.066 83.3783 153.149 83.3783 153.232ZM76.9551 137.829C78.1983 136.497 79.5244 135.457 80.6847 134.832C81.4721 134.416 82.0937 134.249 82.4252 134.333C82.5495 134.333 82.6324 134.374 82.6739 134.416C82.7982 134.499 82.8396 134.749 82.7982 135.04C82.7982 135.082 82.7982 135.082 82.7982 135.123C82.7567 135.457 82.6324 135.914 82.3838 136.456C81.845 137.663 80.8505 139.078 79.6487 140.41C76.9551 143.283 74.4686 144.365 73.9299 143.824C73.3912 143.283 74.2614 140.702 76.9551 137.829Z" fill="#476CFC"/>
  <path d="M147.862 87.2271C150.679 84.599 152.231 81.6764 151.328 80.6992C150.425 79.722 147.409 81.0604 144.591 83.6884C141.773 86.3165 140.221 89.2391 141.125 90.2163C142.028 91.1935 145.044 89.8552 147.862 87.2271Z" fill="#476CFC"/>
  <path d="M157.376 76.9559C157.901 75.7308 155.462 73.5012 151.93 71.9758C148.397 70.4505 145.109 70.2071 144.584 71.4322C144.06 72.6573 146.499 74.8869 150.031 76.4123C153.564 77.9376 156.852 78.181 157.376 76.9559Z" fill="#476CFC"/>
  <path d="M166.313 64.6653C170.118 64.1126 173.049 62.5947 172.859 61.2749C172.669 59.9551 169.431 59.3333 165.625 59.8861C161.82 60.4388 158.889 61.9568 159.079 63.2765C159.269 64.5963 162.508 65.2181 166.313 64.6653Z" fill="#476CFC"/>
  <path d="M169.091 39.9543C171.346 36.8264 172.303 33.6566 171.229 32.8744C170.154 32.0922 167.454 33.9937 165.198 37.1216C162.943 40.2495 161.986 43.4192 163.061 44.2015C164.136 44.9837 166.835 43.0822 169.091 39.9543Z" fill="#476CFC"/>
  <path d="M159.247 21.4041C159.486 17.5489 158.606 14.3564 157.281 14.2734C155.956 14.1904 154.688 17.2483 154.449 21.1035C154.209 24.9587 155.089 28.1513 156.414 28.2343C157.739 28.3173 159.007 25.2593 159.247 21.4041Z" fill="#476CFC"/>
  <path d="M139.556 81.3925C140.587 80.5529 139.461 77.4397 137.04 74.4389C134.619 71.4381 131.82 69.6861 130.789 70.5256C129.758 71.3652 130.884 74.4784 133.305 77.4792C135.726 80.4801 138.524 82.2321 139.556 81.3925Z" fill="#476CFC"/>
  <path d="M152.079 66.7222C153.366 66.3967 153.649 63.0965 152.711 59.351C151.772 55.6055 149.968 52.8331 148.68 53.1586C147.393 53.4841 147.11 56.7843 148.049 60.5298C148.988 64.2753 150.792 67.0478 152.079 66.7222Z" fill="#476CFC"/>
  <path d="M163.067 53.8455C163.917 52.821 162.211 49.9862 159.257 47.5138C156.302 45.0413 153.219 43.8676 152.369 44.8921C151.519 45.9166 153.225 48.7515 156.179 51.2239C159.134 53.6963 162.217 54.87 163.067 53.8455Z" fill="#476CFC"/>
  <path d="M159.992 36.5391C160.187 35.22 157.261 33.691 153.458 33.124C149.654 32.5569 146.413 33.1666 146.218 34.4857C146.023 35.8048 148.949 37.3338 152.752 37.9008C156.556 38.4678 159.797 37.8581 159.992 36.5391Z" fill="#476CFC"/>
  <path d="M143.345 24.3876C147 23.1875 149.628 21.1871 149.216 19.9196C148.803 18.6521 145.506 18.5975 141.851 19.7976C138.197 20.9977 135.568 22.9981 135.981 24.2655C136.393 25.533 139.69 25.5877 143.345 24.3876Z" fill="#476CFC"/>
  <path d="M143.768 14.0453C145.03 13.631 145.084 10.3189 143.889 6.64754C142.695 2.9762 140.704 0.335859 139.442 0.750176C138.18 1.16449 138.126 4.47658 139.32 8.14792C140.515 11.8193 142.506 14.4596 143.768 14.0453Z" fill="#476CFC"/>
  <path d="M130.247 73.386C130.745 74.7598 131.698 76.3417 132.899 77.8404C134.806 80.2132 137.251 82.1698 138.908 82.1698C139.033 82.1698 139.116 82.1282 139.198 82.1282C138.867 86.7907 140.359 91.5365 143.342 95.2415C143.881 95.9075 144.793 94.9501 144.254 94.3256C143.467 93.3265 142.804 92.2442 142.224 91.1202C143.881 90.9953 146.243 89.5382 148.232 87.6649C150.968 85.1255 153.04 81.7952 151.713 80.3798C150.387 78.9644 146.948 80.7961 144.213 83.3355C142.845 84.626 141.602 86.1246 140.939 87.4568C139.82 82.711 140.773 77.549 143.798 73.4693C143.964 73.2611 144.13 73.053 144.296 72.8448C144.503 73.2611 144.876 73.6774 145.415 74.177C146.492 75.1345 148.025 76.0919 149.807 76.8829C151.713 77.7155 153.786 78.2567 155.36 78.2567C156.603 78.2567 157.515 77.9236 157.847 77.1327C158.095 76.5499 158.054 75.5508 156.521 74.1353C155.443 73.1779 153.91 72.2204 152.128 71.4294C150.387 70.6801 148.605 70.1805 147.155 70.0973C148.523 69.0982 150.014 68.2656 151.631 67.5995C154.2 66.5588 156.645 65.5597 158.675 63.6864C159.173 64.852 161.203 65.3515 163.607 65.3515C164.519 65.3515 165.472 65.2683 166.383 65.1434C170.072 64.6022 173.677 63.0619 173.387 61.147C173.097 59.232 169.243 58.7741 165.555 59.3153C163.98 59.565 162.488 59.9397 161.286 60.4809C163.897 56.2763 164.601 51.0726 163.897 46.1604C163.856 45.7441 163.731 45.3278 163.69 44.9115C165.347 44.8699 167.71 42.7884 169.533 40.249C171.729 37.21 173.097 33.5466 171.563 32.4227C169.989 31.2987 166.964 33.7548 164.809 36.7937C163.897 38.0426 163.151 39.3748 162.654 40.6237C161.328 36.4191 159.339 32.3394 157.018 28.6344C157.557 28.4262 158.178 27.8434 158.758 26.4696C159.297 25.1375 159.67 23.3474 159.794 21.3909C159.919 19.4343 159.753 17.6442 159.38 16.2288C158.841 14.189 157.971 13.731 157.349 13.6894C156.728 13.6478 155.816 14.0224 154.987 15.979C154.449 17.3112 154.076 19.1012 153.951 21.0578C153.868 22.1818 153.91 23.2642 154.034 24.2633C151.258 20.5583 148.067 17.1446 144.503 14.189C145.705 13.0233 145.415 9.60972 144.42 6.44588C143.26 2.90738 141.146 -0.381345 139.323 0.201467C138.743 0.409614 137.997 1.07569 137.955 3.19879C137.914 4.65582 138.245 6.44588 138.825 8.27758C139.737 11.0251 141.229 13.6478 142.679 14.3555C144.254 15.6044 145.746 16.9781 147.155 18.3519C145.622 18.2686 143.591 18.6017 141.685 19.2261C139.861 19.8089 138.245 20.6415 137.085 21.5157C135.427 22.8063 135.303 23.7637 135.469 24.3882C135.8 25.3456 137.002 25.7619 138.577 25.7619C140.027 25.7619 141.809 25.4289 143.508 24.8877C145.332 24.3049 146.948 23.4723 148.108 22.5981C148.937 21.9737 149.351 21.4325 149.6 20.9746C152.335 24.0135 154.78 27.3439 156.811 30.924C157.432 31.9647 158.012 33.0471 158.551 34.1295C158.51 34.1295 158.51 34.0878 158.468 34.0878C157.184 33.4218 155.443 32.8806 153.537 32.6308C151.631 32.3394 149.807 32.3394 148.398 32.5892C146.326 32.9638 145.787 33.7964 145.705 34.4209C145.622 35.0453 145.912 36.0028 147.777 36.9603C149.061 37.6263 150.802 38.1675 152.708 38.4173C153.661 38.5422 154.656 38.6254 155.567 38.6254C157.598 38.6254 159.339 38.2508 160.126 37.4182C161.908 41.6228 163.027 46.1187 162.861 50.6147C162.115 49.4491 160.955 48.2002 159.587 47.0346C158.095 45.7857 156.562 44.8282 155.194 44.3287C153.247 43.5793 152.335 43.9956 151.921 44.4952C150.677 45.9939 152.957 49.1993 155.816 51.5722C157.308 52.8211 158.841 53.7786 160.209 54.2781C160.996 54.5695 161.576 54.6944 162.074 54.6944C162.156 54.6944 162.239 54.6944 162.322 54.6528C161.825 56.6094 161.038 58.4827 159.919 60.1479C158.303 62.604 156.148 64.1443 153.62 65.3099C153.993 63.728 153.786 61.3967 153.247 59.1488C152.791 57.2754 152.086 55.5686 151.299 54.3614C150.139 52.6129 149.186 52.4048 148.564 52.5713C147.942 52.7378 147.196 53.3623 147.031 55.4437C146.906 56.9008 147.114 58.7325 147.569 60.5642C148.025 62.4375 148.73 64.1443 149.517 65.3515C149.89 65.9343 150.263 66.3506 150.595 66.6421C148.481 67.5995 146.575 68.8068 144.917 70.3054C144.461 70.5136 144.213 70.805 144.088 71.0964C142.265 73.0114 140.815 75.301 139.944 78.0069C139.944 78.0485 139.944 78.0485 139.903 78.0901C139.364 76.7996 138.535 75.3842 137.417 74.0105C135.054 71.0964 131.905 68.8068 130.413 70.014C129.957 70.5136 129.501 71.3878 130.247 73.386ZM143.633 13.4813C143.425 13.3147 143.218 13.1482 143.011 12.9817C142.804 12.8152 142.597 12.8152 142.431 12.8568C141.602 11.9826 140.607 10.3174 139.861 7.94454C139.323 6.23774 138.991 4.53093 139.033 3.19879C139.033 1.99153 139.364 1.32546 139.654 1.2422C139.696 1.2422 139.737 1.2422 139.779 1.2422C140.566 1.2422 142.265 3.28205 143.425 6.82055C144.544 10.4839 144.296 13.1899 143.633 13.4813ZM148.688 20.1003C148.771 20.3917 148.44 21.0162 147.487 21.7655C146.409 22.5565 144.917 23.3058 143.177 23.8886C139.447 25.0959 136.753 24.8461 136.505 24.1384C136.422 23.847 136.753 23.2225 137.707 22.4732C138.784 21.6823 140.276 20.9329 142.016 20.3501C145.746 19.1012 148.44 19.351 148.688 20.1003ZM156.479 27.6769C156.438 27.6769 156.396 27.6353 156.355 27.6353C156.272 27.552 156.23 27.4271 156.148 27.3022C155.982 27.0108 155.775 26.761 155.609 26.5113C155.526 26.3448 155.485 26.1782 155.402 25.9285C155.029 24.6379 154.904 22.9311 155.029 21.1411C155.153 19.351 155.485 17.6442 155.982 16.4369C156.438 15.313 156.935 14.855 157.267 14.855C157.557 14.855 158.012 15.4378 158.344 16.6035C158.717 17.894 158.841 19.6008 158.717 21.3909C158.593 23.1809 158.261 24.8877 157.764 26.095C157.267 27.219 156.769 27.6769 156.479 27.6769ZM159.463 36.4607C159.339 37.21 156.728 37.9177 152.832 37.3349C151.05 37.0852 149.434 36.5856 148.232 35.9612C147.155 35.3783 146.699 34.8372 146.741 34.5458C146.782 34.2543 147.362 33.8381 148.564 33.6299C149.186 33.505 149.89 33.4634 150.677 33.4634C151.506 33.4634 152.418 33.5466 153.371 33.6715C155.153 33.9213 156.769 34.4209 157.971 35.0453C159.09 35.6281 159.504 36.1693 159.463 36.4607ZM163.193 42.6635C163.317 41.4979 164.104 39.6245 165.638 37.4598C167.668 34.6706 169.699 33.2552 170.61 33.2552C170.735 33.2552 170.818 33.2969 170.9 33.3385C171.522 33.7964 170.942 36.4607 168.621 39.6245C166.425 42.7051 164.187 44.0789 163.441 43.7875C163.4 43.4128 163.317 43.0382 163.193 42.6635ZM162.571 53.5288C162.322 53.6953 161.659 53.7369 160.623 53.3206C159.38 52.8627 157.93 51.9469 156.562 50.7812C153.537 48.2835 152.335 45.8273 152.832 45.2445C152.915 45.1196 153.122 45.078 153.413 45.078C153.744 45.078 154.241 45.1613 154.863 45.411C156.106 45.869 157.557 46.7848 158.924 47.9504C160.292 49.1161 161.452 50.3649 162.156 51.5306C162.447 52.0301 162.654 52.4464 162.737 52.7794C162.654 53.0292 162.612 53.279 162.571 53.5288ZM159.629 63.1868C159.587 62.8954 160.043 62.3542 161.12 61.7714C162.322 61.147 163.938 60.689 165.72 60.4393C166.674 60.3144 167.544 60.2311 168.331 60.2311C170.735 60.2311 172.227 60.7723 172.309 61.3551C172.434 62.1044 170.113 63.5615 166.218 64.1027C162.364 64.6438 159.753 63.9361 159.629 63.1868ZM150.387 64.852C149.641 63.728 149.02 62.1461 148.564 60.3976C148.108 58.6492 147.942 56.9424 148.067 55.6102C148.15 54.403 148.523 53.7786 148.813 53.6953C148.854 53.6953 148.854 53.6953 148.896 53.6953C149.227 53.6953 149.766 54.1116 150.387 55.0274C151.133 56.1514 151.755 57.7333 152.211 59.4818C153.04 62.8121 152.791 65.3099 152.252 65.976C152.128 66.0176 152.004 66.1009 151.838 66.1425C151.506 66.1009 150.968 65.7262 150.387 64.852ZM145.083 71.929C145.29 71.6792 145.539 71.4711 145.787 71.2629C145.995 71.2213 146.243 71.1797 146.575 71.1797C146.741 71.1797 146.906 71.1797 147.072 71.1797C148.398 71.2629 150.056 71.7208 151.672 72.4285C153.33 73.1362 154.78 74.0105 155.775 74.9263C156.686 75.7589 156.976 76.3833 156.852 76.6747C156.562 77.3824 153.827 77.3824 150.222 75.8422C148.564 75.1345 147.114 74.2602 146.119 73.3444C145.497 72.8032 145.207 72.3036 145.083 71.929ZM141.726 89.9545C141.643 89.7048 141.519 89.455 141.436 89.2052C141.602 88.1645 142.721 86.2079 144.959 84.1264C147.279 81.9617 149.434 80.9626 150.429 80.9626C150.677 80.9626 150.843 81.0042 150.926 81.1291C151.423 81.6703 150.346 84.2097 147.487 86.874C144.876 89.2885 142.514 90.2043 141.726 89.9545ZM131.118 70.9715C131.2 70.8883 131.325 70.8883 131.449 70.8883C132.361 70.8883 134.474 72.1788 136.588 74.8014C137.707 76.2168 138.577 77.6739 139.033 78.9227C139.447 80.0884 139.406 80.7961 139.157 80.9626C138.577 81.4205 136.132 80.1716 133.687 77.1327C132.568 75.7173 131.698 74.2602 131.242 73.0114C130.827 71.8457 130.869 71.138 131.118 70.9715Z" fill="#476CFC"/>
  <path d="M123.931 89.7359C125.035 86.0359 124.899 82.7263 123.627 82.3436C122.356 81.9609 120.43 84.65 119.327 88.3499C118.223 92.0499 118.359 95.3595 119.631 95.7422C120.903 96.1249 122.828 93.4358 123.931 89.7359Z" fill="#476CFC"/>
  <path d="M115.455 86.3465C115.618 85.0232 112.657 83.5659 108.841 83.0915C105.025 82.6172 101.8 83.3055 101.637 84.6289C101.474 85.9522 104.435 87.4095 108.251 87.8839C112.067 88.3582 115.292 87.6699 115.455 86.3465Z" fill="#476CFC"/>
  <path d="M108.015 101.579C110.955 99.0905 112.646 96.2463 111.79 95.2264C110.935 94.2066 107.858 95.3973 104.917 97.8859C101.977 100.375 100.286 103.219 101.141 104.239C101.997 105.258 105.074 104.068 108.015 101.579Z" fill="#476CFC"/>
  <path d="M122.72 116.625C123.554 115.588 121.807 112.779 118.816 110.35C115.826 107.922 112.726 106.794 111.891 107.831C111.056 108.868 112.804 111.677 115.794 114.106C118.785 116.534 121.885 117.662 122.72 116.625Z" fill="#476CFC"/>
  <path d="M127.632 141.851C128.466 140.813 126.719 138.004 123.729 135.576C120.738 133.147 117.638 132.02 116.803 133.057C115.969 134.094 117.716 136.903 120.706 139.331C123.697 141.76 126.797 142.888 127.632 141.851Z" fill="#476CFC"/>
  <path d="M112.939 178.55C113.645 174.753 113.159 171.477 111.854 171.232C110.549 170.987 108.919 173.867 108.213 177.664C107.507 181.46 107.993 184.737 109.298 184.982C110.603 185.227 112.233 182.347 112.939 178.55Z" fill="#476CFC"/>
  <path d="M129.333 160.562C130.168 159.525 128.42 156.716 125.43 154.288C122.439 151.859 119.339 150.731 118.504 151.769C117.67 152.806 119.417 155.615 122.408 158.043C125.398 160.472 128.498 161.6 129.333 160.562Z" fill="#476CFC"/>
  <path d="M113.398 128.617C114.502 124.917 114.366 121.607 113.094 121.225C111.822 120.842 109.897 123.531 108.794 127.231C107.69 130.931 107.826 134.24 109.098 134.623C110.369 135.006 112.295 132.317 113.398 128.617Z" fill="#476CFC"/>
  <path d="M114.226 149.241C117.03 146.598 118.566 143.667 117.658 142.694C116.75 141.722 113.74 143.076 110.937 145.72C108.133 148.363 106.596 151.294 107.505 152.266C108.413 153.238 111.422 151.884 114.226 149.241Z" fill="#476CFC"/>
  <path d="M108.743 167.7C112.504 166.895 115.328 165.185 115.051 163.881C114.775 162.577 111.502 162.172 107.741 162.977C103.981 163.782 101.157 165.492 101.434 166.796C101.71 168.1 104.983 168.505 108.743 167.7Z" fill="#476CFC"/>
  <path d="M104.556 176.064C104.574 174.73 101.472 173.607 97.627 173.555C93.7823 173.504 90.6512 174.542 90.6334 175.876C90.6155 177.209 93.7178 178.332 97.5624 178.384C101.407 178.436 104.538 177.397 104.556 176.064Z" fill="#476CFC"/>
  <path d="M108.159 88.4142C110.065 88.664 112.054 88.6224 113.546 88.2477C112.552 90.121 111.889 92.2441 111.474 94.4089C110.936 94.2424 110.148 94.284 108.946 94.7419C107.579 95.2831 106.046 96.2406 104.595 97.4894C103.145 98.7383 101.902 100.112 101.156 101.361C100.078 103.151 100.327 104.109 100.741 104.608C100.948 104.816 101.238 105.024 101.653 105.108C102.192 105.191 102.938 105.149 103.974 104.733C105.341 104.192 106.874 103.234 108.325 101.985C109.278 101.194 110.107 100.32 110.811 99.446C110.687 101.444 110.687 103.359 110.728 105.066C110.894 110.311 111.806 115.473 112.883 120.635C112.303 120.635 111.433 120.968 110.438 122.384C109.609 123.549 108.822 125.215 108.283 127.088C107.206 130.668 107.082 134.581 108.946 135.164C108.988 135.164 109.029 135.206 109.112 135.206C110.936 135.539 112.883 132.292 113.919 128.795C114.085 128.254 114.209 127.712 114.334 127.213C114.79 129.253 115.245 131.293 115.66 133.332C116.24 136.163 116.737 139.036 117.11 141.95C115.453 141.742 112.8 143.365 110.604 145.405C107.869 147.944 105.838 151.275 107.164 152.69C107.372 152.94 107.662 153.065 108.035 153.148C109.651 153.439 112.427 151.816 114.665 149.693C115.867 148.569 116.862 147.362 117.525 146.238C117.773 150.817 117.483 155.396 116.199 159.892C115.908 160.933 115.535 161.973 115.163 163.014C113.919 161.89 110.728 161.849 107.703 162.515C104.056 163.306 100.575 165.054 100.99 166.969C101.114 167.552 101.611 168.259 103.269 168.551C103.435 168.593 103.601 168.593 103.766 168.634C105.217 168.801 107.04 168.676 108.905 168.301C110.563 167.926 112.179 167.385 113.422 166.678C111.35 170.424 108.491 173.713 104.802 175.919C104.637 175.336 104.056 174.67 102.523 174.129C101.156 173.63 99.3737 173.338 97.426 173.338C93.6963 173.297 89.9252 174.254 89.8838 176.169C89.8838 177.543 91.7072 178.459 94.1107 178.917C95.1053 179.125 96.2242 179.208 97.3431 179.208C99.2493 179.25 101.073 179 102.44 178.542C102.523 178.5 102.606 178.5 102.689 178.459C102.73 178.459 102.772 178.459 102.813 178.417C102.896 178.375 102.938 178.334 103.02 178.334C103.228 178.251 103.393 178.167 103.559 178.084C105.3 177.251 106.916 176.211 108.366 174.962C108.076 175.794 107.869 176.71 107.662 177.626C106.957 181.289 107.289 185.203 109.154 185.577C111.06 185.952 112.718 182.413 113.422 178.708C114.085 175.212 113.836 171.548 112.179 170.841C114.251 168.093 115.867 164.887 116.944 161.599C117.69 159.309 118.188 157.02 118.478 154.73C119.265 155.979 120.55 157.353 122 158.56C123.824 160.017 125.896 161.224 127.512 161.516C128.465 161.682 129.252 161.557 129.667 161.016C130.868 159.517 128.589 156.353 125.688 153.981C123.285 152.024 120.384 150.567 118.809 151.025C119.016 146.446 118.519 141.825 117.732 137.246C118.478 138.12 119.389 139.036 120.343 139.827C121.834 141.034 123.409 141.991 124.777 142.491C125.191 142.657 125.564 142.741 125.854 142.782C127.097 143.032 127.719 142.657 128.009 142.283C129.211 140.784 126.932 137.62 124.031 135.247C121.42 133.124 118.271 131.626 116.779 132.458C115.328 125.506 113.463 118.596 112.593 111.768C113.339 112.767 114.375 113.767 115.453 114.641C117.276 116.098 119.348 117.305 120.964 117.596C121.917 117.763 122.705 117.638 123.119 117.097C124.321 115.598 122.042 112.434 119.141 110.062C116.654 108.063 113.671 106.606 112.137 107.147C111.93 103.775 111.972 100.404 112.427 97.0732C113.008 93.0767 114.126 88.7056 117.069 85.7916C118.188 84.6676 119.555 83.9183 121.047 83.4603C121.006 83.502 120.964 83.5436 120.923 83.5852C120.094 84.7508 119.307 86.416 118.768 88.2893C117.69 91.8695 117.566 95.7826 119.431 96.3655C119.472 96.3655 119.514 96.4071 119.597 96.4071C121.42 96.7401 123.368 93.493 124.404 89.9962C124.942 88.1645 125.233 86.3328 125.15 84.8757C125.108 84.168 125.025 83.5852 124.86 83.1689C125.978 83.2938 127.097 83.6685 128.092 84.2097C131.532 86.083 133.313 90.2043 132.692 94.0342C132.568 94.8668 133.852 95.1166 133.977 94.284C134.598 90.4124 133.106 86.2495 129.915 83.8766C126.766 81.5038 122.29 81.1291 118.768 82.9191C117.525 83.5436 116.447 84.4178 115.535 85.3753C114.582 84.0431 111.723 83.0024 108.781 82.6694C105.092 82.2114 101.238 82.7526 100.99 84.6676C100.783 86.3744 103.601 87.7065 106.833 88.331C107.33 88.2893 107.745 88.3726 108.159 88.4142ZM121.876 84.1264C122.29 83.5436 122.663 83.2106 122.953 83.0024C123.202 83.0024 123.409 82.9608 123.658 82.9608C123.906 83.2106 124.114 83.7934 124.155 84.7925C124.197 86.1246 123.948 87.8314 123.451 89.5382C122.332 93.2849 120.55 95.3663 119.845 95.1582C119.141 94.9501 118.809 92.2025 119.928 88.4559C120.384 86.7907 121.089 85.2088 121.876 84.1264ZM118.892 152.107C119.058 151.899 119.431 151.857 120.011 151.982C121.171 152.191 122.995 153.065 125.067 154.73C128.092 157.186 129.377 159.642 128.879 160.225C128.423 160.808 125.771 160.1 122.746 157.602C119.68 155.146 118.436 152.732 118.892 152.107ZM103.683 176.46C103.228 176.71 102.772 176.918 102.316 177.127C102.15 177.21 102.026 177.335 101.984 177.46C100.741 177.876 99.0836 178.084 97.3431 178.042C93.4477 178.001 90.9612 176.835 90.9612 176.086C90.9612 175.336 93.4891 174.254 97.3845 174.296C98.462 174.296 99.498 174.421 100.41 174.587C101.031 174.712 101.611 174.837 102.109 175.045C103.269 175.461 103.766 175.961 103.766 176.252C103.766 176.336 103.725 176.419 103.683 176.46ZM112.386 178.459C111.682 182.33 110.148 184.578 109.402 184.453C108.656 184.328 108.035 181.664 108.781 177.793C109.195 175.586 109.858 173.921 110.521 172.922C110.811 172.589 111.101 172.256 111.391 171.923C111.516 171.84 111.682 171.798 111.764 171.798C112.469 171.923 113.09 174.587 112.386 178.459ZM108.656 167.135C106.916 167.51 105.217 167.635 103.891 167.469C102.689 167.302 102.067 166.969 102.026 166.678C101.86 165.928 104.098 164.346 107.91 163.514C110.148 163.056 111.972 163.014 113.173 163.264C114.002 163.43 114.499 163.68 114.582 164.013C114.665 164.721 112.469 166.345 108.656 167.135ZM116.986 142.949C117.069 142.949 117.152 143.032 117.235 143.074C117.276 143.365 117.276 143.656 117.317 143.948C117.235 144.281 117.11 144.656 116.862 145.114C116.24 146.279 115.163 147.611 113.878 148.86C111.018 151.566 108.449 152.482 107.952 151.899C107.455 151.358 108.491 148.819 111.35 146.154C113.836 143.781 116.116 142.782 116.986 142.949ZM117.235 133.416C117.4 133.208 117.773 133.166 118.353 133.291C119.514 133.499 121.337 134.373 123.409 136.038C126.434 138.494 127.719 140.951 127.222 141.533C127.014 141.783 126.31 141.825 125.191 141.408C123.948 140.951 122.497 140.076 121.089 138.952C118.022 136.413 116.737 133.998 117.235 133.416ZM112.925 121.759C113.049 121.801 113.09 121.843 113.173 121.926C113.339 122.592 113.463 123.3 113.629 123.966C113.629 125.131 113.463 126.672 112.925 128.462C111.806 132.208 110.024 134.332 109.319 134.082C108.615 133.874 108.283 131.126 109.402 127.379C109.9 125.631 110.645 124.091 111.391 123.008C112.013 122.051 112.635 121.676 112.925 121.759ZM112.262 108.438C112.262 108.355 112.303 108.271 112.345 108.188C112.51 107.98 112.883 107.938 113.463 108.063C114.624 108.271 116.447 109.146 118.519 110.811C121.544 113.267 122.829 115.723 122.332 116.306C121.876 116.889 119.224 116.181 116.199 113.683C113.919 111.852 112.635 110.02 112.345 108.938C112.303 108.771 112.262 108.605 112.262 108.438ZM111.018 97.198C110.977 97.3229 110.894 97.4062 110.853 97.5311C110.19 98.6967 109.029 99.9456 107.662 101.111C106.294 102.277 104.844 103.193 103.601 103.651C102.482 104.109 101.736 104.067 101.57 103.817C101.363 103.567 101.446 102.901 102.067 101.819C102.73 100.653 103.891 99.4044 105.258 98.2388C106.626 97.0732 108.076 96.1573 109.319 95.6994C110.107 95.408 110.728 95.3247 111.06 95.3663C111.143 95.3663 111.226 95.408 111.267 95.4496C111.184 96.074 111.101 96.6569 111.018 97.198ZM108.325 87.3319C104.429 86.8323 102.109 85.4585 102.192 84.7092C102.275 83.9599 104.885 83.1689 108.781 83.6685C109.195 83.7101 109.609 83.7934 109.982 83.8766C113.008 84.4594 114.831 85.5418 114.872 86.2495C114.707 86.4577 114.541 86.6658 114.417 86.8739C113.505 87.3319 111.267 87.7065 108.325 87.3319Z" fill="#476CFC"/>
  <path d="M107.579 95.2423V105.65C107.579 105.816 107.662 105.983 107.745 106.066C107.745 106.066 107.745 106.108 107.787 106.108L107.828 106.149C107.911 106.232 108.077 106.316 108.242 106.316C110.563 106.316 112.884 106.316 115.204 106.316C115.246 114.6 115.743 143.116 116.738 151.317C116.655 151.692 116.862 152.15 117.359 152.15H118.976H138.204H166.798C167.337 152.15 167.544 151.609 167.378 151.234C168.373 143.033 168.911 114.558 168.953 106.316C171.315 106.316 173.636 106.316 175.998 106.316C176.039 106.316 176.081 106.316 176.081 106.316C176.122 106.316 176.164 106.316 176.205 106.274C176.246 106.274 176.288 106.232 176.329 106.191C176.371 106.191 176.371 106.149 176.412 106.149C176.454 106.108 176.454 106.108 176.495 106.066C176.536 106.024 176.536 105.983 176.578 105.941C176.578 105.899 176.619 105.858 176.619 105.816C176.619 105.775 176.619 105.775 176.619 105.733C176.619 100.987 176.619 99.7799 176.619 95.0341C176.619 94.9925 176.619 94.9508 176.619 94.9508C176.619 94.9092 176.619 94.8676 176.578 94.826C176.578 94.7843 176.536 94.7427 176.495 94.7011C176.495 94.6594 176.454 94.6594 176.454 94.6178C176.412 94.5762 176.412 94.5762 176.371 94.5346C176.329 94.4929 176.288 94.4929 176.246 94.4513C176.205 94.4513 176.164 94.4097 176.122 94.4097C176.081 94.4097 176.081 94.4097 176.039 94.4097C170.983 94.4097 165.928 94.4097 160.872 94.4097C143.094 94.4097 125.979 94.4097 108.201 94.4097C107.662 94.3264 107.455 94.826 107.579 95.2423ZM116.531 106.274C118.81 106.274 121.089 106.274 123.368 106.274C138.121 106.274 152.874 106.274 167.668 106.274C167.627 114.392 167.129 142.741 166.176 150.776H138.37H118.893H118.022C117.028 142.741 116.531 114.392 116.531 106.274ZM108.905 95.6585C113.671 95.6585 117.898 95.6585 122.705 95.6585C140.235 95.6585 157.805 95.6585 175.335 95.6585C175.335 99.6133 175.335 101.029 175.335 104.984C170.528 104.984 165.721 104.984 160.913 104.984C143.591 104.984 126.269 104.984 108.947 104.984V95.6585H108.905Z" fill="#476CFC"/>
  <path d="M69.9519 153.107C117.111 153.107 164.271 153.107 211.43 153.107C257.926 153.107 304.422 153.107 350.919 153.107C377.565 153.107 404.17 153.107 430.816 153.107C432.142 153.107 432.142 151.026 430.816 151.026C383.657 151.026 336.497 151.026 289.338 151.026C242.842 151.026 196.346 151.026 149.849 151.026C123.203 151.026 96.5982 151.026 69.9519 151.026C68.5844 151.026 68.5844 153.107 69.9519 153.107Z" fill="#476CFC"/>
  <path d="M69.9519 208.266C117.111 208.266 164.271 208.266 211.43 208.266C257.926 208.266 304.422 208.266 350.919 208.266C377.565 208.266 404.17 208.266 430.816 208.266C432.142 208.266 432.142 206.185 430.816 206.185C383.657 206.185 336.497 206.185 289.338 206.185C242.842 206.185 196.346 206.185 149.849 206.185C123.203 206.185 96.5982 206.185 69.9519 206.185C68.5844 206.185 68.5844 208.266 69.9519 208.266Z" fill="#476CFC"/>
  <path d="M69.9519 263.467C117.111 263.467 164.271 263.467 211.43 263.467C257.926 263.467 304.422 263.467 350.919 263.467C377.565 263.467 404.17 263.467 430.816 263.467C432.142 263.467 432.142 261.385 430.816 261.385C383.657 261.385 336.497 261.385 289.338 261.385C242.842 261.385 196.346 261.385 149.849 261.385C123.203 261.385 96.5982 261.385 69.9519 261.385C68.5844 261.385 68.5844 263.467 69.9519 263.467Z" fill="#476CFC"/>
  <path d="M71.1125 262.26C71.1125 233.743 71.1125 205.227 71.1125 176.711C71.1125 168.593 71.1125 160.434 71.1125 152.316C71.1125 150.984 69.0405 150.984 69.0405 152.316C69.0405 180.832 69.0405 209.349 69.0405 237.865C69.0405 245.982 69.0405 254.142 69.0405 262.26C69.0405 263.633 71.1125 263.633 71.1125 262.26Z" fill="#476CFC"/>
  <path d="M431.811 262.426C431.811 233.743 431.811 205.061 431.811 176.336C431.811 168.26 431.811 160.184 431.811 152.067C431.811 150.734 429.739 150.734 429.739 152.067C429.739 180.749 429.739 209.432 429.739 238.156C429.739 246.232 429.739 254.308 429.739 262.426C429.739 263.758 431.811 263.758 431.811 262.426Z" fill="#476CFC"/>
  <path d="M250.343 183.58C252.975 183.58 255.108 181.437 255.108 178.793C255.108 176.149 252.975 174.005 250.343 174.005C247.711 174.005 245.577 176.149 245.577 178.793C245.577 181.437 247.711 183.58 250.343 183.58Z" fill="#476CFC"/>
  <path d="M250.343 239.239C252.975 239.239 255.108 237.095 255.108 234.451C255.108 231.807 252.975 229.664 250.343 229.664C247.711 229.664 245.577 231.807 245.577 234.451C245.577 237.095 247.711 239.239 250.343 239.239Z" fill="#476CFC"/>
  <path d="M118.147 262.426C119.018 268.837 122.292 296.646 122.292 296.646C122.374 297.27 122.913 297.603 123.41 297.645C123.576 297.77 129.999 298.103 130.538 297.437C130.787 297.27 130.953 297.02 130.994 296.687C131.408 293.607 134.144 270.169 135.138 262.468H118.147V262.426Z" fill="#476CFC"/>
  <path d="M365.506 262.426C366.377 268.837 369.65 296.646 369.65 296.646C369.733 297.27 370.272 297.603 370.769 297.645C370.935 297.77 377.358 298.103 377.897 297.437C378.146 297.27 378.311 297.02 378.353 296.687C378.767 293.607 381.502 270.169 382.497 262.468H365.506V262.426Z" fill="#476CFC"/>
  <path d="M402.055 151.192H401.765V80.88L391.985 74.5108V74.4275H379.429V77.1334L375.906 74.9687V74.4691H363.35V77.0501L359.828 74.8854V74.4691H347.271V151.275H347.022V153.024H402.055V151.192ZM358.087 150.693H349.053V115.766H358.087V150.693ZM358.087 113.268H349.053V110.728H358.087V113.268ZM358.087 107.981H349.053V105.441H358.087V107.981ZM358.087 102.902H349.053V76.1759H358.087V102.902ZM363.35 151.192H359.828V76.9253L363.35 79.09V151.192ZM374.125 150.693H365.091V115.766H374.125V150.693ZM374.125 113.268H365.091V110.728H374.125V113.268ZM374.125 107.981H365.091V105.441H374.125V107.981ZM374.125 102.902H365.091V76.1759H374.125V102.902ZM379.429 151.192H375.906V77.0501L379.429 79.2149V151.192ZM390.203 150.693H381.169V115.766H390.203V150.693ZM390.203 113.268H381.169V110.728H390.203V113.268ZM390.203 107.981H381.169V105.441H390.203V107.981ZM390.203 102.902H381.169V76.1759H390.203V102.902ZM399.983 151.192H391.944V76.6755L399.983 81.8792V151.192Z" fill="#476CFC"/>
  <path d="M344.536 151.192V76.6755L347.645 78.6737V77.4248C347.603 77.0918 347.603 76.8004 347.562 76.4673L344.536 74.5108V74.4275H331.98V151.234V152.982H348.846V151.234H344.536V151.192ZM342.796 150.693H333.762V115.766H342.796V150.693ZM342.796 113.268H333.762V110.728H342.796V113.268ZM342.796 107.981H333.762V105.441H342.796V107.981ZM342.796 102.902H333.762V76.1759H342.796V102.902Z" fill="#476CFC"/>
</svg>
