<svg width="106" height="126" viewBox="0 0 106 126" fill="none" xmlns="http://www.w3.org/2000/svg">
<path d="M87.8739 13.0588L36.9053 3.18506L18.0025 100.758L68.9711 110.632L87.8739 13.0588Z" fill="white" stroke="#476CFC" stroke-width="2" stroke-miterlimit="10"/>
<path d="M77.06 24.1059L42.7842 17.4659L38.6449 38.8323L72.9207 45.4723L77.06 24.1059Z" fill="#A1B3FB" stroke="#476CFC" stroke-width="2" stroke-miterlimit="10"/>
<path d="M36.3647 50.6908L70.5959 57.3102" stroke="#476CFC" stroke-width="2" stroke-miterlimit="10"/>
<path d="M34.5962 59.8037L68.8273 66.4231" stroke="#476CFC" stroke-width="2" stroke-miterlimit="10"/>
<path d="M32.8281 68.9167L67.1046 75.5361" stroke="#476CFC" stroke-width="2" stroke-miterlimit="10"/>
<path d="M31.0601 78.0298L65.3365 84.6492" stroke="#476CFC" stroke-width="2" stroke-miterlimit="10"/>
<path d="M29.2915 87.1428L63.568 93.7622" stroke="#476CFC" stroke-width="2" stroke-miterlimit="10"/>
<g style="mix-blend-mode:multiply">
<path d="M36.9089 3.17627L18.0024 100.744L39.4479 104.916H57.4476V7.16605L36.9089 3.17627Z" fill="#C9D5FF"/>
</g>
<path d="M52.9135 1H1V100.382H52.9135V1Z" fill="white" stroke="#476CFC" stroke-width="2" stroke-miterlimit="10"/>
<path d="M44.4352 13.8761H9.52393V35.6385H44.4352V13.8761Z" fill="#476CFC" stroke="#476CFC" stroke-width="2" stroke-miterlimit="10"/>
<path d="M9.52393 47.7439H44.3898" stroke="#476CFC" stroke-width="2" stroke-miterlimit="10"/>
<path d="M9.52393 57.0382H44.3898" stroke="#476CFC" stroke-width="2" stroke-miterlimit="10"/>
<path d="M9.52393 66.2872H44.3898" stroke="#476CFC" stroke-width="2" stroke-miterlimit="10"/>
<path d="M9.52393 75.5817H44.3898" stroke="#476CFC" stroke-width="2" stroke-miterlimit="10"/>
<path d="M9.52393 84.876H44.3898" stroke="#476CFC" stroke-width="2" stroke-miterlimit="10"/>
<ellipse cx="53.9499" cy="122.587" rx="51.9694" ry="2.94161" fill="#E3E8FC"/>
</svg>
