<svg width="53" height="53" viewBox="0 0 53 53" fill="none" xmlns="http://www.w3.org/2000/svg">
<path d="M0.000258336 26.5597C0.0535664 19.3165 2.55905 13.0333 7.64464 7.89149C13.1887 2.30168 20.0121 -0.36521 27.8804 0.0401575C34.9171 0.402855 40.8769 3.24043 45.7386 8.36086C50.5896 13.4813 53.0525 19.6685 52.9992 26.6344C52.9352 34.2617 49.9926 40.8329 44.3206 46.028C39.4802 50.4657 33.7229 52.866 27.1661 52.994C11.76 53.314 -0.0637114 40.8649 0.000258336 26.5597ZM28.6054 34.4964C28.5947 34.4964 28.5947 34.4964 28.6054 34.4964C28.5947 32.0429 28.6054 29.5787 28.5947 27.1251C28.5947 26.7411 28.6693 26.5811 29.1171 26.5917C30.2792 26.6344 31.452 26.5917 32.6248 26.6131C33.0619 26.6237 33.2858 26.5597 33.3178 26.037C33.4564 24.2235 33.6483 22.41 33.8296 20.5966C33.8616 20.2339 33.6483 20.2659 33.4138 20.2659C32.0811 20.2659 30.7484 20.2445 29.4157 20.2765C28.9252 20.2872 28.8079 20.1379 28.8399 19.6685C28.8826 19.0071 28.8399 18.3457 28.8506 17.6843C28.8613 16.6816 29.3623 16.1909 30.3539 16.1909C31.3561 16.1909 32.3476 16.1802 33.3498 16.1909C33.627 16.1909 33.7656 16.1375 33.7549 15.8175C33.7443 14.2494 33.7443 12.6919 33.7549 11.1238C33.7549 10.8571 33.6696 10.7504 33.3924 10.7611C31.42 10.8144 29.437 10.6224 27.4646 10.8784C26.2385 11.0384 25.119 11.4971 24.2021 12.3719C22.8907 13.6306 22.3257 15.1988 22.2724 16.9696C22.2404 17.9083 22.2617 18.8577 22.2724 19.7965C22.2724 20.1272 22.1764 20.2659 21.8139 20.2552C21.0676 20.2339 20.3106 20.2659 19.5643 20.2445C19.2125 20.2339 19.1165 20.3405 19.1165 20.6926C19.1379 22.5167 19.1272 24.3515 19.1165 26.1757C19.1165 26.5064 19.2018 26.6024 19.5323 26.5917C20.268 26.5704 21.0036 26.6237 21.7393 26.5704C22.2084 26.5384 22.283 26.6984 22.283 27.1358C22.2617 32.0215 22.2724 36.9073 22.2617 41.7824C22.2617 42.1771 22.3257 42.3371 22.7841 42.3371C24.5753 42.3051 26.3664 42.3157 28.1576 42.3371C28.5414 42.3371 28.616 42.2197 28.616 41.857C28.5947 39.4141 28.6054 36.9606 28.6054 34.4964Z" fill="white"/>
</svg>
