<svg width="54" height="54" viewBox="0 0 54 54" fill="none" xmlns="http://www.w3.org/2000/svg">
<path d="M31.86 39.5172C33.7284 39.2688 35.5104 38.9448 37.2276 38.2536C40.8996 36.774 42.9948 34.02 43.7616 30.1968C44.1612 28.1772 44.3016 26.1468 43.9452 24.1056C43.632 22.302 42.8544 20.7036 41.6556 19.3104C41.4396 19.062 41.4072 18.8676 41.5044 18.5544C42.1848 16.3512 41.9688 14.1912 41.1912 12.0528C41.1048 11.8152 40.9428 11.7936 40.7376 11.7828C39.3876 11.7396 38.1564 12.1932 36.9468 12.7332C35.91 13.1976 34.9272 13.7916 33.9768 14.4072C33.804 14.5152 33.6744 14.5908 33.4476 14.526C30.3048 13.7052 27.1188 13.4892 23.9004 13.8672C22.8096 13.9968 21.708 14.1696 20.6496 14.4828C20.3364 14.5692 20.0988 14.5368 19.818 14.3532C18.306 13.3488 16.7292 12.474 14.9688 12.0096C14.3856 11.8584 13.7916 11.7612 13.1868 11.7828C12.906 11.7936 12.7548 11.8692 12.6576 12.15C11.8908 14.3208 11.6964 16.5132 12.4308 18.738C12.4956 18.9216 12.474 19.0188 12.3444 19.1592C10.2708 21.5676 9.53643 24.3756 9.77403 27.5076C9.91443 29.3976 10.2168 31.2444 11.0052 32.9832C12.312 35.856 14.5908 37.6056 17.5176 38.5776C18.954 39.0528 20.4336 39.3336 21.9888 39.5172C21.2328 40.2624 20.7576 41.1372 20.5092 42.1416C20.4984 42.174 20.4768 42.1956 20.4768 42.228C20.52 43.0812 19.9584 43.3296 19.2564 43.524C17.5176 43.9992 15.8652 43.9884 14.31 42.9516C13.5216 42.4224 12.9492 41.688 12.4632 40.8888C11.7612 39.7548 10.8324 38.8692 9.55803 38.3724C8.98563 38.1564 8.40243 38.07 7.78683 38.1564C7.51683 38.1996 7.21443 38.2428 7.12803 38.5452C7.05243 38.8044 7.25763 38.9988 7.43043 39.1608C7.61403 39.3336 7.79763 39.5172 8.01363 39.6468C9.52563 40.5432 10.4112 41.9256 11.0592 43.4916C11.9448 45.63 13.608 46.71 15.8004 47.0772C17.1612 47.304 18.522 47.2284 19.872 46.9368C20.1744 46.872 20.2284 46.9584 20.2284 47.2284C20.2392 48.6864 20.2392 50.1444 20.2824 51.6024C20.3256 52.9524 19.3428 53.5032 18.198 53.1036C15.174 52.056 12.4092 50.5332 9.93603 48.5028C5.49723 44.8416 2.46243 40.2516 0.950428 34.6788C0.183628 31.8708 -0.118772 29.0088 0.0540283 26.0928C0.378028 20.6712 2.13843 15.7788 5.40003 11.448C9.35283 6.1992 14.5692 2.8404 20.952 1.3284C23.3928 0.745201 25.8768 0.550801 28.3716 0.702001C34.0416 1.026 39.1392 2.916 43.6104 6.4476C48.3192 10.1736 51.4404 14.958 53.0172 20.7576C53.784 23.598 54.0432 26.4924 53.8488 29.4084C53.4276 35.3916 51.2676 40.6944 47.3472 45.2412C44.1828 48.9132 40.2732 51.5376 35.6832 53.1252C34.7328 53.46 33.9444 53.1252 33.696 52.326C33.6312 52.1208 33.642 51.9048 33.642 51.6996C33.642 49.3236 33.642 46.9476 33.6528 44.5716C33.6636 43.362 33.48 42.1848 32.9724 41.0724C32.7132 40.5 32.3568 40.0032 31.86 39.5172Z" fill="white"/>
<path d="M15.2387 43.9236C15.5087 43.9452 15.8003 44.0856 15.8327 44.4096C15.8543 44.6688 15.5951 44.7552 15.3575 44.7444C15.0335 44.7228 14.7419 44.5932 14.7095 44.2584C14.6771 43.9776 14.9363 43.9128 15.2387 43.9236Z" fill="white"/>
<path d="M19.4401 44.8416C19.2241 44.7876 18.9217 44.7768 18.9541 44.4528C18.9865 44.118 19.2673 44.0208 19.5697 44.01C19.8289 43.9992 20.0989 44.0856 20.0773 44.3772C20.0449 44.7012 19.7317 44.7768 19.4401 44.8416Z" fill="white"/>
<path d="M17.3881 44.2692C17.7553 44.28 18.0253 44.3556 18.0145 44.6688C18.0037 45.0036 17.6905 45.0684 17.4205 45.0684C17.1613 45.0684 16.8589 44.9712 16.8805 44.6688C16.9021 44.3772 17.1829 44.2584 17.3881 44.2692Z" fill="white"/>
<path d="M13.2193 42.7464C13.5865 42.7572 13.8889 43.092 13.8781 43.3944C13.8673 43.6212 13.7269 43.7184 13.5325 43.7184C13.2409 43.7292 12.8413 43.2972 12.8737 43.0272C12.9169 42.822 13.0465 42.7248 13.2193 42.7464Z" fill="white"/>
<path d="M12.4741 41.8176C12.4633 41.9904 12.4201 42.1524 12.2042 42.1632C11.9666 42.1848 11.6426 41.85 11.6318 41.5692C11.621 41.364 11.7074 41.2128 11.9342 41.202C12.1934 41.202 12.4633 41.5152 12.4741 41.8176Z" fill="white"/>
<path d="M10.9619 39.8628C11.1455 39.906 11.3291 40.0464 11.3507 40.3488C11.3615 40.5324 11.2751 40.6512 11.1023 40.6404C10.8107 40.608 10.6163 40.4244 10.5947 40.1112C10.5839 39.9276 10.6919 39.8304 10.9619 39.8628Z" fill="white"/>
<path d="M9.75254 38.88C9.94694 38.9448 10.1629 38.988 10.1953 39.2364C10.2169 39.3984 10.1089 39.4848 9.95774 39.4848C9.70934 39.4848 9.51494 39.3552 9.47174 39.1176C9.46094 38.988 9.61214 38.9124 9.75254 38.88Z" fill="white"/>
</svg>
