<svg width="598" height="477" viewBox="0 0 598 477" fill="none" xmlns="http://www.w3.org/2000/svg">
<path d="M458.441 0H102.452V15.7704H458.441V0Z" fill="#476CFC"/>
<path d="M441.641 282.787H440.647V284.688H440.69V382.118H285.717H283.816V383.069C283.816 383.587 284.248 384.019 284.767 384.019H441.641C442.159 384.019 442.591 383.587 442.591 383.069V283.737C442.548 283.219 442.159 282.787 441.641 282.787Z" fill="#476CFC"/>
<path d="M441.639 23.9795H292.583C292.885 24.5412 292.929 25.2757 292.713 25.8806H440.646V301.149H440.602V303.05H441.596C442.114 303.05 442.546 302.618 442.546 302.1V24.93C442.546 24.4116 442.157 23.9795 441.639 23.9795Z" fill="#476CFC"/>
<path d="M299.754 382.118H120.636V269.781H118.735V383.026C118.735 383.544 119.167 383.976 119.686 383.976H300.661C301.179 383.976 301.611 383.544 301.611 383.026V382.075H299.754V382.118Z" fill="#476CFC"/>
<path d="M302.734 23.9796H119.686C119.167 23.9796 118.735 24.4116 118.735 24.9301V273.67H120.636V25.8806H302.604C302.388 25.2757 302.432 24.5412 302.734 23.9796Z" fill="#476CFC"/>
<path d="M449.242 392.229H112.041C111.523 392.229 111.091 391.797 111.091 391.279V16.6783C111.091 16.1598 111.523 15.7278 112.041 15.7278H449.242C449.761 15.7278 450.192 16.1598 450.192 16.6783V391.279C450.192 391.841 449.804 392.229 449.242 392.229ZM112.991 390.372H448.335V17.6721H112.991V390.372Z" fill="#476CFC"/>
<path d="M130.095 17.4554C133.119 17.4554 186.245 17.4554 189.268 17.4554C190.391 17.4554 190.391 15.684 189.268 15.684C186.245 15.684 133.119 15.684 130.095 15.684C128.972 15.7272 128.972 17.4554 130.095 17.4554Z" fill="#476CFC"/>
<path d="M441.682 117.867H283.21H281.31V118.818C281.31 119.336 281.741 119.768 282.26 119.768H441.682V117.867Z" fill="#476CFC"/>
<path d="M297.248 117.824H119.081V119.725H298.198C298.717 119.725 299.149 119.293 299.149 118.775V117.824H297.248Z" fill="#476CFC"/>
<path d="M440.862 126.077H119.081V127.978H440.862V126.077Z" fill="#476CFC"/>
<path d="M282.261 128.021H280.361V170.147H282.261V128.021Z" fill="#476CFC"/>
<path d="M281.311 176.628C283.792 176.628 285.803 174.616 285.803 172.135C285.803 169.653 283.792 167.641 281.311 167.641C278.83 167.641 276.819 169.653 276.819 172.135C276.819 174.616 278.83 176.628 281.311 176.628Z" fill="#476CFC"/>
<path d="M544.394 419.363H0.475113C0.21596 419.363 0 419.665 0 420.054C0 420.443 0.21596 420.745 0.475113 420.745H544.351C544.61 420.745 544.826 420.443 544.826 420.054C544.826 419.708 544.653 419.363 544.394 419.363Z" fill="#476CFC"/>
<path d="M265.978 443.385L244.771 472.377H445.355L422.722 443.385H265.978Z" fill="white"/>
<path d="M422.29 336.19H266.841V421.523V422.819V437.596H422.29V336.19Z" fill="white"/>
<path d="M273.147 453.885H263.083V457.514H273.147V453.885Z" fill="#476CFC"/>
<path d="M288.178 453.885H278.114V457.514H288.178V453.885Z" fill="#476CFC"/>
<path d="M303.209 453.885H293.145V457.514H303.209V453.885Z" fill="#476CFC"/>
<path d="M318.241 453.885H308.177V457.514H318.241V453.885Z" fill="#476CFC"/>
<path d="M333.27 453.885H323.207V457.514H333.27V453.885Z" fill="#476CFC"/>
<path d="M348.302 453.885H338.238V457.514H348.302V453.885Z" fill="#476CFC"/>
<path d="M363.289 453.885H353.226V457.514H363.289V453.885Z" fill="#476CFC"/>
<path d="M378.32 453.885H368.256V457.514H378.32V453.885Z" fill="#476CFC"/>
<path d="M393.351 453.885H383.288V457.514H393.351V453.885Z" fill="#476CFC"/>
<path d="M408.382 453.885H398.318V457.514H408.382V453.885Z" fill="#476CFC"/>
<path d="M280.663 448.829H270.599V451.379H280.663V448.829Z" fill="#476CFC"/>
<path d="M295.694 448.829H285.63V451.379H295.694V448.829Z" fill="#476CFC"/>
<path d="M310.724 448.829H300.66V451.379H310.724V448.829Z" fill="#476CFC"/>
<path d="M325.755 448.829H315.691V451.379H325.755V448.829Z" fill="#476CFC"/>
<path d="M340.787 448.829H330.723V451.379H340.787V448.829Z" fill="#476CFC"/>
<path d="M355.817 448.829H345.753V451.379H355.817V448.829Z" fill="#476CFC"/>
<path d="M370.805 448.829H360.741V451.379H370.805V448.829Z" fill="#476CFC"/>
<path d="M385.836 448.829H375.772V451.379H385.836V448.829Z" fill="#476CFC"/>
<path d="M400.865 448.829H390.802V451.379H400.865V448.829Z" fill="#476CFC"/>
<path d="M423.715 453.885H413.651V457.514H423.715V453.885Z" fill="#476CFC"/>
<path d="M416.847 448.829H406.783V451.379H416.847V448.829Z" fill="#476CFC"/>
<path d="M288.265 443.601H278.201V446.151H288.265V443.601Z" fill="#476CFC"/>
<path d="M303.252 443.601H293.188V446.151H303.252V443.601Z" fill="#476CFC"/>
<path d="M318.283 443.601H308.22V446.151H318.283V443.601Z" fill="#476CFC"/>
<path d="M333.314 443.601H323.25V446.151H333.314V443.601Z" fill="#476CFC"/>
<path d="M348.345 443.601H338.281V446.151H348.345V443.601Z" fill="#476CFC"/>
<path d="M363.376 443.601H353.312V446.151H363.376V443.601Z" fill="#476CFC"/>
<path d="M378.407 443.601H368.343V446.151H378.407V443.601Z" fill="#476CFC"/>
<path d="M393.437 443.601H383.373V446.151H393.437V443.601Z" fill="#476CFC"/>
<path d="M408.468 443.601H398.405V446.151H408.468V443.601Z" fill="#476CFC"/>
<path d="M243.863 469.741L243.474 469.223L265.502 438.978C265.545 438.935 265.632 438.935 265.675 438.935H422.938C423.024 438.935 423.067 438.978 423.11 439.022L446.65 469.266L446.261 469.785L422.808 439.626H265.804L243.863 469.741Z" fill="#476CFC"/>
<path d="M243.777 470.433L242.827 469.136L265.244 438.633C265.373 438.546 265.546 438.503 265.719 438.503H422.982C423.154 438.503 423.327 438.546 423.457 438.676L447.342 469.223L446.392 470.476L422.679 440.102H265.935L243.777 470.433Z" fill="#476CFC"/>
<path d="M447.169 469.05H242.956C242.783 469.05 242.654 469.309 242.654 469.612V476.438C242.654 476.741 242.783 477 242.956 477H447.169C447.341 477 447.471 476.741 447.471 476.438V469.612C447.471 469.309 447.341 469.05 447.169 469.05Z" fill="#476CFC"/>
<path d="M265.546 334.894V421.523V422.819V438.892H423.586V422.819V421.523V334.894H265.546ZM422.29 437.596H266.842V422.819V421.523V336.19H422.29V437.596Z" fill="#476CFC"/>
<path d="M416.978 340.856H272.414V431.849H416.978V340.856Z" fill="#476CFC"/>
<path d="M417.366 461.532H272.716V465.161H417.366V461.532Z" fill="#476CFC"/>
<path d="M176.829 314.371C157.954 314.457 139.079 314.5 120.247 314.371C119.254 314.371 119.254 315.883 120.247 315.883C139.122 316.012 157.997 315.969 176.829 315.883C177.779 315.883 177.779 314.371 176.829 314.371Z" fill="#476CFC"/>
<path d="M178.254 314.846C177.217 309.272 173.719 303.915 167.758 303.007C165.167 302.618 163.007 303.31 160.761 304.52C157.435 306.291 153.894 306.939 150.525 304.822C147.76 303.094 146.421 299.94 144.435 297.477C142.664 295.273 140.331 293.761 137.653 292.897C131.607 290.953 125.819 293.156 120.031 294.841C119.081 295.101 119.513 296.57 120.42 296.31C126.078 294.668 131.693 292.465 137.567 294.452C140.979 295.619 143.052 297.995 145.039 300.89C146.378 302.835 147.717 304.822 149.79 306.118C151.691 307.285 153.937 307.846 156.183 307.674C158.774 307.501 160.588 306.118 162.878 305.124C170.004 301.927 175.663 308.927 176.829 315.235C176.958 316.229 178.427 315.84 178.254 314.846Z" fill="#476CFC"/>
<path d="M318.111 182.202C349.9 182.202 381.689 182.202 413.436 182.202C414.429 182.202 414.429 180.69 413.436 180.69C381.646 180.69 349.857 180.69 318.111 180.69C317.16 180.69 317.16 182.202 318.111 182.202Z" fill="#476CFC"/>
<path d="M318.672 181.77C320.875 179.869 321.955 177.665 323.121 175.073C324.589 171.789 326.792 168.678 329.859 166.691C333.185 164.53 337.202 164.401 340.182 167.296C342.514 169.629 343.637 172.956 344.415 176.067C344.587 176.715 345.451 176.801 345.797 176.239C348.259 172.135 350.937 168.16 353.874 164.401C356.465 161.074 359.445 157.877 363.29 155.976C366.831 154.247 371.496 153.902 374.908 156.062C378.666 158.482 379.314 163.105 381.042 166.864C382.294 169.586 384.583 172.437 387.736 172.913C390.285 173.345 392.444 171.919 394.215 170.234C396.677 167.857 398.491 165.308 402.163 165.092C404.84 164.919 407.302 165.87 409.03 167.944C412.01 171.53 412.658 176.888 412.701 181.381C412.701 182.375 414.213 182.375 414.213 181.381C414.213 177.06 413.565 172.351 411.319 168.592C408.771 164.271 403.286 162.111 398.578 164.358C395.597 165.827 393.999 169.024 391.192 170.709C386.052 173.733 382.726 167.252 381.301 163.364C380.005 159.864 378.623 156.321 375.167 154.42C372.144 152.778 368.343 152.649 365.06 153.642C360.525 154.982 356.897 158.395 353.917 161.938C350.418 166.172 347.309 170.752 344.501 175.462C344.976 175.505 345.408 175.591 345.883 175.635C344.285 169.37 339.966 161.592 332.191 163.926C328.693 164.963 325.842 167.728 323.855 170.666C321.523 174.036 320.789 177.924 317.592 180.69C316.858 181.338 317.938 182.375 318.672 181.77Z" fill="#476CFC"/>
<path d="M198.122 206.527C197.992 206.527 197.82 206.484 197.69 206.398L154.93 170.666C154.671 170.45 154.627 170.018 154.843 169.758C155.059 169.499 155.491 169.456 155.75 169.672L198.511 205.404C198.77 205.62 198.813 206.052 198.597 206.311C198.467 206.441 198.295 206.527 198.122 206.527Z" fill="#476CFC"/>
<path d="M191.298 183.801C191.168 183.801 190.996 183.757 190.866 183.671L170.436 166.604C170.177 166.388 170.134 165.956 170.35 165.697C170.566 165.438 170.998 165.395 171.257 165.611L191.687 182.677C191.946 182.893 191.989 183.325 191.773 183.585C191.643 183.714 191.471 183.801 191.298 183.801Z" fill="#476CFC"/>
<path d="M164.044 160.987C163.914 160.987 163.742 160.944 163.612 160.858L148.106 147.896C147.847 147.68 147.804 147.248 148.02 146.989C148.236 146.729 148.668 146.686 148.927 146.902L164.433 159.864C164.692 160.08 164.735 160.512 164.519 160.771C164.389 160.944 164.217 160.987 164.044 160.987Z" fill="#476CFC"/>
<path d="M199.16 382.594C199.16 344.659 199.16 306.68 199.16 268.745C199.16 257.857 199.16 247.012 199.16 236.124C199.16 234.741 197 234.741 197 236.124C197 274.059 197 312.038 197 349.973C197 360.861 197 371.706 197 382.594C197 383.976 199.16 383.976 199.16 382.594Z" fill="#476CFC"/>
<path d="M244.21 382.767C244.21 344.745 243.908 306.766 243.778 268.745C243.735 257.857 243.735 246.969 243.735 236.124C243.735 234.741 241.575 234.741 241.575 236.124C241.575 274.145 241.878 312.124 242.007 350.146C242.05 361.034 242.05 371.922 242.05 382.767C242.05 384.149 244.21 384.149 244.21 382.767Z" fill="#476CFC"/>
<path d="M198.729 236.556C213.371 236.556 228.013 236.556 242.655 236.556C244.037 236.556 244.037 234.396 242.655 234.396C228.013 234.396 213.371 234.396 198.729 234.396C197.303 234.396 197.303 236.556 198.729 236.556Z" fill="#476CFC"/>
<path d="M198.729 245.413C213.371 245.413 228.013 245.413 242.655 245.413C244.037 245.413 244.037 243.253 242.655 243.253C228.013 243.253 213.371 243.253 198.729 243.253C197.303 243.253 197.303 245.413 198.729 245.413Z" fill="#476CFC"/>
<path d="M207.064 245.154C207.064 280.799 207.064 316.488 207.064 352.133C207.064 362.287 207.064 372.44 207.064 382.594C207.064 383.976 209.224 383.976 209.224 382.594C209.224 346.948 209.224 311.26 209.224 275.614C209.224 265.461 209.224 255.307 209.224 245.154C209.224 243.771 207.064 243.771 207.064 245.154Z" fill="#476CFC"/>
<path d="M219.59 245.154C219.59 280.799 219.59 316.488 219.59 352.133C219.59 362.287 219.59 372.44 219.59 382.594C219.59 383.976 221.749 383.976 221.749 382.594C221.749 346.948 221.749 311.26 221.749 275.614C221.749 265.461 221.749 255.307 221.749 245.154C221.749 243.771 219.59 243.771 219.59 245.154Z" fill="#476CFC"/>
<path d="M232.159 245.154C232.159 280.799 232.159 316.488 232.159 352.133C232.159 362.287 232.159 372.44 232.159 382.594C232.159 383.976 234.319 383.976 234.319 382.594C234.319 346.948 234.319 311.26 234.319 275.614C234.319 265.461 234.319 255.307 234.319 245.154C234.319 243.771 232.159 243.771 232.159 245.154Z" fill="#476CFC"/>
<path d="M234.706 234.914C234.706 224.847 234.706 214.736 234.706 204.669C234.706 203.287 232.546 203.287 232.546 204.669C232.546 214.736 232.546 224.847 232.546 234.914C232.546 236.296 234.706 236.296 234.706 234.914Z" fill="#476CFC"/>
<path d="M233.842 205.749C253.063 205.749 272.327 205.749 291.547 205.749C299.019 205.749 306.492 205.749 314.007 205.749C315.389 205.749 315.389 203.589 314.007 203.589C294.786 203.589 275.523 203.589 256.302 203.589C248.83 203.589 241.358 203.589 233.842 203.589C232.46 203.589 232.46 205.749 233.842 205.749Z" fill="#476CFC"/>
<path d="M312.927 206.052C312.927 218.193 312.927 230.334 312.927 242.518C312.927 248.956 312.927 255.394 312.927 261.831C312.927 263.214 315.087 263.214 315.087 261.831C315.087 249.69 315.087 237.549 315.087 225.365C315.087 218.927 315.087 212.49 315.087 206.052C315.087 204.669 312.927 204.626 312.927 206.052Z" fill="#476CFC"/>
<path d="M249.867 204.237C249.867 201.731 249.867 199.225 249.867 196.719C249.867 195.337 247.707 195.337 247.707 196.719C247.707 199.225 247.707 201.731 247.707 204.237C247.707 205.62 249.867 205.62 249.867 204.237Z" fill="#476CFC"/>
<path d="M248.787 197.756C265.243 197.756 281.743 197.756 298.199 197.756C299.581 197.756 299.581 195.596 298.199 195.596C281.743 195.596 265.243 195.596 248.787 195.596C247.405 195.596 247.405 197.756 248.787 197.756Z" fill="#476CFC"/>
<path d="M296.816 196.676C296.816 198.966 296.816 201.256 296.816 203.546C296.816 204.929 298.976 204.929 298.976 203.546C298.976 201.256 298.976 198.966 298.976 196.676C298.976 195.294 296.816 195.294 296.816 196.676Z" fill="#476CFC"/>
<path d="M139.812 382.421C139.812 369.761 139.812 357.145 139.812 344.486C139.812 343.103 137.653 343.103 137.653 344.486C137.653 357.145 137.653 369.761 137.653 382.421C137.653 383.804 139.812 383.804 139.812 382.421Z" fill="#476CFC"/>
<path d="M138.733 345.566C151.173 345.566 163.612 345.566 176.008 345.566C177.39 345.566 177.39 343.405 176.008 343.405C163.569 343.405 151.13 343.405 138.733 343.405C137.351 343.405 137.351 345.566 138.733 345.566Z" fill="#476CFC"/>
<path d="M174.928 344.486C174.928 357.318 174.928 370.194 174.928 383.026C174.928 384.409 177.088 384.409 177.088 383.026C177.088 370.194 177.088 357.318 177.088 344.486C177.088 343.103 174.928 343.103 174.928 344.486Z" fill="#476CFC"/>
<path d="M293.923 335.672C293.923 311.217 293.923 286.762 293.923 262.307C293.923 260.924 291.764 260.924 291.764 262.307C291.764 286.762 291.764 311.217 291.764 335.672C291.764 337.054 293.923 337.054 293.923 335.672Z" fill="#476CFC"/>
<path d="M292.843 263.387C313.143 263.387 333.443 263.387 353.744 263.387C355.126 263.387 355.126 261.227 353.744 261.227C333.443 261.227 313.143 261.227 292.843 261.227C291.461 261.227 291.461 263.387 292.843 263.387Z" fill="#476CFC"/>
<path d="M352.664 262.868C352.664 286.934 352.664 311 352.664 335.067C352.664 336.449 354.823 336.449 354.823 335.067C354.823 311 354.823 286.934 354.823 262.868C354.823 261.486 352.664 261.486 352.664 262.868Z" fill="#476CFC"/>
<path d="M342.989 261.832C342.989 247.703 342.989 233.574 342.989 219.446C342.989 218.063 340.829 218.063 340.829 219.446C340.829 233.574 340.829 247.703 340.829 261.832C340.829 263.214 342.989 263.214 342.989 261.832Z" fill="#476CFC"/>
<path d="M341.909 219.965C359.575 219.965 377.24 219.965 394.906 219.965C396.288 219.965 396.288 217.804 394.906 217.804C377.24 217.804 359.575 217.804 341.909 217.804C340.527 217.804 340.527 219.965 341.909 219.965Z" fill="#476CFC"/>
<path d="M393.826 218.884C393.826 248.999 393.826 279.157 393.826 309.272C393.826 317.87 393.826 326.512 393.826 335.11C393.826 336.492 395.986 336.492 395.986 335.11C395.986 304.995 395.986 274.837 395.986 244.722C395.986 236.124 395.986 227.482 395.986 218.884C395.986 217.458 393.826 217.458 393.826 218.884Z" fill="#476CFC"/>
<path d="M301.655 275.917C316.167 275.917 330.68 275.917 345.193 275.917C346.575 275.917 346.575 273.756 345.193 273.756C330.68 273.756 316.167 273.756 301.655 273.756C300.273 273.756 300.273 275.917 301.655 275.917Z" fill="#476CFC"/>
<path d="M301.654 285.768C316.167 285.768 330.679 285.768 345.192 285.768C346.574 285.768 346.574 283.608 345.192 283.608C330.679 283.608 316.167 283.608 301.654 283.608C300.272 283.608 300.272 285.768 301.654 285.768Z" fill="#476CFC"/>
<path d="M301.654 295.619C316.167 295.619 330.679 295.619 345.192 295.619C346.574 295.619 346.574 293.459 345.192 293.459C330.679 293.459 316.167 293.459 301.654 293.459C300.272 293.459 300.272 295.619 301.654 295.619Z" fill="#476CFC"/>
<path d="M386.311 219.446C386.311 249.388 386.311 279.33 386.311 309.272C386.311 317.827 386.311 326.382 386.311 334.894C386.311 336.276 388.471 336.276 388.471 334.894C388.471 304.952 388.471 275.009 388.471 245.067C388.471 236.512 388.471 227.958 388.471 219.446C388.471 218.02 386.311 218.02 386.311 219.446Z" fill="#476CFC"/>
<path d="M349.683 231.673C361.863 231.673 374 231.673 386.18 231.673C387.563 231.673 387.563 229.513 386.18 229.513C374 229.513 361.863 229.513 349.683 229.513C348.301 229.513 348.301 231.673 349.683 231.673Z" fill="#476CFC"/>
<path d="M349.683 241.956C361.863 241.956 374 241.956 386.18 241.956C387.563 241.956 387.563 239.796 386.18 239.796C374 239.796 361.863 239.796 349.683 239.796C348.301 239.796 348.301 241.956 349.683 241.956Z" fill="#476CFC"/>
<path d="M349.683 252.24C361.863 252.24 374 252.24 386.18 252.24C387.563 252.24 387.563 250.079 386.18 250.079C374 250.079 361.863 250.079 349.683 250.079C348.301 250.079 348.301 252.24 349.683 252.24Z" fill="#476CFC"/>
<path d="M251.163 224.371H242.524C242.006 224.371 241.617 223.939 241.617 223.464V214.823C241.617 214.304 242.049 213.916 242.524 213.916H251.163C251.681 213.916 252.07 214.348 252.07 214.823V223.464C252.07 223.983 251.681 224.371 251.163 224.371Z" fill="#476CFC"/>
<path d="M268.828 224.371H260.189C259.671 224.371 259.282 223.939 259.282 223.464V214.823C259.282 214.304 259.714 213.916 260.189 213.916H268.828C269.346 213.916 269.735 214.348 269.735 214.823V223.464C269.778 223.983 269.346 224.371 268.828 224.371Z" fill="#476CFC"/>
<path d="M286.537 224.371H277.899C277.38 224.371 276.992 223.939 276.992 223.464V214.823C276.992 214.304 277.424 213.916 277.899 213.916H286.537C287.055 213.916 287.444 214.348 287.444 214.823V223.464C287.444 223.983 287.055 224.371 286.537 224.371Z" fill="#476CFC"/>
<path d="M304.505 224.371H295.867C295.348 224.371 294.959 223.939 294.959 223.464V214.823C294.959 214.304 295.391 213.916 295.867 213.916H304.505C305.023 213.916 305.412 214.348 305.412 214.823V223.464C305.455 223.983 305.023 224.371 304.505 224.371Z" fill="#476CFC"/>
<path d="M268.829 244.419H260.19C259.672 244.419 259.283 243.987 259.283 243.512V234.871C259.283 234.352 259.715 233.963 260.19 233.963H268.829C269.347 233.963 269.736 234.395 269.736 234.871V243.512C269.779 243.987 269.347 244.419 268.829 244.419Z" fill="#476CFC"/>
<path d="M286.537 244.419H277.898C277.38 244.419 276.991 243.987 276.991 243.512V234.871C276.991 234.352 277.423 233.963 277.898 233.963H286.537C287.055 233.963 287.444 234.395 287.444 234.871V243.512C287.444 243.987 287.055 244.419 286.537 244.419Z" fill="#476CFC"/>
<path d="M268.828 264.899H260.19C259.671 264.899 259.283 264.467 259.283 263.992V255.351C259.283 254.832 259.715 254.443 260.19 254.443H268.828C269.346 254.443 269.735 254.875 269.735 255.351V263.992C269.778 264.467 269.346 264.899 268.828 264.899Z" fill="#476CFC"/>
<path d="M286.537 264.899H277.898C277.38 264.899 276.991 264.467 276.991 263.992V255.351C276.991 254.832 277.423 254.443 277.898 254.443H286.537C287.055 254.443 287.444 254.875 287.444 255.351V263.992C287.444 264.467 287.055 264.899 286.537 264.899Z" fill="#476CFC"/>
<path d="M304.505 244.419H295.867C295.348 244.419 294.959 243.987 294.959 243.512V234.871C294.959 234.352 295.391 233.963 295.867 233.963H304.505C305.023 233.963 305.412 234.395 305.412 234.871V243.512C305.455 243.987 305.023 244.419 304.505 244.419Z" fill="#476CFC"/>
<path d="M139.64 353.818C151.604 353.818 163.612 353.818 175.576 353.818C176.958 353.818 176.958 351.658 175.576 351.658C163.612 351.658 151.604 351.658 139.64 351.658C138.258 351.658 138.258 353.818 139.64 353.818Z" fill="#476CFC"/>
<path d="M153.073 254.659C160.458 254.659 167.844 254.659 175.23 254.659C176.224 254.659 176.224 253.147 175.23 253.147C167.844 253.147 160.458 253.147 153.073 253.147C152.122 253.147 152.122 254.659 153.073 254.659Z" fill="#476CFC"/>
<path d="M153.548 253.709C154.973 249.042 158.083 243.469 163.569 242.994C169.486 242.475 173.33 248.394 174.539 253.406C174.755 254.357 176.224 253.968 176.008 253.017C174.626 247.314 170.177 241.006 163.612 241.481C157.435 241.957 153.807 247.962 152.166 253.32C151.82 254.227 153.246 254.659 153.548 253.709Z" fill="#476CFC"/>
<path d="M426.004 224.544C425.875 224.544 425.702 224.501 425.573 224.415L419.482 219.316C419.223 219.1 419.18 218.668 419.396 218.409C419.612 218.15 420.044 218.106 420.303 218.323L426.393 223.421C426.652 223.637 426.696 224.069 426.48 224.328C426.393 224.458 426.177 224.544 426.004 224.544Z" fill="#476CFC"/>
<path d="M413.09 213.743C412.961 213.743 412.788 213.699 412.658 213.613L397.152 200.651C396.893 200.435 396.85 200.003 397.066 199.744C397.282 199.485 397.714 199.441 397.973 199.657L413.479 212.619C413.738 212.835 413.781 213.267 413.566 213.527C413.436 213.656 413.263 213.743 413.09 213.743Z" fill="#476CFC"/>
<path d="M77.9619 420.054C80.1215 408.302 81.2013 396.42 81.2013 384.495H79.9487C79.9487 390.76 79.4736 407.524 76.8389 420.054H77.9619Z" fill="#476CFC"/>
<path d="M34.296 418.801C32.9571 411.11 31.4886 399.617 31.2726 384.322H30.02C30.02 396.333 31.0998 408.302 33.2594 420.097H33.389H34.512H77.9201V418.801H34.296Z" fill="#476CFC"/>
<path d="M76.8835 419.449H33.8209C33.8209 419.449 31.7045 404.759 31.0566 387.39L76.8835 419.449Z" fill="#476CFC"/>
<path d="M99.818 328.456C96.9242 325.734 89.6247 326.814 85.651 329.579C76.9262 335.715 71.1816 342.455 67.4239 348.936C71.0089 339.517 76.4079 329.19 83.5346 318.043C84.3984 316.704 84.744 316.185 84.8304 315.926C86.0829 313.031 86.0397 310.482 84.6576 308.97C83.621 307.803 81.375 306.766 76.7102 308.322C74.5938 309.013 60.9019 314.371 54.2935 336.406C47.5123 316.012 33.3453 309.013 31.2721 308.322C26.6073 306.766 24.3613 307.803 23.3247 308.97C21.9426 310.482 21.8562 313.031 23.152 315.926C23.2815 316.185 23.6271 316.747 24.4477 318.043C31.5744 329.19 36.9734 339.517 40.5584 348.936C36.8007 342.455 31.0129 335.758 22.2881 329.623C18.3144 326.857 11.015 325.777 8.12109 328.499C6.9549 329.579 6.04787 331.74 8.38024 335.585C11.2309 340.338 15.075 343.751 19.0919 347.38C25.5275 353.17 32.7838 359.737 38.3124 373.564H23.3247C23.2815 373.564 23.2815 373.564 23.2383 373.564C23.1951 373.564 23.152 373.564 23.1088 373.607C23.0656 373.607 23.0224 373.65 22.9792 373.693C22.936 373.693 22.936 373.736 22.8928 373.736C22.8496 373.78 22.8496 373.78 22.8496 373.823C22.8064 373.866 22.8064 373.909 22.7632 373.952C22.7632 373.996 22.7632 374.039 22.72 374.082C22.72 374.125 22.72 374.125 22.72 374.168V384.279C22.72 384.322 22.72 384.322 22.72 384.365C22.72 384.408 22.72 384.452 22.7632 384.495C22.7632 384.538 22.8064 384.581 22.8496 384.624C22.8496 384.668 22.8928 384.668 22.8928 384.711C22.936 384.754 22.936 384.754 22.9792 384.754C23.0224 384.797 23.0656 384.797 23.1088 384.84C23.152 384.84 23.1951 384.84 23.2383 384.884C23.2815 384.884 23.2815 384.884 23.3247 384.884H87.8106C87.9834 384.884 88.113 384.84 88.1993 384.711C88.1993 384.711 88.2425 384.711 88.2425 384.668C88.2425 384.668 88.2425 384.624 88.2857 384.624C88.3721 384.538 88.4585 384.408 88.4585 384.236V374.384C88.5881 374.039 88.4153 373.52 87.897 373.52H69.6267C75.1553 359.737 82.4116 353.127 88.8472 347.337C92.8641 343.708 96.665 340.251 99.5589 335.542C101.934 331.696 101.027 329.579 99.818 328.456ZM87.2059 374.773V383.587H23.9726V374.773H87.2059Z" fill="#476CFC"/>
<path d="M369.683 218.927C369.683 213.051 369.683 207.175 369.683 201.299C369.683 199.917 367.523 199.917 367.523 201.299C367.523 207.175 367.523 213.051 367.523 218.927C367.523 220.31 369.683 220.31 369.683 218.927Z" fill="#476CFC"/>
<path d="M368.645 199.355C368.602 199.355 368.472 199.355 368.558 199.355C368.602 199.355 368.429 199.268 368.472 199.312C368.386 199.225 368.342 199.182 368.299 199.096C368.299 199.052 368.299 198.88 368.256 199.009C368.299 198.88 368.342 198.88 368.472 198.836C368.386 198.923 368.645 198.793 368.515 198.836C368.472 198.836 368.645 198.836 368.688 198.836C368.818 198.836 368.688 198.836 368.645 198.836C368.688 198.836 368.774 198.966 368.688 198.88C368.688 198.88 368.774 199.052 368.774 199.009C368.774 199.182 368.774 199.268 368.774 199.268C368.774 199.268 368.731 199.441 368.731 199.355C368.731 199.268 368.688 199.398 368.731 199.355C368.818 199.268 368.904 199.441 368.774 199.355C368.731 199.312 368.602 199.355 368.774 199.355C368.645 199.355 368.472 199.182 368.386 199.096C368.342 199.009 368.429 199.225 368.342 199.009C368.299 198.836 368.299 199.009 368.342 198.966C368.386 198.88 368.342 199.052 368.299 199.052C368.256 199.139 368.299 198.966 368.342 198.966C368.127 198.966 368.17 199.225 367.867 198.75C367.608 198.318 368.083 197.929 368.558 198.059C367.997 197.929 367.392 198.231 367.219 198.793C367.09 199.312 367.392 200.003 367.954 200.133C368.99 200.349 369.854 199.614 369.897 198.577C369.941 197.54 369.077 196.806 368.083 196.892C367.047 196.978 366.226 197.799 366.14 198.836C366.053 199.614 366.442 200.392 367.004 200.867C367.651 201.429 368.472 201.688 369.293 201.472C370.243 201.213 370.804 200.349 370.891 199.398C371.064 197.411 368.99 196.114 367.263 197.108C366.312 197.627 365.837 198.75 366.183 199.787C366.485 200.824 367.479 201.602 368.602 201.602C370.027 201.472 370.027 199.312 368.645 199.355Z" fill="#476CFC"/>
<path d="M597.995 296.138H478.785V162.586H597.995V296.138ZM480.945 293.977H595.836V164.747H480.945V293.977Z" fill="#476CFC"/>
<path d="M585.946 284.688H490.836V174.036H585.946V284.688ZM492.996 282.528H583.786V176.196H492.996V282.528Z" fill="#476CFC"/>
<path d="M507.292 236.901H511.871V244.463H515.326V236.901H519.948V256.906H515.326V248.351H511.871V256.906H507.292V236.901Z" fill="#476CFC"/>
<path d="M536.145 246.796C536.145 254.141 534.158 257.295 529.191 257.295C524.569 257.295 522.496 254.054 522.496 246.709C522.496 239.623 524.785 236.556 529.364 236.556C534.072 236.556 536.145 239.839 536.145 246.796ZM527.29 246.666C527.29 251.592 527.722 253.666 529.32 253.666C531.005 253.666 531.35 251.764 531.35 246.666C531.35 241.913 530.962 240.142 529.32 240.142C527.722 240.185 527.29 242 527.29 246.666Z" fill="#476CFC"/>
<path d="M550.787 250.511C550.787 247.401 550.831 243.253 550.917 240.833H550.787C550.183 245.024 549.362 251.764 548.455 256.906H544.74C544.049 251.548 543.229 244.851 542.667 240.79H542.538C542.624 243.123 542.71 247.185 542.71 250.641V256.906H538.65V236.901H545.129C545.777 241.092 546.425 246.104 546.727 248.913H546.814C547.202 245.932 547.937 241.568 548.714 236.901H555.107V256.906H550.787V250.511Z" fill="#476CFC"/>
<path d="M568.668 248.438H562.621V253.19H569.489L568.97 256.906H558.086V236.901H568.927V240.66H562.578V244.679H568.625V248.438H568.668Z" fill="#476CFC"/>
<path d="M525.39 202.898V222.903H520.812V202.898H525.39Z" fill="#476CFC"/>
<path d="M554.372 213.699C557.179 210.891 557.179 206.354 554.372 203.546C551.737 200.91 547.634 200.737 544.783 203.027C544.438 203.287 543.963 203.287 543.617 203.027C540.81 200.737 536.663 200.954 534.028 203.546C531.221 206.354 531.221 210.891 534.028 213.699L543.401 223.075C543.833 223.507 544.524 223.507 544.956 223.075L554.372 213.699Z" fill="#476CFC"/>
<path d="M502.887 389.896L501.505 385.273C501.505 385.229 501.462 385.186 501.462 385.143L496.538 368.508C496.408 368.033 495.933 367.688 495.458 367.688H468.29C467.772 367.688 467.34 368.033 467.211 368.508L460.861 389.852C459.177 395.426 460.991 401.605 465.18 404.845C469.759 408.258 475.115 410.548 480.73 411.542V450.73H482.976V411.542C488.591 410.548 493.946 408.258 498.525 404.845C502.758 401.648 504.529 395.513 502.887 389.896ZM483.148 385.618C475.46 387.995 469.37 385.316 465.44 382.378L469.111 370.021H494.594L498.784 384.149C493.558 383.501 488.202 383.976 483.148 385.618Z" fill="#476CFC"/>
<path d="M496.926 389.032C496.322 389.204 495.976 389.853 496.149 390.457C497.185 393.957 496.062 397.889 493.514 399.876C493.039 400.265 492.909 400.957 493.298 401.475C493.687 401.95 494.378 402.08 494.896 401.691C498.222 399.142 499.647 394.26 498.352 389.853C498.179 389.204 497.531 388.859 496.926 389.032Z" fill="white"/>
<path d="M481.853 453.884C488.318 453.884 493.558 452.704 493.558 451.249C493.558 449.793 488.318 448.613 481.853 448.613C475.388 448.613 470.148 449.793 470.148 451.249C470.148 452.704 475.388 453.884 481.853 453.884Z" fill="#476CFC"/>
<path d="M513.831 317.262L485.154 317.592L485.171 319.061L513.847 318.731L513.831 317.262Z" fill="#476CFC"/>
<path d="M513.874 321.711L485.197 322.045L485.214 323.514L513.891 323.18L513.874 321.711Z" fill="#476CFC"/>
<path d="M513.918 326.162L485.241 326.494L485.258 327.963L513.935 327.631L513.918 326.162Z" fill="#476CFC"/>
<path d="M513.961 330.611L485.284 330.946L485.301 332.415L513.978 332.08L513.961 330.611Z" fill="#476CFC"/>
<path d="M518.609 311.13L481.032 311.562C480.6 311.562 480.255 311.951 480.255 312.383L480.557 341.807L475.029 341.85C474.726 341.85 474.51 342.066 474.51 342.368C474.51 342.455 474.51 342.498 474.51 342.584C474.51 342.671 474.51 342.714 474.51 342.801C474.51 343.751 474.726 344.572 475.029 345.263C476.799 349.8 482.371 349.714 482.371 349.714L514.42 349.411C515.284 349.325 516.407 349.065 517.4 348.288C518.998 347.035 519.819 344.874 519.776 341.85L519.43 311.951C519.43 311.476 519.085 311.13 518.609 311.13ZM518.177 341.85C518.221 344.313 517.616 346.084 516.45 346.992C515.629 347.64 514.636 347.769 513.945 347.769C513.21 347.769 512.692 347.64 512.692 347.64L512.433 347.553C511.483 347.251 510.705 346.819 510.101 346.171C508.459 344.442 508.546 342.023 508.546 342.023C508.546 341.893 508.502 341.72 508.416 341.634C508.33 341.548 508.157 341.461 508.027 341.461L482.242 341.764L481.939 313.118L517.918 312.729L518.177 341.85Z" fill="#476CFC"/>
<path d="M567.675 310.439L530.098 310.871C529.666 310.871 529.321 311.26 529.321 311.692L529.753 351.874C529.753 352.09 529.839 352.306 530.012 352.436C530.185 352.565 530.357 352.652 530.573 352.652L568.151 352.133C568.582 352.133 568.928 351.744 568.928 351.312L568.496 311.26C568.496 310.785 568.107 310.439 567.675 310.439ZM566.898 312.037L567.33 350.491L531.351 351.01L530.919 312.426L566.898 312.037Z" fill="#476CFC"/>
<path d="M534.201 318.432L562.881 318.086V316.617L534.201 316.92V318.432Z" fill="#476CFC"/>
<path d="M534.288 322.882L562.924 322.537V321.068L534.245 321.37L534.288 322.882Z" fill="#476CFC"/>
<path d="M534.331 327.333L563.011 326.987L562.968 325.518L534.288 325.82L534.331 327.333Z" fill="#476CFC"/>
<path d="M551.372 330.069L534.356 330.287L534.375 331.756L551.391 331.538L551.372 330.069Z" fill="#476CFC"/>
</svg>
