<svg width="280" height="219" viewBox="0 0 280 219" fill="none" xmlns="http://www.w3.org/2000/svg">
  <path d="M0.963994 218.316C37.0736 218.316 73.2234 218.316 109.333 218.316C145.764 218.316 182.195 218.316 218.626 218.316C238.749 218.316 258.913 218.316 279.036 218.316C280.321 218.316 280.321 216.304 279.036 216.304C242.926 216.304 206.777 216.304 170.667 216.304C134.236 216.304 97.8052 216.304 61.3743 216.304C41.2509 216.304 21.0874 216.304 0.963994 216.304C-0.321331 216.304 -0.321331 218.316 0.963994 218.316Z" fill="#476CFC"/>
  <path d="M38.48 216.988C38.48 213.849 38.48 210.75 38.48 207.61C38.48 206.322 36.4717 206.322 36.4717 207.61C36.4717 210.75 36.4717 213.849 36.4717 216.988C36.4717 218.276 38.48 218.276 38.48 216.988Z" fill="#476CFC"/>
  <path d="M207.58 215.982C204.005 215.821 204.005 208.777 207.58 208.616C208.865 208.576 208.865 206.564 207.58 206.604C201.395 206.886 201.395 217.713 207.58 217.994C208.906 218.035 208.906 216.022 207.58 215.982Z" fill="#476CFC"/>
  <path d="M239.271 215.982C236.379 215.821 236.379 208.777 239.271 208.616C240.556 208.536 240.556 206.524 239.271 206.604C233.728 206.926 233.728 217.672 239.271 217.994C240.556 218.075 240.556 216.062 239.271 215.982Z" fill="#476CFC"/>
  <path d="M37.4756 208.134C64.1862 208.134 90.8969 208.134 117.648 208.134C144.519 208.134 171.35 208.134 198.222 208.134C213.324 208.134 228.427 208.134 243.529 208.134C244.815 208.134 244.815 206.121 243.529 206.121C216.819 206.121 190.108 206.121 163.357 206.121C136.486 206.121 109.655 206.121 82.7833 206.121C67.6807 206.121 52.5781 206.121 37.4756 206.121C36.1501 206.121 36.1501 208.134 37.4756 208.134Z" fill="#476CFC"/>
  <path d="M48.2398 206.725C48.2398 195.495 48.2398 184.306 48.2398 173.077C48.2398 171.789 46.2314 171.789 46.2314 173.077C46.2314 184.306 46.2314 195.495 46.2314 206.725C46.2314 208.013 48.2398 208.013 48.2398 206.725Z" fill="#476CFC"/>
  <path d="M47.4767 173.922C96.7609 173.922 146.005 173.922 195.289 173.922C209.106 173.922 222.964 173.922 236.781 173.922C238.066 173.922 238.066 171.91 236.781 171.91C187.497 171.91 138.253 171.91 88.9686 171.91C75.1513 171.91 61.2939 171.91 47.4767 171.91C46.1914 171.91 46.1914 173.922 47.4767 173.922Z" fill="#476CFC"/>
  <path d="M200.671 206.483C200.671 195.576 200.671 184.628 200.671 173.721C200.671 172.433 198.663 172.433 198.663 173.721C198.663 184.628 198.663 195.576 198.663 206.483C198.663 207.771 200.671 207.771 200.671 206.483Z" fill="#476CFC"/>
  <path d="M232.844 207.248C232.844 196.139 232.844 185.071 232.844 173.962C232.844 172.675 230.836 172.675 230.836 173.962C230.836 185.071 230.836 196.139 230.836 207.248C230.836 208.536 232.844 208.536 232.844 207.248Z" fill="#476CFC"/>
  <path d="M62.7803 172.514C62.7803 168.207 62.7803 163.9 62.7803 159.594C62.7803 158.306 60.772 158.306 60.772 159.594C60.772 163.9 60.772 168.207 60.772 172.514C60.772 173.842 62.7803 173.842 62.7803 172.514Z" fill="#476CFC"/>
  <path d="M195.37 158.427C191.715 158.628 190.831 163.216 190.831 166.114C190.831 169.052 191.715 173.64 195.37 173.801C196.655 173.882 196.655 171.87 195.37 171.789C191.755 171.588 191.755 160.6 195.37 160.399C196.655 160.359 196.655 158.346 195.37 158.427Z" fill="#476CFC"/>
  <path d="M223.526 158.547C216.215 158.869 216.215 173.399 223.526 173.721C224.811 173.761 224.811 171.749 223.526 171.709C218.866 171.507 218.866 160.761 223.526 160.56C224.811 160.479 224.811 158.467 223.526 158.547Z" fill="#476CFC"/>
  <path d="M49.6056 160.077C100.296 160.077 150.945 160.077 201.635 160.077C215.774 160.077 229.913 160.077 244.051 160.077C245.337 160.077 245.337 158.064 244.051 158.064C193.361 158.064 142.711 158.064 92.0213 158.064C77.8828 158.064 63.7442 158.064 49.6056 158.064C48.3203 158.064 48.3203 160.077 49.6056 160.077Z" fill="#476CFC"/>
  <path d="M50.8511 159.312C50.8511 150.417 50.8511 141.522 50.8511 132.627C50.8511 131.339 48.8428 131.339 48.8428 132.627C48.8428 141.522 48.8428 150.417 48.8428 159.312C48.8428 160.6 50.8511 160.6 50.8511 159.312Z" fill="#476CFC"/>
  <path d="M50.8102 133.15C101.099 133.15 151.427 133.15 201.715 133.15C215.894 133.15 230.073 133.15 244.252 133.15C245.537 133.15 245.537 131.138 244.252 131.138C193.963 131.138 143.635 131.138 93.3464 131.138C79.1677 131.138 64.9889 131.138 50.8102 131.138C49.5249 131.138 49.5249 133.15 50.8102 133.15Z" fill="#476CFC"/>
  <path d="M206.536 131.661C198.623 138.745 198.583 152.47 206.536 159.513C207.5 160.358 208.946 158.95 207.942 158.105C200.752 151.745 200.832 139.47 207.942 133.07C208.906 132.225 207.5 130.816 206.536 131.661Z" fill="#476CFC"/>
  <path d="M241.12 131.661C233.207 138.745 233.167 152.47 241.12 159.513C242.084 160.358 243.53 158.95 242.525 158.105C235.336 151.745 235.416 139.47 242.525 133.07C243.489 132.225 242.084 130.816 241.12 131.661Z" fill="#476CFC"/>
  <path d="M238.99 136.33H204.407V137.538H238.99V136.33Z" fill="#476CFC"/>
  <path d="M236.62 140.798H202.479V142.005H236.62V140.798Z" fill="#476CFC"/>
  <path d="M236.178 145.265H202.117V146.473H236.178V145.265Z" fill="#476CFC"/>
  <path d="M236.621 149.733H202.961V150.94H236.621V149.733Z" fill="#476CFC"/>
  <path d="M239.03 154.16H203.965V155.368H239.03V154.16Z" fill="#476CFC"/>
  <path d="M49.6055 159.071V132.144H207.259C207.259 132.144 194.687 144.782 207.259 158.829L49.6055 159.071Z" fill="#476CFC"/>
  <path d="M186.854 172.916H167.815V207.248H186.854V172.916Z" fill="#476CFC"/>
  <path d="M161.188 172.916H142.149V207.248H161.188V172.916Z" fill="#476CFC"/>
  <path d="M126.886 192.879L131.987 193.724L131.946 199.198L108.168 194.409L108.208 186.721L132.027 182.052L131.987 187.727L126.886 188.532V192.879ZM122.307 189.217C118.812 189.74 114.956 190.263 112.747 190.545V190.706C115.036 190.947 118.812 191.551 122.266 192.115L122.307 189.217Z" fill="#476CFC"/>
  <path d="M219.791 162.009H192.277V163.216H219.791V162.009Z" fill="#476CFC"/>
  <path d="M219.791 165.51H192.277V166.718H219.791V165.51Z" fill="#476CFC"/>
  <path d="M236.179 209.824H204.327V211.031H236.179V209.824Z" fill="#476CFC"/>
  <path d="M236.179 213.004H204.327V214.211H236.179V213.004Z" fill="#476CFC"/>
  <path d="M219.791 169.012H192.277V170.219H219.791V169.012Z" fill="#476CFC"/>
  <path d="M204.407 207.61H37.4756V217.31H204.407V207.61Z" fill="#476CFC"/>
  <path d="M80.5339 158.829H75.2319V172.675H80.5339V158.829Z" fill="#476CFC"/>
  <path d="M93.8293 158.829H88.5273V172.675H93.8293V158.829Z" fill="#476CFC"/>
  <path d="M143.233 79.2175C143.795 53.1767 159.661 28.5044 183.038 17.1543C184.203 16.5908 183.199 14.8601 182.034 15.4236C163.356 24.4795 149.298 41.9474 143.755 61.9106C142.189 67.5454 141.345 73.3412 141.225 79.2175C141.185 80.5457 143.193 80.5457 143.233 79.2175Z" fill="#476CFC"/>
  <path d="M183.521 16.5506C183.44 13.4112 183.521 10.151 184.565 7.17266C185.167 5.44197 186.292 3.87228 187.818 2.86607C189.666 1.65861 192.558 1.69886 192.437 4.55651C192.317 7.49465 189.104 10.3523 186.935 11.9622C185.208 13.2502 183.28 14.2966 181.793 15.8261C181.151 16.4701 181.793 17.919 182.757 17.5165C187.256 15.6651 191.674 13.3709 196.374 12.1232C197.699 11.761 203.925 10.6743 203.764 13.5722C203.564 16.4298 197.217 16.5908 195.41 16.6713C191.192 16.8725 186.935 16.4701 182.798 15.5846C182.717 16.2286 182.637 16.9128 182.516 17.5568C185.529 17.5568 188.662 18.6837 191.393 19.9314C193.241 20.7364 198.021 22.8293 197.498 25.526C197.016 28.1019 193.482 28.1019 191.674 27.1762C190.309 26.4517 189.385 25.043 188.461 23.7953C186.613 21.2999 184.926 17.9995 182.436 16.0676C181.432 15.2626 179.986 16.6713 181.03 17.4763C184.364 20.0924 186.011 24.6003 188.943 27.6189C191.755 30.5168 197.9 30.879 199.346 26.3309C200.431 22.9098 196.454 20.2937 193.924 18.9655C190.55 17.1543 186.413 15.5846 182.516 15.5846C181.392 15.5846 181.111 17.3153 182.235 17.5568C187.457 18.6435 193 19.1667 198.302 18.4825C200.953 18.1203 205.612 17.114 205.773 13.6527C205.933 10.4328 201.917 9.54732 199.467 9.66807C193.522 9.90956 187.618 13.4112 182.235 15.6248C182.557 16.1883 182.878 16.7518 183.199 17.3153C185.649 14.8601 188.943 13.4514 191.273 10.8353C193.401 8.46061 196.052 4.07352 193.201 1.21588C190.268 -1.76251 185.73 1.33663 183.922 4.03328C181.512 7.61539 181.432 12.4452 181.512 16.6311C181.552 17.8788 183.561 17.8788 183.521 16.5506Z" fill="#476CFC"/>
  <path d="M120.9 89.8823C120.9 86.8235 120.9 83.8048 120.9 80.7459C120.9 79.458 118.892 79.458 118.892 80.7459C118.892 83.8048 118.892 86.8235 118.892 89.8823C118.892 91.1703 120.9 91.1703 120.9 89.8823Z" fill="#476CFC"/>
  <path d="M119.898 81.5117C135.321 81.5117 150.745 81.5117 166.169 81.5117C167.455 81.5117 167.455 79.4992 166.169 79.4992C150.745 79.4992 135.321 79.4992 119.898 79.4992C118.612 79.4992 118.612 81.5117 119.898 81.5117Z" fill="#476CFC"/>
  <path d="M119.896 90.8895C135.32 90.8895 150.744 90.8895 166.168 90.8895C167.453 90.8895 167.453 88.8771 166.168 88.8771C150.744 88.8771 135.32 88.8771 119.896 88.8771C118.611 88.8771 118.611 90.8895 119.896 90.8895Z" fill="#476CFC"/>
  <path d="M167.172 89.8833C167.172 86.8245 167.172 83.8058 167.172 80.7469C167.172 79.459 165.164 79.459 165.164 80.7469C165.164 83.8058 165.164 86.8245 165.164 89.8833C165.164 91.1713 167.172 91.1713 167.172 89.8833Z" fill="#476CFC"/>
  <path d="M122.185 90.1249C123.39 104.051 124.595 117.977 125.8 131.903C125.921 133.191 127.929 133.191 127.809 131.903C126.604 117.977 125.399 104.051 124.194 90.1249C124.073 88.8369 122.065 88.8369 122.185 90.1249Z" fill="#476CFC"/>
  <path d="M159.983 90.1249C158.778 104.051 157.573 117.977 156.368 131.903C156.248 133.191 158.256 133.191 158.376 131.903C159.581 117.977 160.786 104.051 161.991 90.1249C162.112 88.8369 160.103 88.8369 159.983 90.1249Z" fill="#476CFC"/>
</svg>
