<svg width="303" height="195" viewBox="0 0 303 195" fill="none" xmlns="http://www.w3.org/2000/svg">
  <path d="M202.909 4.55959L189.371 6.63749L188.293 6.81062L116.462 17.8926L115.384 18.0657L43.5956 29.1477L42.5177 29.3208L28.9792 31.3987L23.852 39.3404L40.8537 149.573L132.001 135.504L133.725 133.216L136.054 134.898L227.201 120.829L210.2 10.5533L202.909 4.55959Z" fill="white"/>
  <path d="M202.909 4.55959L189.371 6.63749L188.293 6.81062L116.462 17.8926L115.384 18.0657L43.5956 29.1477L42.5177 29.3208L28.9792 31.3987L23.852 39.3404L40.8537 149.573L132.001 135.504L133.725 133.216L136.054 134.898L227.201 120.829L210.2 10.5533L202.909 4.55959ZM116.678 18.9712L202.005 5.76816L218.66 113.843L206.2 115.748L205.122 115.921L133.333 127.003L116.678 18.9712ZM30.2302 32.3473L115.557 19.1443L132.212 127.176L60.4242 138.301L59.3463 138.474L46.8857 140.379L30.2302 32.3473Z" fill="#476CFC"/>
  <path d="M202.005 73.4058L146.27 82.0404L146.626 84.3429L202.362 75.7083L202.005 73.4058Z" fill="#476CFC"/>
  <path d="M200.956 66.5197L145.208 75.134L145.554 77.4638L201.303 68.8063L200.956 66.5197Z" fill="#476CFC"/>
  <path d="M204.17 87.2031L148.435 95.8377L148.791 98.1402L204.527 89.5055L204.17 87.2031Z" fill="#476CFC"/>
  <path d="M205.254 94.2794L149.518 102.914L149.874 105.217L205.61 96.5819L205.254 94.2794Z" fill="#476CFC"/>
  <path d="M150.875 111.677L181.832 106.829L181.443 104.542L150.486 109.39L150.875 111.677Z" fill="#476CFC"/>
  <path d="M203.078 80.3256L147.329 88.94L147.718 91.2697L203.424 82.6122L203.078 80.3256Z" fill="#476CFC"/>
  <path d="M199.876 59.6167L144.17 68.2742L144.516 70.5608L200.265 61.9464L199.876 59.6167Z" fill="#476CFC"/>
  <path d="M194.641 25.5332L138.893 34.1476L139.239 36.4773L194.987 27.8198L194.641 25.5332Z" fill="#476CFC"/>
  <path d="M195.549 31.5733L139.844 40.1877L140.19 42.5174L195.938 33.8599L195.549 31.5733Z" fill="#476CFC"/>
  <path d="M196.631 38.3468L140.882 47.0043L141.228 49.2909L196.977 40.6766L196.631 38.3468Z" fill="#476CFC"/>
  <path d="M197.582 44.7753L141.877 53.4328L142.223 55.7193L197.972 47.105L197.582 44.7753Z" fill="#476CFC"/>
  <path d="M198.707 51.9371L142.959 60.5946L143.348 62.8812L199.054 54.2668L198.707 51.9371Z" fill="#476CFC"/>
  <path d="M193.646 19.1048L137.897 27.7623L138.244 30.0489L193.992 21.4346L193.646 19.1048Z" fill="#476CFC"/>
  <path d="M110.416 87.7068L54.6674 96.278L55.0135 98.6078L110.762 89.9934L110.416 87.7068Z" fill="#476CFC"/>
  <path d="M109.378 80.8901L53.6298 89.5045L53.9759 91.7911L109.724 83.2199L109.378 80.8901Z" fill="#476CFC"/>
  <path d="M112.536 101.297L56.7875 109.868L57.1336 112.198L112.882 103.584L112.536 101.297Z" fill="#476CFC"/>
  <path d="M113.575 108.114L57.8261 116.685L58.1722 118.971L113.921 110.4L113.575 108.114Z" fill="#476CFC"/>
  <path d="M59.2103 125.788L114.959 117.174L114.613 114.887L58.8642 123.458L59.2103 125.788Z" fill="#476CFC"/>
  <path d="M56.0961 105.381L111.845 96.81L111.498 94.4803L55.7499 103.095L56.0961 105.381Z" fill="#476CFC"/>
  <path d="M108.34 74.1167L52.5917 82.6879L52.9378 84.9745L108.686 76.4033L108.34 74.1167Z" fill="#476CFC"/>
  <path d="M103.062 40.1197L62.5334 46.3534L62.8795 48.64L103.451 42.4063L103.062 40.1197Z" fill="#476CFC"/>
  <path d="M104.144 46.8932L48.3955 55.5076L48.7416 57.7942L104.49 49.223L104.144 46.8932Z" fill="#476CFC"/>
  <path d="M105.182 53.7099L49.433 62.2811L49.7791 64.5677L105.528 55.9965L105.182 53.7099Z" fill="#476CFC"/>
  <path d="M106.22 60.4834L50.4716 69.0977L50.8177 71.3843L106.566 62.8131L106.22 60.4834Z" fill="#476CFC"/>
  <path d="M107.302 67.3L51.5531 75.8712L51.8993 78.201L107.648 69.5866L107.302 67.3Z" fill="#476CFC"/>
  <path d="M52.9178 47.1349L52.9194 50.1983L49.7288 50.6745L50.3252 36.2632L54.8523 35.5706L59.8179 49.1161L56.498 49.6355L55.5479 46.7021L52.9178 47.1349ZM54.6411 44.1137C53.9933 42.1293 53.3454 39.886 52.9998 38.6349L52.9135 38.635C53.0005 40.0156 53.0016 42.2592 52.9596 44.3734L54.6411 44.1137Z" fill="#476CFC"/>
  <path d="M290.982 96.5015L230.769 56.5876L166.329 153.925L226.541 193.839L290.982 96.5015Z" fill="white"/>
  <path d="M266.683 88.7488L247.015 75.7284L249.427 72.1029L269.096 85.1232L266.683 88.7488ZM247.834 75.5554L266.51 87.9291L268.234 85.2963L249.557 72.9226L247.834 75.5554Z" fill="#476CFC"/>
  <path d="M291.998 95.9854L241.704 62.6151L240.884 62.0546L230.489 55.1563L165.514 153.349L175.91 160.247L176.729 160.807L227.023 194.178L291.998 95.9854ZM166.894 153.089L230.791 56.58L240.324 62.9178L241.143 63.4783L290.618 96.245L226.721 192.754L166.894 153.089Z" fill="#476CFC"/>
  <path d="M228.978 66.564L175.421 147.462L228.552 182.682L282.109 101.784L228.978 66.564Z" fill="#476CFC"/>
  <path d="M198.675 164.963L195.531 169.711L200.276 172.857L203.42 168.109L198.675 164.963Z" fill="#476CFC"/>
  <path d="M282.778 108.893L279.635 113.641L281.432 114.832L284.576 110.084L282.778 108.893Z" fill="#476CFC"/>
  <path d="M277.318 117.149L274.174 121.898L275.972 123.089L279.115 118.341L277.318 117.149Z" fill="#476CFC"/>
  <path d="M264.669 115.027L233.829 94.5912L233.183 95.5408L264.023 115.977L264.669 115.027Z" fill="white"/>
  <path d="M261.18 120.336L220.16 93.1741L219.514 94.1236L260.534 121.285L261.18 120.336Z" fill="white"/>
  <path d="M257.646 125.645L216.669 98.4831L216.022 99.4327L256.999 126.594L257.646 125.645Z" fill="white"/>
  <path d="M254.113 130.953L213.136 103.792L212.49 104.741L253.51 131.903L254.113 130.953Z" fill="white"/>
  <path d="M227.718 121.087L209.645 109.101L208.999 110.05L227.072 122.036L227.718 121.087Z" fill="white"/>
  <path d="M250.752 136.392L229.53 122.337L228.884 123.287L250.105 137.342L250.752 136.392Z" fill="white"/>
  <path d="M232.294 131.871L206.112 114.41L205.466 115.359L231.648 132.864L232.294 131.871Z" fill="white"/>
  <path d="M237.945 135.665L233.934 132.949L233.288 133.942L237.299 136.615L237.945 135.665Z" fill="white"/>
  <path d="M247.22 141.874L239.628 136.872L239.025 137.822L246.573 142.866L247.22 141.874Z" fill="white"/>
  <path d="M243.6 146.88L202.623 119.719L201.977 120.668L242.953 147.83L243.6 146.88Z" fill="white"/>
  <path d="M240.067 152.189L199.09 125.028L198.444 125.977L239.421 153.139L240.067 152.189Z" fill="white"/>
  <path d="M236.576 157.498L195.556 130.336L194.91 131.286L235.93 158.448L236.576 157.498Z" fill="white"/>
  <path d="M233.044 162.807L192.067 135.645L191.421 136.595L232.398 163.756L233.044 162.807Z" fill="white"/>
  <path d="M188.532 140.941L187.89 141.912L205.978 153.888L206.62 152.916L188.532 140.941Z" fill="white"/>
  <path d="M231.19 77.2474L233.908 79.0582L230.978 83.5037L233.005 84.8403L235.935 80.3947L238.652 82.2055L230.854 93.9884L228.136 92.1777L231.497 87.1278L229.47 85.7913L226.109 90.8411L223.392 89.0304L231.19 77.2474Z" fill="white"/>
  <path d="M264.634 46.8116C275.97 46.8058 285.154 37.6061 285.149 26.2634C285.143 14.9207 275.949 5.73023 264.614 5.73596C253.278 5.74169 244.094 14.9414 244.099 26.2841C244.105 37.6269 253.299 46.8173 264.634 46.8116Z" fill="#476CFC"/>
  <path d="M264.637 52.55C260.67 52.5521 256.746 51.648 253.08 49.8377C246.783 46.7343 242.08 41.3865 239.791 34.743C235.128 21.0248 242.45 6.09232 256.117 1.42557C269.826 -3.2412 284.749 4.08619 289.413 17.7613C291.658 24.4048 291.231 31.5242 288.129 37.8252C285.028 44.1261 279.684 48.8318 273.045 51.122C270.329 52.0726 267.483 52.5486 264.637 52.55ZM264.654 1.33496C261.938 1.33633 259.221 1.76917 256.592 2.67658C243.572 7.12727 236.594 21.326 241.042 34.3541C243.201 40.6524 247.688 45.7414 253.64 48.6724C259.635 51.6034 266.405 52.0314 272.699 49.8709C278.993 47.7104 284.079 43.2205 287.008 37.2648C289.937 31.266 290.365 24.4917 288.206 18.1934C286.047 11.8951 281.56 6.80604 275.608 3.87508C272.157 2.1941 268.406 1.33306 264.654 1.33496Z" fill="#476CFC"/>
  <path d="M301.788 15.5542L290.062 19.5728C289.717 19.7024 289.372 19.4869 289.243 19.1849L288.206 16.0789C288.077 15.7338 288.292 15.3885 288.594 15.2589L300.32 11.2403C300.665 11.1107 301.01 11.3263 301.14 11.6282L302.176 14.7343C302.306 15.0794 302.133 15.4678 301.788 15.5542Z" fill="#476CFC"/>
  <path d="M10.3156 148.341L9.72656 149.296L51.6982 175.228L52.2872 174.274L10.3156 148.341Z" fill="#476CFC"/>
  <path d="M61.1319 176.658L57.7713 182.097C57.599 182.356 57.2541 182.442 56.9521 182.27L7.91052 151.962C7.65172 151.79 7.56531 151.445 7.73763 151.143L11.0982 145.704C11.2705 145.445 11.6154 145.359 11.9173 145.531L60.959 175.839C61.2178 176.011 61.3042 176.356 61.1319 176.658ZM57.0809 180.975L59.7951 176.53L11.7455 146.826L9.03127 151.271L57.0809 180.975Z" fill="#476CFC"/>
  <path d="M55.3342 172.956L51.9814 178.389L52.972 179.001L56.3247 173.568L55.3342 172.956Z" fill="#476CFC"/>
  <path d="M53.4655 171.774L50.1128 177.207L51.1034 177.819L54.4561 172.386L53.4655 171.774Z" fill="#476CFC"/>
  <path d="M12.0469 146.308L8.6864 151.789C8.51406 152.048 8.16915 152.135 7.86723 151.962L6.18507 150.928C6.14193 150.885 6.05567 150.841 6.01253 150.798L2.69014 146.399C2.5607 146.227 2.51742 145.925 2.64669 145.752L3.93919 143.637C4.06844 143.421 4.32711 143.335 4.54273 143.378L9.9331 144.367C10.0193 144.367 10.0625 144.411 10.1487 144.454L11.8309 145.488C12.1328 145.661 12.2192 146.006 12.0469 146.308ZM7.99593 150.668L10.7533 146.179L9.67498 145.533L4.75896 144.629L3.8973 146.053L6.91763 150.021L7.99593 150.668Z" fill="#476CFC"/>
  <path d="M0.27429 143.294L2.90623 146.615L4.88809 143.421L0.748228 142.56C0.489471 142.474 0.230779 142.517 0.144628 142.69C0.0153582 142.862 0.0585862 143.078 0.27429 143.294Z" fill="#476CFC"/>
</svg>
