<svg width="90" height="100" viewBox="0 0 90 100" fill="none" xmlns="http://www.w3.org/2000/svg">
<path d="M56.7069 79.6025C72.2275 79.6025 84.8093 66.9555 84.8093 51.3547C84.8093 35.7539 72.2275 23.1069 56.7069 23.1069C41.1864 23.1069 28.6045 35.7539 28.6045 51.3547C28.6045 66.9555 41.1864 79.6025 56.7069 79.6025Z" fill="#C9D5FF" fill-opacity="0.48"/>
<path d="M73.1613 28.8383V17.9486C73.1613 15.5742 71.2878 13.691 68.9255 13.691H24.2875C21.9253 13.691 20.0518 15.5742 20.0518 17.9486V48.3252C20.0518 50.6997 21.9253 52.5829 24.2875 52.5829H51.4124C51.8197 52.5829 52.227 52.7466 52.4714 53.0741L62.0018 64.3732C62.8978 65.4376 64.5269 64.7826 64.5269 63.4726V54.1385C64.5269 53.3198 65.1785 52.6647 65.9931 52.6647H68.9255C71.2878 52.6647 73.1613 50.7815 73.1613 48.4071V37.1899" fill="white"/>
<path d="M73.1613 28.8383V17.9486C73.1613 15.5742 71.2878 13.691 68.9255 13.691H24.2875C21.9253 13.691 20.0518 15.5742 20.0518 17.9486V48.3252C20.0518 50.6997 21.9253 52.5829 24.2875 52.5829H51.4124C51.8197 52.5829 52.227 52.7466 52.4714 53.0741L62.0018 64.3732C62.8978 65.4376 64.5269 64.7826 64.5269 63.4726V54.1385C64.5269 53.3198 65.1785 52.6647 65.9931 52.6647H68.9255C71.2878 52.6647 73.1613 50.7815 73.1613 48.4071V37.1899" stroke="#476CFC" stroke-width="2" stroke-miterlimit="10"/>
<path d="M35.6915 36.2074C37.671 36.2074 39.2756 34.5944 39.2756 32.6048C39.2756 30.6151 37.671 29.0021 35.6915 29.0021C33.7121 29.0021 32.1074 30.6151 32.1074 32.6048C32.1074 34.5944 33.7121 36.2074 35.6915 36.2074Z" fill="white" stroke="#476CFC" stroke-width="2" stroke-miterlimit="10"/>
<path d="M46.6065 36.2074C48.586 36.2074 50.1906 34.5944 50.1906 32.6048C50.1906 30.6151 48.586 29.0021 46.6065 29.0021C44.6271 29.0021 43.0225 30.6151 43.0225 32.6048C43.0225 34.5944 44.6271 36.2074 46.6065 36.2074Z" fill="white" stroke="#476CFC" stroke-width="2" stroke-miterlimit="10"/>
<path d="M57.5216 36.2074C59.501 36.2074 61.1056 34.5944 61.1056 32.6048C61.1056 30.6151 59.501 29.0021 57.5216 29.0021C55.5421 29.0021 53.9375 30.6151 53.9375 32.6048C53.9375 34.5944 55.5421 36.2074 57.5216 36.2074Z" fill="white" stroke="#476CFC" stroke-width="2" stroke-miterlimit="10"/>
<path d="M24.4503 39.3187C14.0239 39.4006 5.47102 47.834 5.22665 58.3143C5.1452 62.8176 6.52996 66.9933 9.05511 70.3503C9.29948 70.6778 9.38094 71.0872 9.13657 71.4966L5.22665 80.0119C4.81937 80.9944 5.79687 81.9769 6.77434 81.4857L16.3862 76.7368C16.712 76.573 17.0378 76.573 17.2822 76.7368C19.6444 77.7193 22.251 78.2106 24.9391 78.1287C35.3655 77.883 43.8369 69.2859 43.9184 58.8056C44.0813 48.0796 35.284 39.2368 24.4503 39.3187Z" fill="#476CFC"/>
<path d="M18.1783 61.6713C19.393 61.6713 20.3776 60.6815 20.3776 59.4606C20.3776 58.2396 19.393 57.2499 18.1783 57.2499C16.9637 57.2499 15.979 58.2396 15.979 59.4606C15.979 60.6815 16.9637 61.6713 18.1783 61.6713Z" fill="white"/>
<path d="M24.7765 61.6713C25.9911 61.6713 26.9758 60.6815 26.9758 59.4606C26.9758 58.2396 25.9911 57.2499 24.7765 57.2499C23.5618 57.2499 22.5771 58.2396 22.5771 59.4606C22.5771 60.6815 23.5618 61.6713 24.7765 61.6713Z" fill="white"/>
<path d="M31.4557 61.6713C32.6703 61.6713 33.655 60.6815 33.655 59.4606C33.655 58.2396 32.6703 57.2499 31.4557 57.2499C30.241 57.2499 29.2563 58.2396 29.2563 59.4606C29.2563 60.6815 30.241 61.6713 31.4557 61.6713Z" fill="white"/>
<path d="M64.0381 8.53274V1" stroke="#476CFC" stroke-width="2" stroke-miterlimit="10"/>
<path d="M74.4644 11.726L81.5511 1" stroke="#476CFC" stroke-width="2" stroke-miterlimit="10"/>
<path d="M77.4785 22.7794H87.0903" stroke="#476CFC" stroke-width="2" stroke-miterlimit="10"/>
<ellipse cx="45" cy="97.4396" rx="45" ry="2.56034" fill="#E3E8FC"/>
</svg>
