<svg width="99" height="92" viewBox="0 0 99 92" fill="none" xmlns="http://www.w3.org/2000/svg">
<g clip-path="url(#clip0)">
<path d="M23.9917 62.1718V64.2486C23.9917 65.3533 24.9382 66.237 26.1213 66.237H70.6056C71.7887 66.237 72.7352 65.3533 72.7352 64.2486V62.1718H23.9917Z" fill="#C9D5FF"/>
<path d="M70.6057 65.237H26.1213C25.4248 65.237 24.9917 64.7375 24.9917 64.2486V55.0854H71.6879V64.2486C71.6879 64.7516 71.2398 65.237 70.6057 65.237Z" stroke="#476CFC" stroke-width="2" stroke-miterlimit="10"/>
<path d="M65.424 27.0222L71.4321 53.1739H25.1726L29.7073 27.0488C29.8003 26.5919 30.2038 26.231 30.8063 26.231H64.3116C64.8622 26.231 65.3026 26.5965 65.424 27.0222Z" fill="white" stroke="#476CFC" stroke-width="2" stroke-miterlimit="10"/>
<path d="M76.1896 17.4982L75.4798 16.9238C74.5806 16.1726 73.5395 15.6865 72.3564 15.5098L69.8956 14.8912C54.8466 11.0468 38.9458 11.0468 23.8495 14.8912L21.3887 15.5098C20.2056 15.6865 19.1171 16.1726 18.2653 16.9238L17.5554 17.4982C16.2777 18.6029 15.5205 20.1495 15.5205 21.7402V23.9496C15.5205 25.0985 15.8518 26.2473 16.5143 27.2195C17.6974 28.8544 19.6377 29.8265 21.6726 29.8265H28.156L28.6765 26.8218C28.8658 25.8496 29.7176 25.1868 30.7588 25.1868H32.1785V21.2541C32.1785 19.7076 33.5036 18.4703 35.1599 18.4703H46.8489H58.5378C60.1942 18.4703 61.5192 19.7076 61.5192 21.2541V25.1868H64.264C65.2578 25.1868 66.1097 25.8496 66.3463 26.7334L67.0561 29.8265H71.9778C72.735 29.8265 73.4922 29.7381 74.202 29.473C76.6629 28.5893 78.2245 26.4241 78.2245 24.0821V21.7402C78.2245 20.1053 77.5147 18.5587 76.1896 17.4982Z" fill="#C9D5FF" fill-opacity="0.44"/>
<path d="M76.1896 17.4982L75.4798 16.9238C74.5806 16.1726 73.5395 15.6865 72.3564 15.5098L69.8956 14.8912C54.8466 11.0468 38.9458 11.0468 23.8495 14.8912L21.3887 15.5098C20.2056 15.6865 19.1171 16.1726 18.2653 16.9238L17.5554 17.4982C16.2777 18.6029 15.5205 20.1495 15.5205 21.7402V23.9496C15.5205 25.0985 15.8518 26.2473 16.5143 27.2195C17.6974 28.8544 19.6377 29.8265 21.6726 29.8265H28.156L28.6765 26.8218C28.8658 25.8496 29.7176 25.1868 30.7588 25.1868H32.1785V21.2541C32.1785 19.7076 33.5036 18.4703 35.1599 18.4703H46.8489H58.5378C60.1942 18.4703 61.5192 19.7076 61.5192 21.2541V25.1868H64.264C65.2578 25.1868 66.1097 25.8496 66.3463 26.7334L67.0561 29.8265H71.9778C72.735 29.8265 73.4922 29.7381 74.202 29.473C76.6629 28.5893 78.2245 26.4241 78.2245 24.0821V21.7402C78.2245 20.1053 77.5147 18.5587 76.1896 17.4982Z" stroke="#476CFC" stroke-width="2" stroke-miterlimit="10"/>
<path d="M40.0816 26.0309H37.2422V22.1424C37.2422 21.9215 37.4315 21.7447 37.6681 21.7447H39.703C39.9396 21.7447 40.1289 21.9215 40.1289 22.1424V26.0309H40.0816Z" fill="#476CFC"/>
<path d="M55.604 23.8657H39.7979V25.9867H55.604V23.8657Z" fill="#476CFC"/>
<path d="M56.5504 26.0309H53.7109V22.1424C53.7109 21.9215 53.9002 21.7447 54.1369 21.7447H56.1718C56.4084 21.7447 56.5977 21.9215 56.5977 22.1424V26.0309H56.5504Z" fill="#476CFC"/>
<path d="M70.7949 7.51186C79.8338 7.51186 87.169 14.3609 87.169 22.8007L70.7949 7.51186Z" fill="white"/>
<path d="M70.7949 7.51186C79.8338 7.51186 87.169 14.3609 87.169 22.8007" stroke="#476CFC" stroke-width="2" stroke-miterlimit="10"/>
<path d="M72.1675 0.441864C84.661 0.441864 94.7883 9.89798 94.7883 21.5635L72.1675 0.441864Z" fill="white"/>
<path d="M72.1675 0.441864C84.661 0.441864 94.7883 9.89798 94.7883 21.5635" stroke="#476CFC" stroke-width="2" stroke-miterlimit="10"/>
<path d="M25.0327 7.51186C15.9939 7.51186 8.65869 14.3609 8.65869 22.8007L25.0327 7.51186Z" fill="white"/>
<path d="M25.0327 7.51186C15.9939 7.51186 8.65869 14.3609 8.65869 22.8007" stroke="#476CFC" stroke-width="2" stroke-miterlimit="10"/>
<path d="M23.7077 0.441864C11.2142 0.441864 1.08691 9.89798 1.08691 21.5635L23.7077 0.441864Z" fill="white"/>
<path d="M23.7077 0.441864C11.2142 0.441864 1.08691 9.89798 1.08691 21.5635" stroke="#476CFC" stroke-width="2" stroke-miterlimit="10"/>
<path d="M46.8964 49.3132C52.7509 49.3132 57.497 44.8817 57.497 39.4152C57.497 33.9487 52.7509 29.5172 46.8964 29.5172C41.0419 29.5172 36.2959 33.9487 36.2959 39.4152C36.2959 44.8817 41.0419 49.3132 46.8964 49.3132Z" fill="#476CFC"/>
<path d="M46.8962 45.7782C50.6598 45.7782 53.7108 42.9294 53.7108 39.4152C53.7108 35.901 50.6598 33.0522 46.8962 33.0522C43.1326 33.0522 40.0815 35.901 40.0815 39.4152C40.0815 42.9294 43.1326 45.7782 46.8962 45.7782Z" fill="#C9D5FF"/>
</g>
<ellipse cx="50.6429" cy="89.4679" rx="48.2098" ry="2.53211" fill="#E3E8FC"/>
<defs>
<clipPath id="clip0">
<rect width="94.6003" height="66.6789" fill="white" transform="translate(0.61377)"/>
</clipPath>
</defs>
</svg>
