<svg width="106" height="107" viewBox="0 0 106 107" fill="none" xmlns="http://www.w3.org/2000/svg">
<path d="M25.7852 74.4243V76.9282C25.7852 78.2601 26.8507 79.3256 28.1825 79.3256H78.2613C79.5932 79.3256 80.6587 78.2601 80.6587 76.9282V74.4243H25.7852Z" fill="#C9D5FF"/>
<path d="M78.2614 78.3255H28.1825C27.4029 78.3255 26.7852 77.7077 26.7852 76.9281V65.675H79.6055V76.9281C79.6055 77.7224 78.9731 78.3255 78.2614 78.3255Z" stroke="#476CFC" stroke-width="2" stroke-miterlimit="10"/>
<path d="M72.5461 31.9799L79.3682 63.7817H26.9516L32.0981 32.0287C32.2283 31.3328 32.7749 30.887 33.4568 30.887H71.1757C71.8046 30.887 72.3796 31.3409 72.5461 31.9799Z" fill="white" stroke="#476CFC" stroke-width="2" stroke-miterlimit="10"/>
<path d="M84.548 20.5639L83.7488 19.8714C82.7366 18.9657 81.5646 18.3797 80.2327 18.1666L77.4624 17.4207C60.5208 12.7859 42.6203 12.7859 25.6255 17.4207L22.8552 18.1666C21.5233 18.3797 20.2979 18.9657 19.339 19.8714L18.5399 20.5639C17.1014 21.8958 16.249 23.7604 16.249 25.6783V28.342C16.249 29.7271 16.6219 31.1122 17.3678 32.2843C18.6997 34.2554 20.884 35.4275 23.1748 35.4275H30.4735L31.0596 31.8048C31.2727 30.6328 32.2316 29.8337 33.4037 29.8337H35.0019V25.0922C35.0019 23.2276 36.4936 21.736 38.3583 21.736H51.5173H64.6763C66.5409 21.736 68.0326 23.2276 68.0326 25.0922V29.8337H71.1226C72.2414 29.8337 73.2003 30.6328 73.4667 31.6983L74.2658 35.4275H79.8065C80.6589 35.4275 81.5113 35.3209 82.3104 35.0013C85.0807 33.9358 86.8388 31.3253 86.8388 28.5018V25.6783C86.8388 23.7071 86.0397 21.8425 84.548 20.5639Z" fill="#C9D5FF"/>
<path d="M83.8931 21.3196L83.8972 21.3232C85.1516 22.3984 85.8388 23.9778 85.8388 25.6783V28.5018C85.8388 30.908 84.3389 33.1497 81.9514 34.0679L81.9514 34.0678L81.939 34.0728C81.2959 34.33 80.58 34.4275 79.8065 34.4275H75.0743L74.4445 31.4887L74.441 31.4722L74.4369 31.4557C74.0657 29.9712 72.7266 28.8337 71.1226 28.8337H69.0326V25.0922C69.0326 22.6753 67.0932 20.736 64.6763 20.736H51.5173H38.3583C35.9414 20.736 34.0019 22.6753 34.0019 25.0922V28.8337H33.4037C31.7441 28.8337 30.3745 29.9825 30.0757 31.6259L30.0739 31.6355L30.0724 31.6451L29.6223 34.4275H23.1748C21.2308 34.4275 19.3566 33.4335 18.2042 31.736C17.5728 30.7386 17.249 29.5469 17.249 28.342V25.6783C17.249 24.0602 17.9686 22.4615 19.2077 21.3085L19.9939 20.627L20.0101 20.613L20.0256 20.5984C20.8308 19.8379 21.8689 19.3371 23.0132 19.154L23.0647 19.1458L23.1151 19.1322L25.8854 18.3864L25.8886 18.3855C42.7114 13.7975 60.4299 13.7978 77.1985 18.3853L77.2024 18.3863L79.9727 19.1322L80.0231 19.1458L80.0747 19.154C81.2035 19.3346 82.2019 19.8291 83.0821 20.6166L83.088 20.6219L83.0939 20.627L83.8931 21.3196Z" stroke="#476CFC" stroke-width="2" stroke-miterlimit="10"/>
<path d="M43.8987 30.8336H40.7021V26.1455C40.7021 25.8791 40.9153 25.666 41.1816 25.666H43.4725C43.7388 25.666 43.9519 25.8791 43.9519 26.1455V30.8336H43.8987Z" fill="#476CFC"/>
<path d="M61.3731 28.2231H43.5791V30.7803H61.3731V28.2231Z" fill="#476CFC"/>
<path d="M54.2345 49.705V42.1933C54.2345 41.927 54.0214 41.7139 53.755 41.7139H52.6362C52.3698 41.7139 52.1567 41.927 52.1567 42.1933V49.705C52.1567 49.9714 52.3698 50.1845 52.6362 50.1845H53.755C54.0214 50.1845 54.2345 49.9714 54.2345 49.705Z" fill="white"/>
<path d="M53.1686 53.7539C53.816 53.7539 54.3407 53.2291 54.3407 52.5818C54.3407 51.9345 53.816 51.4098 53.1686 51.4098C52.5213 51.4098 51.9966 51.9345 51.9966 52.5818C51.9966 53.2291 52.5213 53.7539 53.1686 53.7539Z" fill="white"/>
<path d="M40.9686 54.6063L51.7835 36.4397C52.4228 35.3743 54.0211 35.3743 54.6604 36.4397L65.4753 54.6063C66.1146 55.7251 65.3154 57.1102 64.0368 57.1102H42.407C41.0752 57.1102 40.276 55.7251 40.9686 54.6063Z" fill="#476CFC"/>
<path d="M62.4387 30.8336H59.2422V26.1455C59.2422 25.8791 59.4553 25.666 59.7217 25.666H62.0125C62.2789 25.666 62.492 25.8791 62.492 26.1455V30.8336H62.4387Z" fill="#476CFC"/>
<ellipse cx="53.9304" cy="103.937" rx="51.9695" ry="2.94161" fill="#E3E8FC"/>
<path d="M53.8715 41.3863L53.6515 51.3863H52.1315L51.9115 41.3863H53.8715ZM52.9715 55.4463C52.6248 55.4463 52.3315 55.3263 52.0915 55.0863C51.8515 54.8463 51.7315 54.553 51.7315 54.2063C51.7315 53.8596 51.8515 53.5663 52.0915 53.3263C52.3315 53.0863 52.6248 52.9663 52.9715 52.9663C53.3048 52.9663 53.5848 53.0863 53.8115 53.3263C54.0515 53.5663 54.1715 53.8596 54.1715 54.2063C54.1715 54.553 54.0515 54.8463 53.8115 55.0863C53.5848 55.3263 53.3048 55.4463 52.9715 55.4463Z" fill="white"/>
</svg>
