<svg width="54" height="54" viewBox="0 0 54 54" fill="none" xmlns="http://www.w3.org/2000/svg">
<path d="M24.8363 0C26.2137 0 27.6019 0 28.9793 0C29.0118 0.151777 29.142 0.0867296 29.2288 0.0975708C31.8425 0.336077 34.3804 0.910661 36.8315 1.86469C39.8466 3.04638 42.5471 4.70508 44.9548 6.85164C47.1565 8.81389 48.9894 11.0689 50.4535 13.6382C52.1888 16.6846 53.2842 19.9261 53.7506 23.3953C53.8156 23.9048 53.7614 24.4361 54 24.9239C54 26.3658 54 27.7968 54 29.2387C53.8373 29.2821 53.8915 29.4122 53.8807 29.5206C53.7397 30.7023 53.577 31.884 53.3167 33.044C52.4816 36.7191 50.9199 40.0691 48.6857 43.0829C47.0046 45.3487 45.0199 47.3001 42.7206 48.9372C39.0657 51.539 35.0203 53.1544 30.5628 53.7507C30.0639 53.8157 29.5433 53.7615 29.0769 54C27.667 54 26.2571 54 24.8472 54C24.7821 53.8265 24.6302 53.8916 24.5218 53.8807C23.3179 53.7507 22.1358 53.5772 20.9536 53.3062C16.4744 52.2763 12.5158 50.2164 9.07773 47.1809C7.14722 45.468 5.49869 43.5166 4.12131 41.3158C2.06065 38.0201 0.770034 34.4533 0.249448 30.5939C0.184374 30.1168 0.238602 29.6073 0 29.152C0 27.7101 0 26.2791 0 24.8372C0.184374 24.7396 0.108456 24.5662 0.130147 24.4252C0.39044 21.7366 1.03033 19.1347 2.0715 16.6412C3.35128 13.5515 5.14079 10.7978 7.46174 8.38025C9.22956 6.53724 11.2035 4.96527 13.4051 3.67517C16.5503 1.843 19.9124 0.693837 23.524 0.238506C23.9578 0.173459 24.435 0.249348 24.8363 0ZM14.8801 35.6133C14.9777 35.6892 15.0753 35.7651 15.1729 35.8302C16.6045 36.6758 18.1338 37.2937 19.7714 37.6081C22.7757 38.2044 25.7148 37.9767 28.578 36.8818C29.8578 36.3939 31.04 35.7109 32.1137 34.8653C33.8056 33.5427 35.1504 31.9165 36.1482 30.0084C37.2002 27.992 37.8944 25.8779 37.9269 23.6013C37.9377 22.5822 38.1655 21.8233 39.0331 21.2162C39.6513 20.7826 40.1394 20.1538 40.5732 19.3841C39.6296 19.7852 38.7403 20.0671 37.7859 20.0996C38.274 19.7527 38.6969 19.3407 39.044 18.8854C39.391 18.43 39.7164 17.953 39.8249 17.3351C39.3151 17.5736 38.8379 17.8338 38.3499 18.0181C37.8401 18.2024 37.3304 18.3975 36.7881 18.4951C36.5929 18.5276 36.4736 18.5059 36.3326 18.365C35.9205 17.9422 35.4107 17.6386 34.8901 17.3676C32.9162 16.3702 30.1073 16.9773 28.6865 18.6685C27.6128 19.9586 27.1681 21.4114 27.4176 23.0701C27.4609 23.3303 27.3959 23.3953 27.1356 23.3628C26.3981 23.2652 25.6497 23.2002 24.9231 23.0375C21.8538 22.3329 19.2617 20.8151 17.1143 18.5168C16.9191 18.3108 16.7781 18.0506 16.4635 17.888C15.2055 20.6091 15.7369 22.9183 18.047 24.9239C17.2878 24.8697 16.6588 24.7288 16.0731 24.4144C15.8345 24.2843 15.7586 24.306 15.7586 24.6095C15.8128 26.5826 17.2987 28.675 19.1424 29.3038C19.3593 29.3796 19.6088 29.3796 19.8365 29.5748C19.1858 29.7591 18.5676 29.7699 17.9602 29.6724C17.6891 29.629 17.6349 29.7049 17.7433 29.9651C18.2314 31.1684 19.0556 32.0683 20.1836 32.6971C20.8777 33.0873 21.6369 33.2608 22.4394 33.3692C20.2053 35.093 17.6999 35.8085 14.8801 35.6133Z" fill="#5176FF"/>
</svg>
