<svg width="105" height="96" viewBox="0 0 105 96" fill="none" xmlns="http://www.w3.org/2000/svg">
<path d="M78.8423 9.39712V1" stroke="#476CFC" stroke-width="2" stroke-miterlimit="10"/>
<path d="M90.6733 13.0882L98.7147 1" stroke="#476CFC" stroke-width="2" stroke-miterlimit="10"/>
<path d="M94.0933 25.5454H105" stroke="#476CFC" stroke-width="2" stroke-miterlimit="10"/>
<path d="M98.8074 19.2707C100.798 19.2707 102.412 17.6595 102.412 15.6719C102.412 13.6844 100.798 12.0732 98.8074 12.0732C96.8165 12.0732 95.2026 13.6844 95.2026 15.6719C95.2026 17.6595 96.8165 19.2707 98.8074 19.2707Z" fill="#C9D5FF"/>
<path d="M85.0354 19.2707C87.0263 19.2707 88.6402 17.6595 88.6402 15.6719C88.6402 13.6844 87.0263 12.0732 85.0354 12.0732C83.0446 12.0732 81.4307 13.6844 81.4307 15.6719C81.4307 17.6595 83.0446 19.2707 85.0354 19.2707Z" fill="#C9D5FF"/>
<path d="M85.0354 38.0951C87.0263 38.0951 88.6402 36.4838 88.6402 34.4963C88.6402 32.5087 87.0263 30.8975 85.0354 30.8975C83.0446 30.8975 81.4307 32.5087 81.4307 34.4963C81.4307 36.4838 83.0446 38.0951 85.0354 38.0951Z" fill="#C9D5FF"/>
<path d="M85.0354 56.8269C87.0263 56.8269 88.6402 55.2157 88.6402 53.2282C88.6402 51.2406 87.0263 49.6294 85.0354 49.6294C83.0446 49.6294 81.4307 51.2406 81.4307 53.2282C81.4307 55.2157 83.0446 56.8269 85.0354 56.8269Z" fill="#C9D5FF"/>
<path d="M85.0354 75.5591C87.0263 75.5591 88.6402 73.9478 88.6402 71.9603C88.6402 69.9727 87.0263 68.3615 85.0354 68.3615C83.0446 68.3615 81.4307 69.9727 81.4307 71.9603C81.4307 73.9478 83.0446 75.5591 85.0354 75.5591Z" fill="#C9D5FF"/>
<path d="M98.8074 38.0951C100.798 38.0951 102.412 36.4838 102.412 34.4963C102.412 32.5087 100.798 30.8975 98.8074 30.8975C96.8165 30.8975 95.2026 32.5087 95.2026 34.4963C95.2026 36.4838 96.8165 38.0951 98.8074 38.0951Z" fill="#C9D5FF"/>
<path d="M98.8074 56.8269C100.798 56.8269 102.412 55.2157 102.412 53.2282C102.412 51.2406 100.798 49.6294 98.8074 49.6294C96.8165 49.6294 95.2026 51.2406 95.2026 53.2282C95.2026 55.2157 96.8165 56.8269 98.8074 56.8269Z" fill="#C9D5FF"/>
<path d="M98.8074 75.5591C100.798 75.5591 102.412 73.9478 102.412 71.9603C102.412 69.9727 100.798 68.3615 98.8074 68.3615C96.8165 68.3615 95.2026 69.9727 95.2026 71.9603C95.2026 73.9478 96.8165 75.5591 98.8074 75.5591Z" fill="#C9D5FF"/>
<path d="M84.4805 75.3744H7.3942C5.08346 75.3744 3.23486 73.5289 3.23486 71.222V20.4702C3.23486 18.1633 5.08346 16.3177 7.3942 16.3177H84.4805C86.7912 16.3177 88.6398 18.1633 88.6398 20.4702V71.222C88.6398 73.5289 86.7912 75.3744 84.4805 75.3744Z" fill="#476CFC"/>
<path d="M8.31855 73.3444C7.02454 73.3444 6.00781 72.3293 6.00781 71.0374V21.4852C6.00781 20.1933 7.02454 19.1783 8.31855 19.1783H83.5563C84.8503 19.1783 85.867 20.1933 85.867 21.4852V71.0374C85.867 72.3293 84.8503 73.3444 83.5563 73.3444H8.31855Z" fill="white"/>
<path d="M85.5898 75.3744H6.37764C2.86532 75.3744 0 72.5138 0 69.0073H91.9675C91.9675 72.6061 89.1021 75.3744 85.5898 75.3744Z" fill="#476CFC"/>
<path d="M68.028 49.1681H23.939C20.9813 49.1681 18.5781 46.7689 18.5781 43.8161C18.5781 40.8632 20.9813 38.4641 23.939 38.4641H68.028C70.9857 38.4641 73.3889 40.8632 73.3889 43.8161C73.3889 46.7689 70.9857 49.1681 68.028 49.1681Z" fill="#476CFC"/>
<path d="M85.9594 63.2863H6.00781V69.0997H85.9594V63.2863Z" fill="#F2F2F5"/>
<path d="M26.7119 43.7239H64.5156" stroke="white" stroke-width="2" stroke-miterlimit="10" stroke-linecap="round" stroke-linejoin="round"/>
<ellipse cx="47.6817" cy="93.5121" rx="44.0269" ry="2.48795" fill="#E3E8FC"/>
</svg>
