<svg width="106" height="124" viewBox="0 0 106 124" fill="none" xmlns="http://www.w3.org/2000/svg">
<path d="M15 94.866L19.0876 103.302C19.7331 104.727 21.1315 105.559 22.5299 105.559H62.9761C64.6972 105.559 66.2032 104.252 66.741 102.47L69 93.5591L15 94.866Z" fill="#476CFC"/>
<path d="M63.1673 97.4096H20.2815C17.3239 97.4096 15 94.9809 15 92.1298V6.27983C15 3.32312 17.4295 1 20.2815 1H63.1673C66.1249 1 68.4488 3.42872 68.4488 6.27983V92.0242C68.4488 94.9809 66.1249 97.4096 63.1673 97.4096Z" fill="white" stroke="#476CFC" stroke-width="2" stroke-miterlimit="10"/>
<path d="M59.9985 7.01892H56.5127C54.6113 7.01892 53.0269 8.60287 53.0269 10.5036C53.0269 12.4043 51.4424 13.9883 49.5411 13.9883H34.0135C32.1121 13.9883 30.5277 12.4043 30.5277 10.5036C30.5277 8.60287 28.9432 7.01892 27.0419 7.01892H23.4505C22.0773 7.01892 21.021 8.07489 21.021 9.44764V88.8562C21.021 90.229 22.0773 91.2849 23.4505 91.2849H59.9985C61.3717 91.2849 62.428 90.229 62.428 88.8562V9.44764C62.428 8.07489 61.3717 7.01892 59.9985 7.01892Z" fill="white" stroke="#476CFC" stroke-width="2" stroke-miterlimit="10"/>
<path d="M52.71 60.4508L50.9143 56.755C50.5974 56.0158 50.5974 55.0654 51.0199 54.3262C52.1818 52.2143 52.6044 49.68 52.1819 47.0401C51.3368 42.4994 47.7454 38.9092 43.2033 38.17C35.9148 37.0084 29.6827 42.9218 30.3164 50.1024C30.739 55.2766 34.8585 59.5005 40.0344 60.0285C42.2526 60.2396 44.3652 59.9229 46.1609 58.9725C47.006 58.5501 48.0623 58.5501 48.8017 59.1837L51.7593 61.19C52.2875 61.718 52.9213 61.0844 52.71 60.4508Z" fill="#476CFC"/>
<path d="M77.2163 46.512C79.4914 46.512 81.3358 44.6682 81.3358 42.3938C81.3358 40.1193 79.4914 38.2755 77.2163 38.2755C74.9411 38.2755 73.0967 40.1193 73.0967 42.3938C73.0967 44.6682 74.9411 46.512 77.2163 46.512Z" fill="#C9D5FF"/>
<path d="M77.2163 67.9482C79.4914 67.9482 81.3358 66.1044 81.3358 63.8299C81.3358 61.5555 79.4914 59.7117 77.2163 59.7117C74.9411 59.7117 73.0967 61.5555 73.0967 63.8299C73.0967 66.1044 74.9411 67.9482 77.2163 67.9482Z" fill="#C9D5FF"/>
<path d="M77.2163 89.3842C79.4914 89.3842 81.3358 87.5404 81.3358 85.266C81.3358 82.9915 79.4914 81.1477 77.2163 81.1477C74.9411 81.1477 73.0967 82.9915 73.0967 85.266C73.0967 87.5404 74.9411 89.3842 77.2163 89.3842Z" fill="#C9D5FF"/>
<path d="M77.2163 110.82C79.4914 110.82 81.3358 108.977 81.3358 106.702C81.3358 104.428 79.4914 102.584 77.2163 102.584C74.9411 102.584 73.0967 104.428 73.0967 106.702C73.0967 108.977 74.9411 110.82 77.2163 110.82Z" fill="#C9D5FF"/>
<path d="M93.0605 46.512C95.3357 46.512 97.1801 44.6682 97.1801 42.3938C97.1801 40.1193 95.3357 38.2755 93.0605 38.2755C90.7853 38.2755 88.9409 40.1193 88.9409 42.3938C88.9409 44.6682 90.7853 46.512 93.0605 46.512Z" fill="#C9D5FF"/>
<path d="M93.0605 67.9482C95.3357 67.9482 97.1801 66.1044 97.1801 63.8299C97.1801 61.5555 95.3357 59.7117 93.0605 59.7117C90.7853 59.7117 88.9409 61.5555 88.9409 63.8299C88.9409 66.1044 90.7853 67.9482 93.0605 67.9482Z" fill="#C9D5FF"/>
<path d="M93.0605 89.3842C95.3357 89.3842 97.1801 87.5404 97.1801 85.266C97.1801 82.9915 95.3357 81.1477 93.0605 81.1477C90.7853 81.1477 88.9409 82.9915 88.9409 85.266C88.9409 87.5404 90.7853 89.3842 93.0605 89.3842Z" fill="#C9D5FF"/>
<path d="M93.0605 110.82C95.3357 110.82 97.1801 108.977 97.1801 106.702C97.1801 104.428 95.3357 102.584 93.0605 102.584C90.7853 102.584 88.9409 104.428 88.9409 106.702C88.9409 108.977 90.7853 110.82 93.0605 110.82Z" fill="#C9D5FF"/>
<ellipse cx="53" cy="120.559" rx="53" ry="3" fill="#E3E8FC"/>
</svg>
